<svg xmlns="http://www.w3.org/2000/svg" viewBox="0 0 558.69 163.44"><defs><style>.a{fill:#fff100;}.b{fill:#00adee;}.c{font-size:100.48px;fill:#fff;font-family:FuturaPT-Medium, Futura PT;font-weight:500;}.d{opacity:0.88;}.e{fill:#ec008c;}</style></defs><path class="a" d="M7082.51,7171.35a5.86,5.86,0,0,0-7.45,3.07c-1.3,3.21.51,6.31,3.42,7.71a45.83,45.83,0,0,1,10.68,7.45,20.19,20.19,0,0,1,6.51,10.78c.93,4.23.73,8.62.55,12.91a25.05,25.05,0,0,1-1,7c-.73,2.17-1.85,4.19-2.6,6.35a26,26,0,0,0-1.3,6.46c-.12,1.62-.41,3.93.73,5.28a12,12,0,0,0,4.65,2.76,7.22,7.22,0,0,0,5.34.32c1.94-.78,3.16-2.73,4.12-4.49a23.56,23.56,0,0,0,2.28-6.56,12.45,12.45,0,0,1,1.06-3.45,24.22,24.22,0,0,1,2-2.57,8.58,8.58,0,0,0,1.21-3c.28-1.07,1.07-3.49,2.7-2.72.72.34,1.35-.73.63-1.08a2.79,2.79,0,0,0-3.29.75c-1.3,1.35-1.1,3.39-2,4.93s-2.23,2.58-2.84,4.32-.82,3.87-1.47,5.75a16.58,16.58,0,0,1-3.05,5.61c-1.55,1.74-3.6,1.9-5.71,1.17-1.65-.56-4.69-1.74-5-3.63a18.23,18.23,0,0,1,.44-6.66c.9-4.21,3.43-7.86,4.1-12.12a62.79,62.79,0,0,0,.47-12,26.12,26.12,0,0,0-2.37-10.63,25.62,25.62,0,0,0-7.36-8.35c-1.66-1.32-3.37-2.61-5.12-3.81a21.56,21.56,0,0,0-3.07-1.73,7.17,7.17,0,0,1-2.73-1.79,4.63,4.63,0,0,1-.24-5.47,4.72,4.72,0,0,1,5.5-1.48c.75.29,1.07-.92.33-1.21Z" transform="translate(-7053.17 -7141.35)"/><path class="b" d="M7289.78,7231.36a4.33,4.33,0,0,0,5.23,1,.63.63,0,0,0-.63-1.08l-.14.07-.05,0-.26.09-.27.07-.15,0h-.6l-.27,0h-.05l-.15,0-.54-.15,0,0-.11-.05-.27-.15a2.57,2.57,0,0,1-.8-.69.63.63,0,0,0-.89,0,.64.64,0,0,0,0,.88Z" transform="translate(-7053.17 -7141.35)"/><text class="c" transform="translate(11.4 83.75)">CIRCUIT</text><g class="d"><path class="e" d="M7081.55,7190.08l7.21-.07c1.94,0,4.21-.38,6.09.2.44.14,1.25.39,1,1s-1.55.76-2.08.83c-2.39.31-4.83.4-7.23.54q-7.35.45-14.71.51-3.68,0-7.35,0c-2.31,0-4.76,0-6.93-.9-.71-.3-2.3-1.1-1.92-2.13s2.81-.5,3.6-.5l8.71,0a1.25,1.25,0,0,0,0-2.5l-10,0c-1.22,0-2.57-.11-3.61.64a3.22,3.22,0,0,0-1.23,3c.29,2.55,3,3.8,5.21,4.33a40.74,40.74,0,0,0,8.83.58c6.53.06,13.08-.12,19.6-.52,1.47-.09,2.94-.2,4.41-.31a22.3,22.3,0,0,0,4.16-.49c1.88-.52,3.59-2.07,2.89-4.2s-3.69-2.59-5.69-2.58c-3.68,0-7.37.06-11.05.1a1.25,1.25,0,0,0,0,2.5Z" transform="translate(-7053.17 -7141.35)"/><path class="e" d="M7069.08,7198.06c-2.72-.37-5.8-.71-8,1.25-1.81,1.6-2.49,4.36-.81,6.31s4.37,2,6.66,2a46.57,46.57,0,0,0,9.84-1.15c6.55-1.45,13-3.41,19.49-5.18,6.13-1.67,12.24-3.41,18.27-5.42A150.87,150.87,0,0,0,7134,7188c1.44-.72.17-2.87-1.27-2.16-9.74,4.85-20.15,8.23-30.59,11.22-5.45,1.56-10.92,3-16.39,4.49s-11.15,3.24-16.95,3.54c-1.75.09-6,.64-7-1.5-.55-1.27.74-2.56,1.81-3a9.5,9.5,0,0,1,4.74-.13c1.57.21,2.25-2.2.66-2.41Z" transform="translate(-7053.17 -7141.35)"/><path class="e" d="M7147.52,7184.15a2.45,2.45,0,0,1,.61,2.81,4.72,4.72,0,0,1-2.63,2.52c-3,1.49-6.59,1.75-9.89,2.16a7.25,7.25,0,0,0-4,2,6.86,6.86,0,0,0-2.61,3.7,3.6,3.6,0,0,0,1.57,3.6,5.07,5.07,0,0,0,1,.5,3.9,3.9,0,0,0,.48.17c-.19-.26-.24-.31-.16-.15a1.67,1.67,0,0,0,1.66.71c1.61-.08,1.62-2.58,0-2.5-.84,0,1,1,.22.12a2,2,0,0,0-.8-.5,2.5,2.5,0,0,1-1.31-.77c-.74-1.13,1-2.49,1.77-3.12a5,5,0,0,1,2-1.18,18.66,18.66,0,0,1,2.25-.26,39,39,0,0,0,5.37-1c2.66-.69,5.73-1.73,7.14-4.31a5.07,5.07,0,0,0-1.32-6.67c-1.33-.9-2.58,1.26-1.26,2.16Z" transform="translate(-7053.17 -7141.35)"/><path class="e" d="M7147,7199c3.64-.94,7.14-1.16,10-3.86s5.45-5.66,8.17-8.46c5.51-5.66,11.22-11.16,17.87-15.47,1.34-.87.09-3-1.27-2.16a105,105,0,0,0-17.43,14.9c-2.76,2.82-5.46,5.7-8.21,8.53a10.14,10.14,0,0,1-4.59,3c-1.72.49-3.5.69-5.23,1.14a1.25,1.25,0,0,0,.67,2.41Z" transform="translate(-7053.17 -7141.35)"/><path class="e" d="M7194.11,7163.27a42.67,42.67,0,0,1,6.94-2.36,14.62,14.62,0,0,1,1.57-.33c.57-.08,1.08-.21,1.28.4.44,1.31.56,3.3-.4,4.4a11.42,11.42,0,0,1-4.44,2.5,25.34,25.34,0,0,1-5.27,1.35c-3.25.49-7.5.65-9.66,3.53a4.16,4.16,0,0,0-.28,4.84,3.36,3.36,0,0,0,4.22,1.06c1.46-.68.19-2.84-1.26-2.16-.41.2-.91-.21-1.05-.59a2.08,2.08,0,0,1,.79-2.11c1.34-1.18,3.4-1.49,5.09-1.76s3.7-.47,5.52-.93a25,25,0,0,0,4.83-1.8,9.14,9.14,0,0,0,3.86-2.91,6.75,6.75,0,0,0,.71-4.69c-.2-1.44-.57-3.08-2.16-3.55a7.3,7.3,0,0,0-3.53.22,44.34,44.34,0,0,0-8,2.73c-1.47.65-.2,2.8,1.26,2.16Z" transform="translate(-7053.17 -7141.35)"/><path class="e" d="M7200.51,7177c1.93-.35,3.36,1.92,4.54,3.07a13,13,0,0,0,5,2.79,41.41,41.41,0,0,0,12.42,2.32,40,40,0,0,0,6.38-.3c1.45-.19,3.14-.47,3.86-1.94,1.65-3.41-3.43-6.47-6.08-7.05-1.57-.35-2.24,2.06-.67,2.41a6.85,6.85,0,0,1,3.83,2.19c.52.6,1.05,1.34.11,1.68a10.33,10.33,0,0,1-2.41.36,39.13,39.13,0,0,1-10.59-.43,40.91,40.91,0,0,1-4.88-1.21,13.3,13.3,0,0,1-4.9-2.3c-2.23-2-3.89-4.62-7.28-4-1.58.29-.91,2.7.67,2.41Z" transform="translate(-7053.17 -7141.35)"/><path class="e" d="M7214.9,7171.46c-2.42.6-5.09.15-7.44,1.14-1.55.66-2,2.34-2.72,3.74a17.53,17.53,0,0,0-2.1,5.62c-1.25,9.72,12,8.64,18.17,9a24.7,24.7,0,0,1,3.63.47c.55.12,1.09.25,1.63.42s1,.2.86.7c-.18.8-1.47,1-2.09,1.18a6.9,6.9,0,0,0-1.94,1.22c-1.25,1,.52,2.77,1.76,1.77,1.08-.87,2.5-.9,3.56-1.83a3.14,3.14,0,0,0,.91-3.94c-1-1.53-3.43-1.86-5.06-2.12a44.83,44.83,0,0,0-6-.49,53.14,53.14,0,0,1-6.44-.39c-1.82-.27-4-.67-5.39-2s-1.34-3.29-.84-5a28.43,28.43,0,0,1,2.57-5.61c.58-1,2.4-1,3.51-1.09a28.27,28.27,0,0,0,4.11-.48c1.56-.38.9-2.79-.67-2.41Z" transform="translate(-7053.17 -7141.35)"/><path class="e" d="M7210.86,7195.64a8.38,8.38,0,0,0-7.24,3.55c-1.66,2.4-.36,5.38,1.72,7,4.63,3.7,11.11,2.19,16.33.88,12.57-3.13,25.19-6.62,36.79-12.52a59.74,59.74,0,0,0,8.88-5.37c2.43-1.85,4.78-3.73,7.93-4,1.6-.13,1.61-2.63,0-2.5a13.49,13.49,0,0,0-6.61,2.4c-2,1.36-3.78,2.92-5.82,4.16a98.43,98.43,0,0,1-15.92,7.68c-5.43,2.07-11,3.78-16.6,5.32-2.81.76-5.62,1.49-8.45,2.2a42.62,42.62,0,0,1-8.06,1.53c-2.66.14-5.89-.26-7.68-2.49-1.13-1.42-.88-2.72.45-3.87a5.67,5.67,0,0,1,4.28-1.52c1.6.15,1.59-2.35,0-2.5Z" transform="translate(-7053.17 -7141.35)"/><path class="e" d="M7288.36,7184.94c1.47.34.85,2.7.58,3.72a10,10,0,0,1-3.3,5.22c-1.85,1.58-4,2.82-5.85,4.37a56.06,56.06,0,0,0-5.71,5.51c-3.15,3.45-7.1,7.59-6.79,12.64.24,3.92,2.86,7.71,6.9,8.37,3.57.59,8.68-.72,9.64-4.73.37-1.56-2-2.23-2.41-.66-.72,3-5.47,3.6-7.89,2.65a6.22,6.22,0,0,1-3.51-4.28,8.16,8.16,0,0,1,1.08-6.25,34.77,34.77,0,0,1,4.6-5.81,57.64,57.64,0,0,1,5.35-5.25c3.24-2.74,7.58-4.66,9.42-8.71,1.21-2.67,2.69-8.25-1.45-9.2-1.56-.37-2.23,2-.66,2.41Z" transform="translate(-7053.17 -7141.35)"/><path class="e" d="M7290.7,7209.07c1.13-.23,3.66-1.9,4.54-.7a5.7,5.7,0,0,1,.64,2.47,18.4,18.4,0,0,1,.11,3,19,19,0,0,1-1.29,6.13,57.84,57.84,0,0,0-2.15,5.72,33.62,33.62,0,0,0-.92,5.65,36.19,36.19,0,0,0-.24,6c.35,3.87,5.07,3.42,7.28,1.5a10.13,10.13,0,0,0,2.78-5.21c.64-2.35,1.19-4.73,1.78-7.09a1.25,1.25,0,0,0-2.41-.66c-.49,1.94-1,3.89-1.46,5.84-.42,1.69-.81,3.63-2,4.95a3.52,3.52,0,0,1-2.14,1.19c-1.15.1-1.33-.52-1.3-1.51,0-1.89.12-3.78.31-5.65a25.53,25.53,0,0,1,1.15-5.61c.62-1.87,1.53-3.63,2.14-5.5a20.1,20.1,0,0,0,.53-10.87,3.9,3.9,0,0,0-3-3.19c-1.78-.3-3.33.85-5,1.19s-.91,2.73.66,2.41Z" transform="translate(-7053.17 -7141.35)"/><path class="e" d="M7303.62,7215.64a8.29,8.29,0,0,0,.05-2.81c-.06-.57-.28-2.08.67-1.82s.83,1.81.84,2.52c0,1.11,0,2.21-.05,3.32q-.06,6.85.05,13.69c0,1.69-.17,3.77,1.35,4.91a2.52,2.52,0,0,0,3.78-.88,10.07,10.07,0,0,0,.84-4c.13-1.42.21-2.84.41-4.25.22-1.57-2.19-2.25-2.41-.66-.2,1.41-.31,2.83-.44,4.25-.07.7-.12,1.41-.22,2.11a4.59,4.59,0,0,1-.22,1c-.17.42-.16.69-.45.08s-.14-2.22-.15-3.06c0-1.14,0-2.28,0-3.42q0-3.42,0-6.84c0-2.22.13-4.44.07-6.65-.05-1.67-.5-3.43-2.08-4.29a2.9,2.9,0,0,0-4,1c-1,1.69,0,3.38-.43,5.11-.38,1.56,2,2.23,2.42.67Z" transform="translate(-7053.17 -7141.35)"/><path class="e" d="M7311.9,7212.33a9.42,9.42,0,0,1,1.23-5.94,11.47,11.47,0,0,0,1.08-2.43c.24-.91.2-1.88.37-2.8.58-3.23,4.31-4.5,7.05-5.35q3-.95,6.05-1.77a51.6,51.6,0,0,0,6-1.63,5.73,5.73,0,0,0,3.17-7.25c-1.08-3.32-5-5.57-8.27-6-1.57-.22-2.25,2.19-.66,2.41,2.64.37,6.29,2.12,6.71,5.08.58,4-4.64,4.21-7.38,4.95a54.93,54.93,0,0,0-10.21,3.34c-2.58,1.29-4.62,3.34-5,6.3a9,9,0,0,1-.69,3.16c-.43.87-.93,1.69-1.29,2.6a11.75,11.75,0,0,0-.59,6c.23,1.59,2.64.91,2.41-.66Z" transform="translate(-7053.17 -7141.35)"/><path class="e" d="M7315.1,7178.44c-1.75-.06-3.57-.38-5.1.68a4.84,4.84,0,0,0-2,3.72c-.2,3.39,2.83,5.88,5.78,6.84a15.32,15.32,0,0,0,10.49-.88,43.76,43.76,0,0,0,9.83-5.78c2.4-1.86,4.34-5.32,7.49-6.06,1.56-.37.9-2.78-.67-2.41-2.68.63-4.93,3-6.71,5a20.3,20.3,0,0,1-4.46,3.41,55,55,0,0,1-5.38,3.08c-3.38,1.61-7.61,2.55-11.11.73-1.47-.77-3-2.26-2.75-4.09.38-2.34,2.82-1.8,4.56-1.74s1.6-2.45,0-2.5Z" transform="translate(-7053.17 -7141.35)"/><path class="e" d="M7354.12,7175.45c1.84.07,4.1-.58,5.81.26a3.78,3.78,0,0,1,1.92,3.7c-.46,4.29-5.35,4.32-8.57,4.72a32.81,32.81,0,0,0-10.3,3c-2.73,1.3-6.28,3.12-7.36,6.17-1.28,3.62,2.09,6,5,7.2,1.46.62,2.74-1.54,1.26-2.16-1.26-.53-2.82-1.15-3.61-2.34-1-1.54.3-3.08,1.49-4a26.93,26.93,0,0,1,10.28-4.72,38.71,38.71,0,0,1,5.65-.84,11.66,11.66,0,0,0,5.24-1.45,6.94,6.94,0,0,0,3.08-8.1,6,6,0,0,0-3.25-3.5c-2.12-.88-4.4-.32-6.61-.4-1.61-.06-1.6,2.44,0,2.5Z" transform="translate(-7053.17 -7141.35)"/><path class="e" d="M7354.41,7199a10.28,10.28,0,0,1,5.78,1.8,9.68,9.68,0,0,1,2.28,1.47c.85,1-1.14,1.48-1.86,1.6-4.54.74-9.19,1.2-13.78,1.5-2.33.15-4.66.18-7,.18a4.58,4.58,0,0,0-4.25,2.41c-1.65,2.49-3,5.48-.06,7.51a13.15,13.15,0,0,0,3.29,1.53c.46.15.93.29,1.39.42.17.05,1,.33.44.07l.63-2.33c.38,0,.11,0-.17,0-1.57-.27-2.25,2.14-.67,2.41a5,5,0,0,0,.84.12c1.11-.06,1.85-1.79.63-2.33-1.5-.66-3.14-.84-4.58-1.68-1.18-.68-1.37-1.27-.7-2.6a12.11,12.11,0,0,1,1.51-2.42c.79-.9,2.27-.56,3.36-.57a117.77,117.77,0,0,0,14-1,40,40,0,0,0,6.73-.95,3.75,3.75,0,0,0,2.94-3.65c-.13-2.05-2.74-3.22-4.3-4.1a12.07,12.07,0,0,0-6.49-1.82c-1.6.07-1.61,2.57,0,2.5Z" transform="translate(-7053.17 -7141.35)"/><path class="e" d="M7355.1,7216c3.46-1.41,7-2.72,10.36-4.25,2.66-1.21,5.35-2.81,6.88-5.38,1.92-3.19,1.52-7.41,1.66-11l.47-12.29.54-14c.07-1.61-2.43-1.61-2.5,0q-.56,14.63-1.13,29.25c-.08,2.16,0,4.51-1,6.47a9.57,9.57,0,0,1-3.86,3.63c-3.76,2.16-8.06,3.53-12.06,5.16-1.47.6-.83,3,.66,2.41Z" transform="translate(-7053.17 -7141.35)"/><path class="e" d="M7374.64,7158c3.38-.39,5.32,1.82,7.27,4.22s3.74,5.07,5.81,7.44c1.69,1.95,4.16,4.23,6.94,4a3.47,3.47,0,0,0,3.08-4.9c-.71-1.44-2.86-.18-2.15,1.26.45.93-1.17,1.2-1.68,1.11a6.68,6.68,0,0,1-3.06-1.85,44.55,44.55,0,0,1-4.75-5.77c-2.9-3.78-6-8.69-11.46-8.05-1.58.18-1.59,2.68,0,2.5Z" transform="translate(-7053.17 -7141.35)"/><path class="e" d="M7396.63,7157.93a2.49,2.49,0,0,1,3.16-.26,4.81,4.81,0,0,1,2.14,3.72,28.33,28.33,0,0,1,0,5.29l-.21,5.93-.85,23.7c-.06,1.61,2.44,1.61,2.5,0l1-28.14c.13-3.64.83-8.22-1.68-11.26-1.88-2.28-5.72-3.12-7.86-.75-1.08,1.19.68,3,1.76,1.77Z" transform="translate(-7053.17 -7141.35)"/></g><path class="b" d="M7070.48,7181.3c-1.7-2.24.42-4.6,2.62-5.28a11.49,11.49,0,0,1,7,.43c4.35,1.5,7.85,4.62,11.79,6.89,8,4.56,18.05,4.47,26.94,4.05a118.91,118.91,0,0,0,16.32-1.43c.79-.15.45-1.36-.33-1.21a117.59,117.59,0,0,1-16.23,1.41,80.2,80.2,0,0,1-16.17-.63,30.37,30.37,0,0,1-7.56-2.07,42.11,42.11,0,0,1-6.21-3.68c-3.8-2.56-7.9-5.26-12.64-5.37-2.19-.05-4.65.47-6.19,2.14a4.24,4.24,0,0,0-.44,5.38c.48.64,1.57,0,1.08-.63Z" transform="translate(-7053.17 -7141.35)"/><path class="b" d="M7133.9,7203.69c-3.32-.18-4.49-3.22-5.13-6.07-.54-2.37,1.51-3.71,3.34-4.74a14.61,14.61,0,0,1,5.75-1.81c3.74-.36,7.48,1.46,11.18.54,2.56-.65,5.33-3.49,3.93-6.32-1.17-2.36-4.94-2.74-7.2-3.24-.79-.18-1.12,1-.34,1.2,2,.46,6.84.88,6.6,3.8-.19,2.38-2.69,3.44-4.76,3.55a33.1,33.1,0,0,1-5.94-.7,16,16,0,0,0-10.37,2.2,7.93,7.93,0,0,0-3.29,3.12c-.63,1.46-.07,3.08.4,4.5,1,2.89,2.61,5,5.83,5.22.8.05.8-1.2,0-1.25Z" transform="translate(-7053.17 -7141.35)"/><path class="b" d="M7134.69,7180.37a3.1,3.1,0,0,1-2.13-1.92c-.49-1.51.78-2.65,1.76-3.59a15.39,15.39,0,0,1,3.44-2.68,20.85,20.85,0,0,1,4.51-1.46,65.21,65.21,0,0,1,18.62-1.9c.8,0,.8-1.21,0-1.25a67.05,67.05,0,0,0-11.51.52,46.64,46.64,0,0,0-11.32,2.59,13,13,0,0,0-3.83,2.56c-1.07,1-2.4,2-2.86,3.45-.74,2.22,1,4.25,3,4.88.77.25,1.1-1,.33-1.2Z" transform="translate(-7053.17 -7141.35)"/><path class="b" d="M7173.18,7172.74a3.06,3.06,0,0,1,1.95,2.64,3.24,3.24,0,0,1-1.54,2.78c-2,1.43-4.94,1.74-7.33,2a27.49,27.49,0,0,0-3.85.43,3.81,3.81,0,0,0-2.38,2.13,6.08,6.08,0,0,0-1,3.57,6.39,6.39,0,0,0,1.66,3.07c.5.63,1.38-.26.88-.88a6,6,0,0,1-1.21-2,3.29,3.29,0,0,1,.37-2.41,6.35,6.35,0,0,1,1-1.7,2.77,2.77,0,0,1,1.92-.76,38.41,38.41,0,0,0,8.25-1.35c1.89-.62,3.93-1.8,4.4-3.9a4.28,4.28,0,0,0-2.77-4.9c-.75-.28-1.08.93-.33,1.2Z" transform="translate(-7053.17 -7141.35)"/><path class="b" d="M7172.46,7198.25c5.17,3.74,12.47,4.12,18.63,3.57a9.34,9.34,0,0,0,4.26-1.57,20.69,20.69,0,0,1,5-2.11,25.58,25.58,0,0,0,8.61-5.16c.62-.51-.27-1.39-.89-.88a24.54,24.54,0,0,1-8.48,5,18.6,18.6,0,0,0-4.14,1.67,10,10,0,0,1-4.73,1.86c-5.91.35-12.61.17-17.59-3.43-.65-.47-1.28.61-.63,1.08Z" transform="translate(-7053.17 -7141.35)"/><path class="b" d="M7221.36,7187.23c5.45.61,6.74-6.27,6.92-10.28a63.17,63.17,0,0,0-.45-8.58c-.14-1.51-.28-3-.36-4.55,0-.75-.44-5.31,1.44-4.41.72.35,1.36-.73.63-1.08-2-.94-3.24,1-3.36,2.76a61.62,61.62,0,0,0,.58,9.2,37.75,37.75,0,0,1,0,9.32c-.45,2.87-1.81,6.77-5.41,6.37-.8-.09-.79,1.16,0,1.25Z" transform="translate(-7053.17 -7141.35)"/><path class="b" d="M7233.39,7169.81a11.37,11.37,0,0,0,10.1,8.37c2.23.16,4.9-.18,6.25-2.15a19.53,19.53,0,0,0,2.86-7.33c.15-.78-1.06-1.12-1.2-.33a20.28,20.28,0,0,1-2.27,6.26,3.69,3.69,0,0,1-2.43,2,9.94,9.94,0,0,1-3.21.27,10.06,10.06,0,0,1-8.89-7.46.63.63,0,0,0-1.21.34Z" transform="translate(-7053.17 -7141.35)"/><path class="b" d="M7255,7158.91c2.12-1.16,4.15.86,4.73,2.78a18.79,18.79,0,0,1,.25,6.69c-.35,4.64-1.29,9.21-1.57,13.86a42.41,42.41,0,0,0,.89,12.61c.78,3.18,2.52,6,5.83,7a9.27,9.27,0,0,0,5.59,0,36.63,36.63,0,0,1,5.48-1.81c.79-.12.46-1.33-.33-1.21a26.33,26.33,0,0,0-4.81,1.59,8.54,8.54,0,0,1-5.6.25c-4.1-1.21-5.11-5.7-5.51-9.44a59.72,59.72,0,0,1,.23-14.14c.6-4.57,1.6-9.37,1.08-14a6.72,6.72,0,0,0-2.28-4.76,4.21,4.21,0,0,0-4.61-.49c-.71.39-.08,1.47.63,1.08Z" transform="translate(-7053.17 -7141.35)"/><path class="b" d="M7288.18,7204c.73.29,1.29,1.54,1.68,2.16a16.38,16.38,0,0,1,1.51,2.25,11.2,11.2,0,0,1,.33,4.65,26,26,0,0,1-.91,5c-.8,2.94-2.09,5.74-2.84,8.69-.55,2.2.12,4.31,2.37,5.11.76.27,1.09-.94.33-1.21-3.4-1.21-.59-6.29.17-8.51a37.15,37.15,0,0,0,2.11-8.8,17.71,17.71,0,0,0-.15-4.18,5.46,5.46,0,0,0-1.16-2.52c-.84-1.23-1.62-3.21-3.1-3.8-.75-.29-1.08.92-.34,1.21Z" transform="translate(-7053.17 -7141.35)"/><path class="b" d="M7294.88,7232c3.78-.33,6.27-3.34,8.12-6.38a66.06,66.06,0,0,0,6.07-12.66c1.63-4.71,1.94-9.61,3-14.44.5-2.32,1.3-4.58,1.93-6.87a24.49,24.49,0,0,1,2.58-6.6c.42-.68-.66-1.31-1.08-.63a22.7,22.7,0,0,0-2.37,5.66c-.6,2.1-1.24,4.2-1.83,6.31-1.22,4.47-1.37,9.15-2.59,13.62a59,59,0,0,1-5.54,12.83c-1.79,3.24-4.11,7.55-8.26,7.91-.8.06-.81,1.32,0,1.25Z" transform="translate(-7053.17 -7141.35)"/><path class="b" d="M7327.23,7174.62c3.28,1.48,6.7,2.67,9.94,4.25a39.31,39.31,0,0,1,3.8,2.62,14.85,14.85,0,0,0,1.74,1.19,9.39,9.39,0,0,0,2.69.48,47.05,47.05,0,0,0,6.92.25,5.22,5.22,0,0,0,4.17-1.64,2.64,2.64,0,0,0,.1-3.4,2.22,2.22,0,0,0-3.11-.28c-.63.5.26,1.38.88.88.93-.74,1.73.69,1.49,1.43a2.69,2.69,0,0,1-2,1.58,18.23,18.23,0,0,1-4.84.16,29.4,29.4,0,0,1-5.14-.44,7.5,7.5,0,0,1-2.74-1.56,20.28,20.28,0,0,0-2.83-2.09c-1.07-.56-2.19-1-3.3-1.5-2.38-1-4.8-1.94-7.16-3-.73-.32-1.36.75-.63,1.08Z" transform="translate(-7053.17 -7141.35)"/><path class="b" d="M7342.47,7184.32a4.09,4.09,0,0,0-2.61,6.57c2.2,3.08,6.4,2.88,9.6,1.75,3.67-1.29,6.76-3.74,10.29-5.32,1.61-.72,3.77-.88,5.06-2.16,1.44-1.43,2.1-3.9,2.91-5.73l1.55-3.47a7.56,7.56,0,0,1,2.12-3.29c1.69-1.23,4-1.24,6-1.25a.63.63,0,0,0,0-1.25,14.88,14.88,0,0,0-5.34.73,6.51,6.51,0,0,0-3.58,3.78c-1.06,2.31-2.08,4.63-3.11,6.95-.52,1.15-.94,2.51-2.14,3.13-1,.52-2.2.69-3.25,1.11-3.9,1.57-7.21,4.39-11.23,5.69-2.19.72-4.92,1.08-6.9-.38s-2.46-5.23.61-5.61c.78-.1.79-1.35,0-1.25Z" transform="translate(-7053.17 -7141.35)"/><path class="b" d="M7389.44,7174.93c2.1-.48,3.17,2,3.61,3.62.19.69.36,1.24-.16,1.85a7.76,7.76,0,0,1-.79.72c-.6.51-1.2,1-1.82,1.51a14.54,14.54,0,0,1-4.83,2.69,33.29,33.29,0,0,1-5.37.8c-2.6.31-5.49.82-5.67,3.94-.15,2.63-.25,5.59,1.85,7.5.59.55,1.47-.34.88-.88-1.36-1.25-1.53-2.93-1.52-4.68a10.47,10.47,0,0,1,.13-2.63,2.45,2.45,0,0,1,1.93-1.57,39.88,39.88,0,0,1,5.67-.79,14.28,14.28,0,0,0,4.94-1.53,24.82,24.82,0,0,0,4.09-3c1.1-.92,2.34-1.79,2.1-3.4-.39-2.6-2.25-6.1-5.37-5.39-.79.18-.46,1.39.33,1.21Z" transform="translate(-7053.17 -7141.35)"/><path class="b" d="M7388.5,7201.4a.67.67,0,0,0-.68.9,1.19,1.19,0,0,0,.68.54c.35.15.7.3,1,.47a4.53,4.53,0,0,1,.48.27c.07.05.06,0,.11.08s.06.06,0,0,.09.16.14.23a35.39,35.39,0,0,1,3.6,8.22.62.62,0,0,0,1.2-.33,36.77,36.77,0,0,0-3-7.34,4.56,4.56,0,0,0-1.71-2.13c-.3-.16-.62-.3-.93-.44l-.41-.19-.17-.08c-.26-.07.25-.45.19.44l-.18.44c-.41.12-.52.17-.34.16a.63.63,0,0,0,0-1.25Z" transform="translate(-7053.17 -7141.35)"/><path class="a" d="M7388.85,7178c.45,2.45-3.65,3.58-5.32,4.17a43.35,43.35,0,0,1-6.62,1.76c-3.72.68-8,.66-11,3.3a26.19,26.19,0,0,1-2.26,2.21,10.93,10.93,0,0,1-2.24,1.06c-1.49.57-3.1,1.11-4.13,2.4s-1.15,3.2-1.14,4.91-.05,4.47-2.21,5c-.79.19-.46,1.39.33,1.21,2.86-.67,3.14-4,3.13-6.38,0-1.93.18-3.75,1.95-4.85,1.27-.78,2.76-1.1,4.08-1.76s2.22-1.88,3.37-2.89a10.67,10.67,0,0,1,5-2.12c3.75-.75,7.48-1.12,11.14-2.32,2.63-.86,7.73-2.29,7.05-6-.14-.79-1.35-.45-1.2.33Z" transform="translate(-7053.17 -7141.35)"/><path class="a" d="M7342.51,7203.31c-1.56.27-3-.85-4.31-1.49s-3.11-.85-4.5-1.64c-1.94-1.11-4.09-3.38-6.51-3.12-.79.08-.8,1.33,0,1.25,1.25-.13,2.47.72,3.46,1.36a19.47,19.47,0,0,0,3.45,2.07c.76.29,1.56.46,2.34.71a13.56,13.56,0,0,1,2.23,1,6.41,6.41,0,0,0,4.18,1.05c.79-.14.45-1.34-.34-1.21Z" transform="translate(-7053.17 -7141.35)"/><path class="a" d="M7317.41,7190.94c-3.24-.08-4.22,3.36-4.41,6a9,9,0,0,0,1,5.13c1,1.76,2.1,3.43,3.15,5.13,2.09,3.39,4.37,6.73,6.27,10.23.78,1.42,2.47,5.21.09,6-1.87.62-3.85-.73-4.65-2.34-.35-.73-1.43-.09-1.07.63,1.14,2.33,4.6,4.2,7,2.45,1.33-1,1.27-2.89.95-4.34a16.3,16.3,0,0,0-2.33-4.89l-7-11.31c-1.25-2-2.32-3.78-2.21-6.24.09-2,.54-5.26,3.19-5.2a.63.63,0,0,0,0-1.25Z" transform="translate(-7053.17 -7141.35)"/><text x="-7053.17" y="-7141.35"/><path class="a" d="M7277.25,7192.75c-4.29-4.1-9.86-7-15.13-9.69a25.53,25.53,0,0,1-5.05-3,46.75,46.75,0,0,1-3.88-3.83l-4.08-4.24c-1.38-1.45-2.94-2.83-3.78-4.68-.32-.73-1.4-.1-1.08.63a15.55,15.55,0,0,0,3.3,4.23l4.07,4.24c2.69,2.78,5.18,5.36,8.66,7.14,5.56,2.82,11.53,5.75,16.09,10.1.58.55,1.46-.33.88-.89Z" transform="translate(-7053.17 -7141.35)"/><path class="a" d="M7240.42,7156.55a2.54,2.54,0,0,0-3-.53,4.12,4.12,0,0,0-2.09,3.15,89.65,89.65,0,0,0-1.22,12.13,94.17,94.17,0,0,0,.37,12.34,46.94,46.94,0,0,1-1.15,12.38l-2.68,14.34c-.15.79,1.06,1.12,1.21.33l2.63-14.1c.85-4.52,1.58-8.81,1.2-13.43a88,88,0,0,1-.18-14.06c.18-2.37.44-4.74.71-7.1a15.88,15.88,0,0,1,.51-3.28c.36-1.08,1.74-2.51,2.81-1.29.54.61,1.42-.28.89-.88Z" transform="translate(-7053.17 -7141.35)"/><path class="a" d="M7221.36,7215.91a54,54,0,0,1-11.77-1.16,13.07,13.07,0,0,1-6.22-3.25c-1.76-1.74-3.39-3.63-5-5.47a108.46,108.46,0,0,1-15.87-23.1,126.86,126.86,0,0,1-6.31-14.57c-.28-.75-1.49-.42-1.21.33a122,122,0,0,0,13,26,106.43,106.43,0,0,0,8.91,11.48c3.12,3.53,6.12,7.68,10.74,9.24,4.39,1.49,9.21,1.57,13.8,1.71.81,0,.81-1.22,0-1.25Z" transform="translate(-7053.17 -7141.35)"/><path class="a" d="M7171.9,7157.72a7.63,7.63,0,0,0-8.27-2.91c-3.2.95-5,4-5.8,7-1.14,4.12-1.27,8.57-1.74,12.8-.55,5-.92,10.05-1.67,15a5.69,5.69,0,0,1-1.21,3.18,6.24,6.24,0,0,1-2.38,1.31,39.56,39.56,0,0,1-5.4,1.26c-.78.15-.45,1.36.34,1.2,2.65-.52,5.88-.83,8-2.63a6.29,6.29,0,0,0,1.83-4c.33-2.15.5-4.34.74-6.5l1.57-14.24c.38-3.5.56-7.48,2.57-10.51a6.26,6.26,0,0,1,10.31-.37c.46.65,1.54,0,1.08-.63Z" transform="translate(-7053.17 -7141.35)"/><path class="a" d="M7135.15,7188.4l.39-.33a3.05,3.05,0,0,1,.6-.06c.27,0,.55,0,.83,0a6.69,6.69,0,0,1,1.67.19c1.31.38,1.78,1.55,2.61,2.5a19.91,19.91,0,0,1,2.53,2.82,15.53,15.53,0,0,1,1.33,3.43,22.66,22.66,0,0,0,3.12,6.19c1.42,2.11,2.37,4.48,1.57,7-.24.77,1,1.1,1.21.34a8.41,8.41,0,0,0,0-4.64,15.94,15.94,0,0,0-2.46-4.46,18.16,18.16,0,0,1-2.29-5,13.64,13.64,0,0,0-1.89-4.29,16.54,16.54,0,0,0-1.74-1.81c-.61-.62-1-1.33-1.58-2a4.78,4.78,0,0,0-3.74-1.58c-1.06-.05-2.82-.16-3.31,1.07a1.3,1.3,0,0,0,1.48,1.78.63.63,0,0,0-.33-1.21Z" transform="translate(-7053.17 -7141.35)"/><path class="a" d="M7149.42,7210.17l-4.13,1.77a.62.62,0,0,0-.23.85.65.65,0,0,0,.86.23l4.13-1.77a.62.62,0,0,0,.22-.85.64.64,0,0,0-.85-.23Z" transform="translate(-7053.17 -7141.35)"/><path class="a" d="M7134.69,7208.54a52.58,52.58,0,0,1-10-4.57,25.57,25.57,0,0,1-8-8.35c-2-3.25-3.44-6.76-5.34-10.05a25.62,25.62,0,0,0-7.51-8.33c-4.05-2.82-8.69-4.84-13.09-7.06-.71-.36-1.35.72-.63,1.08,4,2,8.1,3.87,11.87,6.25a24.88,24.88,0,0,1,8.38,8.86c2,3.41,3.46,7.05,5.55,10.38a26.63,26.63,0,0,0,7.44,7.81,50.23,50.23,0,0,0,11,5.19c.75.28,1.08-.92.33-1.21Z" transform="translate(-7053.17 -7141.35)"/></svg>