<svg xmlns="http://www.w3.org/2000/svg" viewBox="0 0 673.52 549.66"><defs><style>.a,.b,.c,.d,.e,.f,.g,.h,.i{fill:none;}.a,.j{stroke:#00aeef;}.a,.b,.c,.d,.e,.f,.g,.i,.j{stroke-miterlimit:10;}.a{stroke-width:6px;}.b,.g{stroke:#ff0;}.b,.c,.i{stroke-width:3px;}.c,.f{stroke:#fff200;}.d,.e,.i{stroke:#ec008b;}.d,.j{stroke-width:4px;}.e{stroke-width:7px;}.f,.g{stroke-width:2px;}.j{fill:#00aeef;}.k{font-size:45.77px;fill:#fff;font-family:FuturaPT-Medium, Futura PT;font-weight:500;}.l{letter-spacing:-0.02em;}</style></defs><path class="a" d="M559.16,396.58a14.19,14.19,0,0,1,4.45-5.72c3.93-2.88,6.91-1,11.44-3.81,2.54-1.57,4.48-3.82,8.27-8.27,3-3.55,5.37-6.65,7-8.89l8.9,3.81,10.17-8.9q-.64-4.77-1.27-9.53c2.07-2.41,5.54-6.31,10.17-10.81,12-11.71,16.43-12.44,21-20.34A48.07,48.07,0,0,0,645,305.69c.57-7.08-1.12-9,.64-14,2.43-6.92,6.39-5.39,10.17-13.35,3.14-6.61,1.85-10.69,6.36-14.62,1.83-1.59,3.26-2,3.81-3.81,0,0,.57-1.89-3.18-9.54h0c2.91-13.06,7.63-15.25,7.63-15.25L683.75,230" transform="translate(-56.41 -25.9)"/><path class="a" d="M640.53,494.47q.63,4.45,1.27,8.9l12.71-.63c.42-2.55.85-5.09,1.27-7.63l11.44.63,6.36,7.63" transform="translate(-56.41 -25.9)"/><path class="a" d="M489.24,348.27q-7.31,12.41-14.62,24.79l4.45,5.72-7,17.17c-3.55,4.25-3.74,6.75-3.18,8.26.74,2,2.62,1.82,5.72,5.09,2.73,2.87,2.06,3.82,4.45,5.72,1,.79,1.29.76,6.36,3.18,4.26,2,5.12,2.56,5.08,3.17-.08,1.28-3.86.88-5.08,3.18-1.51,2.84,2.05,7.62,2.54,8.27,2.39,3.19,4.2,3.09,5.08,5.72.78,2.31-.48,2.83,0,5.72.44,2.57,2,4.5,5.09,8.26s3.27,3.13,4.45,5.09c2.65,4.41,1.13,6.88,3.18,8.26,1.05.71,1.78.27,10.8-1.27,3.34-.57,4.78-.77,6.36,0s1.66,1.55,3.81,3.18a23.91,23.91,0,0,0,4.45,2.54c4.89,2.05,8.52.74,8.9,1.91.49,1.48-5.39,3.56-5.08,6.35,0,.35.18.84,3.81,3.82,3.13,2.56,3.72,2.76,4.45,3.81s1.61,3.06,1.27,6.36" transform="translate(-56.41 -25.9)"/><path class="a" d="M421.86,286.62c10.85-.65,14.92,1.84,16.53,4.45,1.73,2.8.37,4.83,2.54,8.26,2.28,3.6,7.44,5.42,11.44,5.08,2.54-.21,3-1.16,4.45-.63,3.15,1.15,2.13,6.07,5.72,8.26,2.57,1.57,4.19-.29,6.36,1.27,3.16,2.28.93,7.1,3.81,9.54,1.47,1.24,3.12.89,10.17,0,8.34-1.06,12.54-1.58,14-1.27,7.1,1.51,7.6,7.12,12.71,7,4.07-.11,5.32-3.71,12.08-8.26a44.88,44.88,0,0,1,12.08-5.73" transform="translate(-56.41 -25.9)"/><path class="b" d="M425.36,317.44q2.22,3.51,4.45,7c.62,1.27,1.31,1.75,1.9,1.9.88.24,1.32-.29,3.18-.63,1.34-.25,2.3-.43,3.18,0,1.07.52,1.16,1.51,1.91,2.54a7.24,7.24,0,0,0,5.08,2.54,6.46,6.46,0,0,0,3.82-1.27,8.38,8.38,0,0,0,3.81,3.18,11,11,0,0,0,3.18.64,24.23,24.23,0,0,0,3.81,0c3.75-.19,5.62-.28,6.36,0,1.84.69,1.74,1.75,4.45,3.81a21.17,21.17,0,0,0,4.45,2.54c2.47,1.16,7.3,3.86,17.8,10.81" transform="translate(-56.41 -25.9)"/><path class="c" d="M108.17,536.11q.31-7.32.64-14.62l8.89-7.63" transform="translate(-56.41 -25.9)"/><path class="c" d="M68.12,536.74q3.87-2.28,8.27-4.45a125.28,125.28,0,0,1,29.87-10.17c1.22-.58,2.78-1.57,3.18-3.17.53-2.1-1.35-3.5-.63-5.09.89-2,4.78-1.91,5.08-1.91,2.13.06,3.51.89,6.36,2.55,4.45,2.59,7.58,4.36,8.9,5.08,3.71,2,5.95,3.26,8.26,3.81s7.73,1.27,15.89-4.44h19.07c9.57-4,23.3-10,39.41-18.44,9.88-5.18,17.08-9.36,26.06-14.62,11.77-6.88,27.65-16.45,46.4-28.6" transform="translate(-56.41 -25.9)"/><path class="c" d="M250.55,534.84a64.52,64.52,0,0,1,5.73-10.17c1.94-2.83,2.9-3.75,3.81-5.72,1.21-2.63,2.11-6.65.64-12.72,3.43-6.59,6.58-11.7,8.89-15.25,1.7-2.6,4.25-6.35,7.63-12.08a63.58,63.58,0,0,0,3.82-7,38.46,38.46,0,0,0,3.17-13.35,35.25,35.25,0,0,0-.63-8.26,30,30,0,0,0,8.26-7.63A33,33,0,0,0,297,431.86c.66-2.51.5-3.16,1.27-5.72a32.27,32.27,0,0,1,3.81-8.26V407.07a59.57,59.57,0,0,0,10.81-10.8,75.39,75.39,0,0,0,5.72-8.9c3.93-6.8,3.5-7.36,8.26-16.53,3.78-7.28,5.52-9.75,7-15.26a54.41,54.41,0,0,0,1.28-6.35,73,73,0,0,0,.63-15.89l11.44,3.81a24.11,24.11,0,0,1,0-3.81,23.28,23.28,0,0,1,.64-3.82h4.45V319.35L362.43,306l9.53-3.18c.88-2,1.74-4.09,2.55-6.35.46-1.3.88-2.58,1.27-3.82h5.72" transform="translate(-56.41 -25.9)"/><path class="c" d="M444.43,485.89c-1.76,1.37-7.79,6.41-8.9,14.62-.83,6.13,1.43,11.4,2.54,14a32.58,32.58,0,0,0,3.18,5.72" transform="translate(-56.41 -25.9)"/><path class="c" d="M625.59,524c-6.68-16.17-5.24-25.86-2.54-31.78,1.51-3.33,3.62-6,3.17-10.17-.81-7.54-9.51-12.72-12.71-14.62a37.13,37.13,0,0,0-8.9-3.82L585.54,432.5l-.63-13.35-23.52-21c-6.58-4.46-12.09-7.88-15.89-10.17-6.74-4.05-10.55-6.14-22.89-13.35-4.59-2.68-8.35-4.9-10.8-6.35" transform="translate(-56.41 -25.9)"/><path class="c" d="M471.13,224.64a38.78,38.78,0,0,1-7.31,5.4c-3.08,1.76-5.75,3.24-9.54,3.82-2.55.39-3.36,0-7,.63a19.64,19.64,0,0,0-5.09,1.27c-5.4,2.59-6.87,9.58-7,10.17-.79,4,.75,4.6,0,9.54a15.9,15.9,0,0,1-.6,2.62,30.26,30.26,0,0,1-1.42,3.55c-1.21,2.66-.47,5.69.43,9.4,1.09,4.47,1.83,6.65,3.18,7,1.53.39,2.81-1.42,7-5.08,2.63-2.3,4.89-4,6.36-5.09" transform="translate(-56.41 -25.9)"/><path class="b" d="M488.29,44.75a18,18,0,0,0,8.9-6.35,17.58,17.58,0,0,0,3.17-7.63" transform="translate(-56.41 -25.9)"/><path class="d" d="M643.7,264.37c11.12.55,18,3.95,22.25,7,4.85,3.47,6.84,6.89,13.35,9.54,4.3,1.75,7.87,2.06,13.35,2.54,8.26.72,11-.26,18.43,0A79.16,79.16,0,0,1,728.24,286" transform="translate(-56.41 -25.9)"/><path class="e" d="M468.26,227.5a93.72,93.72,0,0,0,8.9-10.81c3.53-5,4.8-7.85,8.27-9.53a14.32,14.32,0,0,1,9.53-.64" transform="translate(-56.41 -25.9)"/><path class="e" d="M57,525a92.53,92.53,0,0,1,26.7-.63c7,.85,21.29,2.75,35.59,12.08,13.69,8.91,12,14.62,21.62,17.79,10.69,3.54,20.75-.92,38.77-8.9,8.63-3.82,19.58-8.77,31.15-19.06a112.82,112.82,0,0,0,21-25.43C242,484,240.32,476.9,249.6,471c.91-.58,11.28-7,22.88-4.45,9.5,2.1,12,8.48,18.44,7,5.2-1.2,5.91-5.9,14-9.54a30.77,30.77,0,0,1,9.54-2.54" transform="translate(-56.41 -25.9)"/><path class="f" d="M61.45,129.61a38.66,38.66,0,0,1,12.08,1.91c4.84,1.61,5.43,3,10.8,4.45,5.07,1.4,6.63.78,8.27,2.54,1.9,2,.66,3.82,1.9,9.53A34.32,34.32,0,0,0,99,158.85c2.53,4.12,3.78,4.11,5.72,7,1.81,2.68,3.47,6.77,2.55,23.52-.55,9.9-1.14,8.73-1.28,14.62-.3,13.65,3,14.32,2.55,26.06-.3,7.45-1.91,14.23-3.82,22.25-.94,4-1.9,5.61-2.54,9.54-1,5.84-1.92,11.7.64,17.16,3,6.37,7.64,5.54,9.53,11.44s-2.06,9.05,0,12.71c2.42,4.3,10.22,4.21,20.34,3.82,24-.93,31.78-1.91,31.78-1.91,29.05-3.66,26.5-1.95,47.68-5.09,16.88-2.49,13.31-2.81,35-6.35S286.89,288,304.27,286c9.8-1.13,17.93-2,23.52-2.54" transform="translate(-56.41 -25.9)"/><path class="f" d="M92.6,138.51l5.08-6.36c.62-.87,5.22-7.15,13.35-7.62a16.91,16.91,0,0,1,10.81,3.17c5.8,4.29,9,12.78,6.35,15.89-2.09,2.43-8.22,2.12-8.72,2l-.81-.13c1.25,2.56,1.06,4.13.63,5.09-1,2.26-3.56,1.9-7,5.08a10.5,10.5,0,0,0-3.18,4.45c-.69,2.09,0,3.29,0,5.72a16.39,16.39,0,0,1-1.9,7.63" transform="translate(-56.41 -25.9)"/><path class="f" d="M61.45,303.14a12.48,12.48,0,0,1,6.36-2.54c2.25-.19,2.69.49,5.72.64,2.52.12,6.32.3,8.9-1.91,2.26-1.94,1.87-4.28,3.17-4.45,2.43-.32,5.45,7.52,5.73,8.26,2.23,5.93,1.79,9.57,3.81,10.17.54.16.82,0,5.08-1.9,1.48-.65,3-1.26,4.45-1.91,2.32-1,6.48-2.11,14.62-2.54" transform="translate(-56.41 -25.9)"/><path class="f" d="M182.22,28.54a20.08,20.08,0,0,1,3.18,3.18,20.58,20.58,0,0,1,3.18,5.72c.78,2.15.63,2.84,1.27,6.36,1,5.39,1.48,8.09,3.18,10.17,2.07,2.52,3.44,1.55,5.72,3.81,3.41,3.39,2.37,7.57,3.81,13.35,1.34,5.34,3.63,7.36,7,12.71,7.95,12.65,4.73,16.56,13.34,35,3.93,8.39,4.21,6.75,9.54,17.8A136.46,136.46,0,0,1,242,161.39c.9,3.37,1.51,6.22,1.91,8.27" transform="translate(-56.41 -25.9)"/><path class="g" d="M193,28.54l-7.63,3.18" transform="translate(-56.41 -25.9)"/><path class="e" d="M477.16,28.54c2.49,3.37,7,9.5,12.72,17.17,17.17,23.07,20.12,26.6,22.24,33.68,3.51,11.72,1.35,21.84-.63,31.15-3.48,16.31-8.34,15.88-16.53,40.05-4.27,12.59-4.43,17.09-9.53,24.79a59.22,59.22,0,0,1-17.8,17.16" transform="translate(-56.41 -25.9)"/><path class="c" d="M483.84,80.35a63.54,63.54,0,0,1,6.35,3.18c4,2.27,5.11,3.49,7.63,3.81a11.87,11.87,0,0,0,6.36-1.27c4.65-2,5-4.38,8.26-6.36,5.59-3.36,9,.94,15.58-1.59,2.83-1.09,4-2.38,10.8-10.8,2.65-3.27,6.5-7.89,11.44-13.35,27,28.33,45.92,49.63,58.48,64.2,4.07,4.72,12.45,14.5,24.79,28.6,12.56,14.34,23,26,29.88,33.69a32.79,32.79,0,0,1,7.63,1.27c3.41,1,5.45,1.61,7,3.18,3.43,3.52.07,7.53,2.54,13.35,2.85,6.72,9.28,6,10.17,11.44.25,1.54-1.1,4.87-3.81,11.44s-3.28,7.1-3.18,8.9c0,.94.31,2.92,7,10.81,4.14,4.89,6.25,7.34,8.27,7.63,5.61.8,10.36-6.32,10.8-7a15.41,15.41,0,0,0,2.54-10.17c-.24-2-1-4.69-4.45-8.89a45.22,45.22,0,0,0-17.16-12.72" transform="translate(-56.41 -25.9)"/><path class="h" d="M725.07,220.51l-13.35,3.18" transform="translate(-56.41 -25.9)"/><path class="h" d="M728.24,248.48q-7.93-5.41-15.89-10.81" transform="translate(-56.41 -25.9)"/><path class="c" d="M728.56,251.34c-4.08,9-7.8,16.28-10.49,21.29-6.26,11.68-10.73,18.3-14.62,29.88A112.14,112.14,0,0,0,700.28,314a302.55,302.55,0,0,1,6.35,43.22c.78,10.78.76,19.05,5.72,28.61a50.57,50.57,0,0,0,15.89,17.8" transform="translate(-56.41 -25.9)"/><path class="c" d="M727.93,220.83l-17.8,3.81" transform="translate(-56.41 -25.9)"/><path class="c" d="M727.93,248.79,711.4,237.35" transform="translate(-56.41 -25.9)"/><path class="c" d="M392,205.25a25.4,25.4,0,0,1,11.44,6.36,91,91,0,0,1,7.63,8.9c2.07,2.73,2.76,3.9,4.45,4.45,2.63.85,5.25-.6,7.62-1.91a25.89,25.89,0,0,0,8.27-7.63,29.25,29.25,0,0,0,4.45-7.62c1.57-4.12.72-5,2.54-8.27a29.64,29.64,0,0,1,4.45-5.72c2.11-2.13,2.62-2,3.18-3.18,1.49-3.07-1.52-5-.64-8.26,1-3.59,5.22-3,8.9-8.26a16.91,16.91,0,0,0,2.54-5.72c1.19-5.15-1-7.51-.63-12.08.24-2.94,1.38-4.78,4.45-9.54,8.89-13.8,13.34-20.71,15.89-24.15,6.38-8.64,7.11-8.89,7.63-11.44,1.27-6.27-2.17-9.23-1.91-19.71a43,43,0,0,1,1.27-9.53c1.11-4.38,3.07-11.6,9.53-15.89a19.83,19.83,0,0,1,9.54-3.18Q501.32,44.44,500.05,26" transform="translate(-56.41 -25.9)"/><path class="c" d="M684.07,224.64a34.61,34.61,0,0,1-5.72-1.27,42.35,42.35,0,0,1-8.27-3.82c-7.92-4.35-8.45-5.55-12.07-6.35-2.52-.55-2.19,0-6.36-.64a40.63,40.63,0,0,1-9.54-2.54c-.92-.38-.72-.35-7.62-3.81-2.45-1.23-3.67-1.85-3.82-1.91-5.36-2.36-12.14,1.33-16.52,3.18-2.06.87-9.21,1.85-23.52,3.81-17.18,2.36-19.59,1.66-26.7,4.45-3.42,1.34-6.73,3-12.08,5.72-8,4-9.76,5.46-14.62,7.63a76.91,76.91,0,0,1-15.89,5.08" transform="translate(-56.41 -25.9)"/><path class="c" d="M685.34,234.17a67,67,0,0,1-7.63,3.18,112.76,112.76,0,0,1-12.08,3.18c-6.39,1.53-9.59,2.29-12.07,3.18-7.08,2.52-7.79,4.55-16.53,8.9-5.43,2.7-6.07,2.38-14,5.72-7.23,3.05-12.25,5.67-18.44,8.9-20.43,10.66-49.62,29.91-51.49,31.15l-2.54,1.9h-5.72l-10.81,7-.63,3.82-20.34,14.62a73.5,73.5,0,0,0-18.44-3.18,57.89,57.89,0,0,0-11.44.64c-2.43.4-4.18,2.08-5.72,1.27s-1.86-3.12-1.91-5.09c.12-5.52-1.18-7.53-2.54-8.26-1.93-1-3.76.59-6.35-.64-2.81-1.33-3.72-4.69-3.82-5.08-.73-2.88.66-4.3,1.91-9.54,1.15-4.8.2-4.53,1.27-8.9a44.17,44.17,0,0,1,4.45-10.8c1.5-2.84,1.43-2.23,5.08-8.27,3.95-6.51,4.48-7.69,7-11.44,2.09-3.11,3.93-5.52,5.08-7" transform="translate(-56.41 -25.9)"/><path class="e" d="M725.07,163.94a88.85,88.85,0,0,1-8.27,15.25c-3.42,5.06-6.85,10.15-12.71,14.62-8,6.1-10.2,3.19-16.53,8.26-7.32,5.88-4.82,10.14-14.62,22.89-5.1,6.64-6.12,5.93-10.17,12.08-4.29,6.52-4.31,9.1-8.9,15.89S647,263.17,643.7,264.37c-7.75,2.85-13.41-5.8-28.6-10.17-9-2.58-8.56,0-23.52-1.91-22-2.77-22.72-8.28-39.41-8.9-1,0-10.43.82-29.24,2.54-7.08.65-13.55,1.27-20.34,1.91-12.61,1.2-18.91,1.8-19.71,1.91C474,251,461.29,255.62,446,271.36" transform="translate(-56.41 -25.9)"/><path class="c" d="M505.77,303.78a85.68,85.68,0,0,0,15.89-21c3.33-6.32,3.83-9.57,8.26-14.62,3.26-3.71,5.91-5.28,6.36-8.9.29-2.34-.55-3.84-3.18-9.53-3-6.51-4.61-7.7-5.08-11.44-.27-2.09,0-3.27.63-7,1.63-9.78.65-7.35,2.54-19.06,1.13-7,1.69-9.17,1.91-14,.14-2.94.08-5.37,0-7-3.46-4.23-4.32-7.72-4.45-10.17-.09-1.71.17-3.32-.63-5.72-.37-1.11-1.48-4.45-3.82-5.09-1.72-.46-3.28.76-5.72,2.54,0,0-5.24,3.84-13.35,8.9-5.09,3.18-7,3.72-8.9,3.82a13.7,13.7,0,0,1-6.35-1.27c-5.07-2.24-4.79-5.42-10.81-10.81-4.26-3.82-6.88-4.45-7-7-.06-1.44.75-2,2.54-5.72a42.85,42.85,0,0,0,2.54-6.36c.32-1.33.95-6.36-11.12-15.57" transform="translate(-56.41 -25.9)"/><path class="c" d="M472.08,166.48a27.28,27.28,0,0,0-8.26,8.26,31.45,31.45,0,0,0-3.18,7c-1.71,4.77-3,8.23-2.55,12.72a18.85,18.85,0,0,0,3.18,8.9c4.08,5.64,12.19,8,20.66,6.67" transform="translate(-56.41 -25.9)"/><path class="e" d="M65.9,157.58c3.93-3.41,10.09-7.59,16.53-6.36,2.69.52,4.14,1.74,12.07,8.9,12.82,11.57,14.73,13.53,19.07,15.26,5.28,2.1,5.4.39,13.35,2.54,2.43.66,9,2.58,20.34,9.53,12.37,7.56,11,9.15,20.34,14.62,9.12,5.34,9.56,3.32,26.06,10.81,13,5.88,14.23,7.82,23.52,10.81,6.43,2.06,12.11,3.89,19.71,3.81,9.88-.1,11.46-3.3,22.25-4.45,3.39-.36,10.1.4,23.52,1.91a196.28,196.28,0,0,1,28.6,5.72c5.74,1.58,8.41,2.6,9.53,5.08,2.1,4.63-3.83,8.4-3.81,17.17,0,2.34,1.49,6.25,4.45,14,4.59,12,5.53,11.91,6.36,16.53.74,4.17,0,4.1,0,16.52,0,8.08,0,12.12.63,14.62,1.58,6.56,4.93,11,10.17,17.8,7.84,10.17,9.42,8.6,11.44,13.35s1.44,9-2.54,27.33c-3,13.89-4.51,20.83-5.08,22.89a185.43,185.43,0,0,1-14,36.87c-6.12,11.88-7,10.17-9.53,17.16-5.41,15.09-3.15,28.68-1.91,35.59,1.64,9.19,2.57,14.39,7,19.07,5.81,6.16,10.78,4.14,17.16,10.17,3.19,3,3.81,5.27,9.54,21.62,7.54,21.5,8.69,23.92,11.44,26.69,7.68,7.75,18.35,8.74,21.61,8.9,20.49,1,34.59-17.26,36.87-20.34,5-6.71,3.67-8.64,11.44-19.7,7.51-10.68,9.88-10.52,12.08-16.53,3.07-8.4-.33-12.1,0-26.7.2-9.1,1.7-15.72,3.18-22.25,2.89-12.79,6.7-19.64,12.71-33.05,5.62-12.53,16.71-37.29,24.16-66.11,1.87-7.27,2.54-11,5.08-19.07.81-2.58,3.53-11,12.71-33.69,6-14.77,8.08-19.17,7-26.06-.79-4.94-2.37-5.86-6.36-14-6.61-13.45-9.45-25.53-12.71-39.41-3.46-14.73-2.24-15.27-5.09-21-2.5-5-7.39-10.54-17.16-21.61-8-9-9.43-10-10.81-10.81-6.12-3.46-8.92-1.7-22.24-3.81a194.2,194.2,0,0,1-22.25-5.09c-8.94-2.67-12.8-4.65-18.44-3.17-3.59.94-5.87,2.74-9.53,5.72-7.45,6-8.05,9.52-14.62,16.52-2.82,3-7.6,6.67-17.16,14-9.31,7.12-10.31,7.2-14.62,10.8a93.84,93.84,0,0,0-17.17,19.07" transform="translate(-56.41 -25.9)"/><path class="c" d="M712.35,385.78c-12.34,15-14.79,25.83-14.62,33.05.06,2.3.41,5.64-1.27,9.54-2.69,6.25-8,7.95-17.16,13.34-9.59,5.66-17.67,10.44-22.88,18.44-4.24,6.5-4.68,12.2-5.72,17.8-2,10.77-7.19,25.75-21.3,43.54" transform="translate(-56.41 -25.9)"/><path class="i" d="M627.49,536.11a8.25,8.25,0,0,1,1.91-14.62" transform="translate(-56.41 -25.9)"/><path class="e" d="M489.24,348.27a110.47,110.47,0,0,1,17.16,14.62c4.94,5.16,8.83,9.24,12.08,15.26,7.68,14.24,1.47,20.35,8.26,29.87,6.15,8.63,12,4.76,22.89,15.26,5.58,5.41,4.15,6.56,14.62,21.61,6.67,9.59,10.52,15.13,17.16,21.61a102.52,102.52,0,0,0,19.71,15.26c10.66,6.33,12.22,4.55,16.52,8.9,6.05,6.11,5.19,11.88,10.17,26.06a126.36,126.36,0,0,0,8.9,19.71" transform="translate(-56.41 -25.9)"/><path class="c" d="M435.53,500.51l-1.91-17.16-2.54-3.18q.94-9.85,1.91-19.7l-4.45-5.73V432.5q-4.46-8.26-8.9-16.53l-1.91-24.79c.42-2.33.85-4.66,1.27-7l-7-13.35q-.31-8.58-.64-17.16-.63-3.82-1.27-7.63a78,78,0,0,1,1.91-8.26,14.55,14.55,0,0,0,.64-3.18,12.15,12.15,0,0,0-.64-5.09c-.65-1.73-1.41-2.22-2.54-3.81-1.9-2.68-1.33-3.54-3.18-7.63-1.6-3.53-2-2.89-4.45-7.63-2.07-4.05-1.73-4.45-3.18-6.35-2.44-3.2-4.49-3.49-4.45-5.09s2.31-1.91,5.72-5.08a19.92,19.92,0,0,0,5.09-7,18.44,18.44,0,0,0,1.27-7.62c-.11-2.64-.29-6.95-3.18-9.54-2.59-2.33-4.47-.66-8.9-3.18-3.95-2.24-4.31-4.62-6.35-4.45-2.42.21-4,3.71-5.73,7.63a24.93,24.93,0,0,0-2.54,8.9c-.26,3.84.69,5.54,1.91,12.08.71,3.8,1.07,6.92,1.27,8.9" transform="translate(-56.41 -25.9)"/><path class="c" d="M411.37,340.33c-.48-.22-5-2.33-5.08-5.72,0-1.13.37-2.61,3.81-5.72a51.07,51.07,0,0,1,8.9-6.36c4.13-2.48,9.75-5.85,14-11.44a33.18,33.18,0,0,0,5.08-10.17c.82-2.71,2.83-9.59.64-17.16-1.1-3.81-2-3.29-3.82-8.9-2-6-1.27-7.38-3.18-10.17-2.71-4-5.09-2.56-8.26-6.36-3.46-4.16-1.91-7.4-5.08-13.35a25.31,25.31,0,0,0-6.36-7.63,28.23,28.23,0,0,1-.64-3.81,28.71,28.71,0,0,1,1.28-11.44" transform="translate(-56.41 -25.9)"/><path class="e" d="M358.93,28.54c.4,11,.56,20,.64,26.06.25,19.7-.18,26.56.63,41.32.66,11.84,1,17.76,1.91,22.25,3.22,15.6,8.07,18.36,15.26,40,2,6,2.24,7.77,3.53,12.57.22.82.43,1.6.66,2.4,1.08,3.86,2,6.71,2.16,7.28,3,9.54,1.74,20.8,8.27,24.79a9.22,9.22,0,0,0,3.81,1.27" transform="translate(-56.41 -25.9)"/><path class="c" d="M411.37,328.25a31.92,31.92,0,0,1,7,8.26c1.74,3,1.69,4.13,4.45,10.17,2.25,4.95,3.42,7.45,5.08,8.9,3.17,2.76,7,3.4,9.54,3.82a17.24,17.24,0,0,0,7,0,14.8,14.8,0,0,0,5.72-2.54c3.15-2.36,4.36-5.45,5.72-8.9a24.86,24.86,0,0,0,1.91-7.63c.17-2.37-.1-4.54-.64-8.9-.23-1.87-.47-3.4-.63-4.45l3.81-5.09.63-11.44c.64-.42,1.28-.84,1.91-1.27a18.17,18.17,0,0,1,0-8.26c.88-3.59,2.33-4.21,3.18-8.27.67-3.21-.1-3.47.64-7a30.84,30.84,0,0,1,2.54-7,55.35,55.35,0,0,1,3.81-7" transform="translate(-56.41 -25.9)"/><path class="b" d="M431.08,313.63a36.39,36.39,0,0,0,3.81,5.09,5.85,5.85,0,0,1,1.27,1.9,4.43,4.43,0,0,1,0,3.82,3.51,3.51,0,0,1-1.27,1.27" transform="translate(-56.41 -25.9)"/><path class="c" d="M406.29,283.12l13.35,4.45a51.21,51.21,0,0,1,6.35-5.09,51.86,51.86,0,0,1,9.54-5.08" transform="translate(-56.41 -25.9)"/><path class="c" d="M404.7,287.25l10.81,3.82,3.81-3.18" transform="translate(-56.41 -25.9)"/><path class="c" d="M415.82,286.3A218.17,218.17,0,0,1,440,295.2c2.85,1.24,5.6,2.52,8.26,3.81l14.62,1.91" transform="translate(-56.41 -25.9)"/><path class="f" d="M387.86,262.14c-10.57-1.21-15.06-3.64-17.17-5.72a30.73,30.73,0,0,0-6-4.76,29.47,29.47,0,0,0-3.81-1.91,28.41,28.41,0,0,0-3.81-1.27c-4.2-1.13-6.4-3.54-10.17-5.09-6.66-2.72-9.23.93-15.9-1.91a21.46,21.46,0,0,1-6.35-4.44c-11.79-10.79-10.18-17.49-19.07-24.16-6.72-5-16.58-7.91-17.8-8.26a47.55,47.55,0,0,1-8.9-3.18,51.36,51.36,0,0,1-8.9-5.72,104.72,104.72,0,0,1-9.53-8.27c-1.75-1.63-4.7-4.41-8.27-8.26-6.93-7.48-5.68-7.68-8.26-9.53-7.26-5.22-19.2-5.1-23.52,0-1.2,1.42-.94,2.2-2.54,3.81-3.08,3.1-7.15,3.33-10.81,3.81-10.53,1.41-8.84,3.86-17.16,4.45-5.68.41-11.88.85-17.8-2.54-3.72-2.13-5.7-4.84-10.17-5.08-1.71-.1-1.55.29-6.35.63-6.41.46-8-.14-8.9-.63a9.56,9.56,0,0,1-3.82-3.82c-1.28-2.44-.34-3.52-1.27-7a20.15,20.15,0,0,0-3.18-6.36,24.89,24.89,0,0,0-5.08-5.72,29.12,29.12,0,0,0-3.82-2.54,50.08,50.08,0,0,0-6.35-3.18" transform="translate(-56.41 -25.9)"/><path class="g" d="M383.09,267.55a30,30,0,0,1,8.26-11.45c2.14-1.77,5.55-4,6.36-7,.18-.67.58-2.7,1.27-5.08a11,11,0,0,0,.34-1.4c.19-1.15.06-1.91.29-3,.64-3.09,3-4.5,5.73-7a37.59,37.59,0,0,0,7-8.9" transform="translate(-56.41 -25.9)"/><path class="b" d="M411.37,232.27l8.9-7.63" transform="translate(-56.41 -25.9)"/><rect class="j" x="329.85" y="249.28" width="11.44" height="11.44"/><text class="k" transform="translate(169.01 238.31)">BRU<tspan class="l" x="78.44" y="0">S</tspan><tspan x="101.1" y="0">SEL</tspan></text></svg>