<svg xmlns="http://www.w3.org/2000/svg" xmlns:xlink="http://www.w3.org/1999/xlink" viewBox="0 0 1148.25 2549.15"><defs><style>.a,.d,.f{fill:none;}.b{clip-path:url(#a);}.c{opacity:0.63;}.d{stroke:#fff200;stroke-width:6px;}.d,.f{stroke-miterlimit:10;}.e{opacity:0.35;}.f{stroke:#00aeef;stroke-width:5px;}</style><clipPath id="a" transform="translate(-6868.82 -5979.58)"><rect class="a" x="6969.83" y="6435.15" width="607.82" height="1226.6"/></clipPath></defs><g class="b"><g class="c"><path class="d" d="M7346,8528.33c12.74-96.15-2-192-7.67-288.06-5.24-88.47,3.65-171.23,33.49-254.92,26.92-75.48,63-147.71,84.27-225.19,10.18-37.14,13.81-75.57,24.74-112.5,11-37.11,26.64-72.6,43.24-107.48,32.63-68.56,71-135.94,88.74-210.38,17.63-73.87,7.77-149.23-4-223.17-12.47-78.26-26.64-155.87-16.81-235.26,9.42-76.07-4.9-149.1-17.94-223.8-7.38-42.33-13.55-85.11-12.53-128.2,1.19-50.9,14.08-99.92,31.51-147.51,40-109.23,102.17-211.65,121.77-327.56" transform="translate(-6868.82 -5979.58)"/><path class="d" d="M7334.37,8526.73c12.74-96.15-2-192-7.67-288.06-5.23-88.48,3.65-171.24,33.49-254.92,26.92-75.48,63-147.72,84.27-225.2,10.29-37.53,13.9-76.38,24.94-113.71,10.72-36.25,26.14-70.8,42.78-104.67,32.62-66.37,70.4-131.13,87.66-203.73,17.8-74.86,7.55-151.72-3.42-226.81-11.63-79.58-25.93-159.52-16-240.05,9.24-75.25-4.72-146.62-18.26-220.37-7.63-41.55-13.75-83.52-12.75-125.89,1.22-51.07,14.23-100,31.54-147.83,40.12-110.75,102.2-215.61,122.25-332.8" transform="translate(-6868.82 -5979.58)"/><path class="d" d="M7322.74,8525.12c12.74-96.15-2-192-7.67-288.06-5.23-88.47,3.65-171.23,33.5-254.92,26.91-75.48,63-147.71,84.26-225.19,10.29-37.53,13.8-76.42,24.94-113.71,10.32-34.56,25.35-67.31,41.91-99.28,32.37-62.49,69.27-122.82,85.77-192,18.32-76.81,7.59-156.79-2.25-234-10.54-82.72-24.65-166.57-14.44-250,9-73.36-4.69-141.83-18.89-213.49-7.94-40.08-14.08-80.56-13.14-121.54,1.18-51.44,14.54-100.73,31.64-149,40.39-113.92,102.51-222.74,123.16-342.81" transform="translate(-6868.82 -5979.58)"/><path class="d" d="M7311.11,8523.52c12.75-96.16-2-192-7.67-288.06-5.23-88.48,3.65-171.24,33.5-254.92,26.92-75.48,63-147.72,84.26-225.2,10.2-37.19,13.54-75.8,24.77-112.69,9.82-32.21,24.32-62.46,40.71-91.79,32-57.23,67.64-111.55,83.2-176.17,19.16-79.56,8-164-.6-244.25-9.32-87.33-22.9-176.37-12.15-264.16,8.65-70.62-4.73-135.15-19.77-203.77-8.34-38.05-14.49-76.46-13.69-115.53,1.07-52,15-101.93,31.81-150.77,40.79-118.42,103.06-232.43,124.42-356.73" transform="translate(-6868.82 -5979.58)"/><path class="d" d="M7299.49,8521.91c12.74-96.15-2-192-7.68-288.06-5.23-88.48,3.65-171.23,33.5-254.92,26.92-75.48,63-147.71,84.26-225.19,10-36.6,13.13-74.71,24.49-110.91,9.21-29.36,23-56.56,39.22-82.64,31.6-50.89,65.63-97.82,80.12-157.09,20.28-82.93,8.64-172.85,1.42-256.74-8-93.11-20.8-188.32-9.32-281.62,8.27-67.28-4.78-127-20.86-191.85-22.56-91-11.81-172.82,17.67-261.31,41.3-124,103.82-244.12,126-373.7" transform="translate(-6868.82 -5979.58)"/><path class="d" d="M7287.86,8520.31c12.74-96.16-2-192-7.67-288.07-5.24-88.47,3.65-171.23,33.49-254.91,26.92-75.48,63-147.72,84.27-225.2,9.81-35.79,12.59-73.27,24.1-108.55,8.54-26.19,21.56-50,37.55-72.31,31.34-43.77,63.27-82.06,76.66-135.68,21.66-86.77,9.58-182.89,3.7-270.89-6.65-99.72-18.45-201.78-6.11-301.46,7.87-63.57-4.73-117.76-22.07-178.33-25.3-88.34-10.6-169.43,17.16-255.76,41.89-130.32,104.73-257.23,127.7-392.88" transform="translate(-6868.82 -5979.58)"/><path class="d" d="M7276.23,8518.7c12.74-96.15-2-192-7.67-288.06-5.24-88.48,3.65-171.24,33.49-254.92,26.92-75.48,63-147.71,84.27-225.19,16.24-59.25,17.26-118.76,59.43-167.12,31.43-36,60.61-64.65,73-112.85,23.29-90.85,10.71-193.69,6.15-286.06-5.27-106.83-16-216.15-2.66-322.73,7.46-59.82-4.65-107.83-23.39-163.85-28.45-85-9.32-166.24,16.62-249.87,42.53-137.11,105.75-271.19,129.57-413.39" transform="translate(-6868.82 -5979.58)"/><path class="d" d="M7264.6,8517.09c12.74-96.15-2-192-7.67-288.06-5.24-88.47,3.65-171.23,33.49-254.92,26.92-75.48,63-147.71,84.27-225.19,14.54-53,12.66-114.15,57.15-153,31.92-27.87,57.62-45.78,69.19-89.52,10.61-40.12,11.13-83.36,11.77-124.55.91-59-1.09-118.06-3.1-177-3.9-114.12-13.45-230.82.86-344.52,7-56.06-4.12-97.86-24.73-149-32.46-80.59-7.86-164,16.08-243.86,43.17-144.08,106.79-285.42,131.48-434.37" transform="translate(-6868.82 -5979.58)"/><path class="d" d="M7253,8515.49c12.74-96.15-2-192-7.67-288.06-5.23-88.48,3.65-171.24,33.49-254.92,26.92-75.48,63-147.72,84.27-225.19,12.31-44.88,8.53-113.06,54.92-139.17,11.91-6.71,25.42-10.13,36.52-18.34,15.88-11.75,23.86-29.64,29-48.25,11.2-40.9,11.31-85.88,12.31-127.91,1.49-63,.15-126-1.18-188.92-2.57-121.27-11-245.18,4.32-365.89,3.38-26.59,5.2-53.22-1.64-79.44-5.16-19.79-15.41-36.87-24.41-55-37.1-74.89-6.24-162.91,15.54-237.94,43.82-150.94,107.82-299.38,133.36-455" transform="translate(-6868.82 -5979.58)"/><path class="d" d="M7241.34,8513.88c12.74-96.15-2-192-7.67-288.06-5.23-88.47,3.65-171.23,33.5-254.92,26.91-75.48,63-147.71,84.26-225.19,8.66-31.59,9.41-67.82,22.38-97.91,6.28-14.57,14.88-24.48,30.46-28.42,11.36-2.87,23.51-1,34.49-5.75,16.05-6.89,23-23.38,27.5-39.23,11.81-41.56,11.5-88.24,12.81-131,2-66.69,1.32-133.45.63-200.14-1.32-128-8.68-258.63,7.57-385.93,3.18-24.9,5.5-50.49-2.05-74.88-5.34-17.23-15.84-30.85-25.24-45.94-42.18-67.73-4.43-163.38,15-232.35,44.43-157.38,108.76-312.47,135.12-474.33" transform="translate(-6868.82 -5979.58)"/><path class="d" d="M7229.71,8512.28c12.75-96.15-2-192-7.67-288.06-5.23-88.48,3.65-171.24,33.5-254.92,26.92-75.48,63-147.72,84.26-225.2,8.37-30.52,8.59-67.36,22.08-96,6.21-13.19,14.18-20.16,29-19.12,10.86.76,21.54,7.39,32.63,5.73,16-2.38,22.09-17.28,26.22-31.32,12.37-42.07,11.67-90.27,13.23-133.59,2.52-70,2.38-140.17,2.27-210.25-.2-133.91-6.62-270.55,10.44-403.7,3-23.33,5.92-48.34-2.4-71-5.56-15.17-16.29-25.26-26-37.68-13.39-17.16-18.65-35.74-19-57.49-.82-56.91,18.58-115.53,33.54-169.8,45-163.12,109.55-324.15,136.68-491.6" transform="translate(-6868.82 -5979.58)"/><path class="d" d="M7218.09,8510.67c12.74-96.15-2-192-7.68-288.06-5.23-88.47,3.65-171.23,33.5-254.92,26.92-75.48,63-147.71,84.26-225.19,8-29.26,7.59-68.08,21.9-94.94,6.79-12.73,14.21-16.48,27.71-11.42,26.05,9.77,44.26,30.31,56.23-9.33,12.81-42.42,11.79-91.8,13.54-135.52,2.92-72.88,3.25-145.87,3.65-218.8.77-138.77-4.9-280.33,12.8-418.28,2.82-21.94,6.45-47-2.66-68.11-5.84-13.53-16.54-20.59-26.63-30.58-14.41-14.26-19.16-31.23-19.53-51.31-1.07-57.38,18.89-116.9,33.71-171.67,45.41-167.88,110.14-333.83,138-505.9" transform="translate(-6868.82 -5979.58)"/><path class="d" d="M7206.46,8509.07c12.74-96.16-2-192-7.67-288.06-5.24-88.48,3.64-171.24,33.49-254.92,26.92-75.48,63-147.72,84.27-225.2,7.83-28.56,7.1-69,21.87-94.81,7.4-12.93,14.82-13.43,26.8-5.77,21.48,13.72,41.68,44,54.25,2.88,13-42.64,11.84-92.64,13.72-136.59,3.2-75.06,3.91-150.22,4.71-225.33,1.51-142.25-3.61-287.35,14.49-428.74,2.67-20.89,7-46.55-2.82-66.47-6.12-12.42-16.73-17-27.14-25-15.34-11.79-19.53-27.86-20-46.76-1.25-57.69,19.12-117.8,33.82-172.89,45.75-171.36,110.46-341,138.94-516.39" transform="translate(-6868.82 -5979.58)"/><path class="d" d="M7194.83,8507.46c12.74-96.15-2-192-7.67-288.06-5.24-88.48,3.65-171.23,33.49-254.92,26.92-75.48,63-147.71,84.27-225.19,4.84-17.67,8.66-35.51,11.85-53.54,2.41-13.54,3-30.13,10.2-42.34,7.8-13.3,15.35-11.94,26.29-2.65,18.68,15.86,40,53.11,53.08,10.13,13-42.72,11.79-92.58,13.71-136.6,3.34-76.41,4.3-152.92,5.37-229.39,2-144-2.83-291,15.36-434.15,2.56-20.17,7.65-47.25-2.83-66.38-6.51-11.87-16.8-14.43-27.48-21.24-16-10.23-19.77-25.79-20.18-44.2-1.28-57.83,19.21-118.06,33.86-173.3,45.93-173.29,110.41-345,139.46-522.2" transform="translate(-6868.82 -5979.58)"/><path class="d" d="M7183.2,8505.86c12.68-96.51-1.89-193-7.37-289.48-5-88.55,3.56-171.33,33.53-255.09,26.75-74.8,62.76-146.27,83.82-223.09,4.88-17.81,8.72-35.79,11.95-54,2.38-13.41,3-29.7,10.11-41.8,7.62-13,15.2-12.43,26.46-3.7,19.57,15.18,40.68,49.55,53.49,7.58,13-42.7,11.83-92.72,13.74-136.73,3.29-75.92,4.16-151.95,5.13-227.93,1.83-143.46-3.11-289.83,15.08-432.43,2.6-20.35,7.41-46.87-2.84-66.21-6.41-12.07-16.79-15.33-27.36-22.65-15.71-10.9-19.68-26.44-20.09-45.07-1.3-57.79,19.18-118,33.85-173.23,45.87-172.64,110.48-343.62,139.29-520.25" transform="translate(-6868.82 -5979.58)"/><path class="d" d="M7171.57,8504.25c12.77-97.81-1.41-196.06-6.44-293.91-4.55-88.64,3.39-171.7,33.62-255.52,26.39-73.14,62.11-142.85,82.76-218,8-29,7.31-69,22-95.43,7.12-12.79,14.53-14.67,27.15-8,23.36,12.34,42.74,38.4,55-2,13-42.55,11.83-92.36,13.66-136.22,3.09-74.19,3.64-148.48,4.28-222.72,1.22-140.89-4.12-284.6,13.83-424.66,2.74-21.3,6.75-46.63-2.76-67-6-12.85-16.65-18.44-26.93-27.27-14.95-12.82-19.39-29.19-19.78-48.55-1.19-57.57,19-117.47,33.77-172.44,45.62-170,110.36-338.15,138.57-512.26" transform="translate(-6868.82 -5979.58)"/><path class="d" d="M7159.94,8502.64c13-99.93-.56-200.71-5-300.78-3.92-88.67,3.13-172.31,33.74-256.12,25.87-70.8,61.15-138,81.26-210.93,8.31-30.13,8.19-67.58,22-95.66,6.36-12.9,14.2-18,28.23-14.62,28.22,6.86,45.62,23.07,57.32-16.11,12.63-42.28,11.74-91.19,13.42-134.75,2.75-71.7,2.89-143.49,3.07-215.23.36-136.76-5.62-276.29,11.83-412.25,2.89-22.52,6.21-47.5-2.56-69.26-5.72-14.19-16.44-22.55-26.36-33.57-14-15.51-19-33.11-19.3-53.87-.94-57.2,18.77-116.34,33.64-170.91,45.23-165.91,109.92-329.82,137.45-500" transform="translate(-6868.82 -5979.58)"/><path class="d" d="M7148.31,8501c24.8-189.62-37.57-382,30.78-566.48,25.18-67.94,60-132.07,79.41-202.14,8.57-30.89,8.88-67.12,22.1-96.35,6.19-13.66,14.37-22,29.6-23.09,11.09-.8,22.41,3.77,33.43.81,16-4.31,22.51-20,26.76-34.68,12.13-41.86,11.6-89.41,13-132.5,2.32-68.6,1.93-137.29,1.58-205.92-.68-131.39-7.51-265.48,9.22-396.14,3.07-24,5.71-49.21-2.26-72.62-5.47-16.06-16.15-27.61-25.66-41.23-12.93-18.51-18.42-38-18.68-60.65-.67-56.68,18.41-114.8,33.44-168.81,44.74-160.67,109.23-319.17,136-484.24" transform="translate(-6868.82 -5979.58)"/><path class="d" d="M7136.68,8499.43c25.26-192-37.22-391.65,33.14-577.62,24.45-64.64,58.59-125.26,77.28-192.1,11.21-40.08,6.86-111.81,53.41-130.32,11.56-4.6,24.38-5,35.38-11.23,16-9.09,23.37-26.11,28.13-43.14,11.53-41.28,11.41-87.21,12.59-129.66,1.8-65.06.82-130.19-.15-195.26-1.86-125.07-9.68-252.8,6.16-377.25,3.26-25.64,5.35-51.64-1.88-76.84-5.25-18.32-15.66-33.47-24.87-49.89-39.9-71.11-5.26-163,15.25-234.78,44.16-154.59,108.35-306.8,134.35-465.94" transform="translate(-6868.82 -5979.58)"/><path class="d" d="M7125.06,8497.83c25.79-194.46-37-402.28,35.7-589.82,23.68-61.07,57.11-117.88,75-181.23,13.6-48.17,10-110.51,55.29-142.36,32.44-22.82,55.87-34.94,67.12-76.67,10.93-40.56,11.22-84.77,12.07-126.44,1.23-61.22-.4-122.49-2-183.69-3.15-118.13-12.06-238.87,2.81-356.5,6.83-54.08-3.66-92.46-25.47-140.86-35-77.6-7-163.22,15.77-240.55,43.54-147.92,107.37-293.24,132.53-445.92" transform="translate(-6868.82 -5979.58)"/><path class="d" d="M7113.43,8496.22c15.18-113.4,5-228.92,3.89-342.88-.83-88.18,1.45-176.72,34.5-259.65,22.86-57.38,55.56-110.19,72.6-169.94,15.67-54.9,14.59-112.2,57.26-155,31.59-31.67,59-54.27,70.87-99.9,10.36-39.74,11.06-82.22,11.52-123,.65-57.23-1.65-114.49-4-171.66-4.5-110.87-14.56-224.3-.7-334.83,7.23-57.7-4.41-102.27-24.14-155.61-30.59-82.7-8.52-164.86,16.32-246.53,42.89-141,106.33-279.1,130.63-425" transform="translate(-6868.82 -5979.58)"/><path class="d" d="M7101.8,8494.62c15.82-117.21,6.54-236.77,6.37-354.63-.12-87.84.83-178.18,34.7-260.62,22.06-53.71,54-102.47,70.23-158.65,17.26-59.82,19-116.89,59.22-167.59,31.34-39.54,61.83-72.57,74.63-123.11,22.54-89,10.19-188.83,5.05-279.24-5.88-103.63-17.08-209.69-4.21-313.16,7.65-61.52-4.78-112.25-22.8-170.36-26.88-86.67-9.92-167.52,16.86-252.52,42.24-134.05,105.29-264.91,128.74-404.16" transform="translate(-6868.82 -5979.58)"/><path class="d" d="M7090.17,8493c16.44-120.87,8.06-244.28,8.75-365.88.5-87.42.16-179.69,34.89-261.56,21.29-50.18,52.53-95,67.94-147.78,9.85-33.76,12.06-69.08,22.79-102.6,8.84-27.63,22.24-53,38.32-77,31.42-47,64.35-89.29,78.23-145.43,21-85,9.13-178.31,2.66-264.44-7.27-96.7-19.52-195.65-7.58-292.41,8.06-65.25-4.77-122-21.52-184.49-24-89.62-11.14-170.91,17.39-258.28,41.63-127.43,104.32-251.27,126.92-384.14" transform="translate(-6868.82 -5979.58)"/><path class="d" d="M7078.54,8491.41c17-124.24,9.43-251.15,10.92-376.17,1-86.94-.53-181.19,35.08-262.42,20.58-46.95,51.14-88,65.81-137.74,10.06-34.07,12.4-69.67,22.9-103.63,9.49-30.68,23.63-59.29,39.92-86.88,31.76-53.83,66.56-104.2,81.54-165.91,19.74-81.37,8.3-168.75.48-250.95-8.6-90.42-21.77-182.79-10.63-273.51,8.44-68.83-4.76-130.77-20.35-197.38-8.6-36.71-14.78-73.78-14.05-111.61,1-52.3,15.27-102.77,31.92-152,41.06-121.4,103.47-238.72,125.25-365.84" transform="translate(-6868.82 -5979.58)"/><path class="d" d="M7066.91,8489.8c17.43-127.11,10.6-257,12.78-385,1.47-86.45-1.2-182.6,35.24-263.18,20-44.16,49.93-81.91,64-129,10.21-34.25,12.64-70.07,23-104.32,10.06-33.33,24.81-64.76,41.29-95.35,32.16-59.72,68.41-116.89,84.41-183.67,18.74-78.25,7.75-160.57-1.39-239.39-9.87-85.12-23.72-171.72-13.24-257.4,8.8-71.93-4.7-138.33-19.35-208.4-8.15-39-14.31-78.41-13.43-118.39,1.15-51.71,14.78-101.33,31.73-149.89,40.59-116.27,102.79-227.84,123.82-350.12" transform="translate(-6868.82 -5979.58)"/><path class="d" d="M7055.28,8488.19c17.72-129.36,11.5-261.63,14.23-391.85,1.81-86-1.79-183.8,35.37-263.78,19.48-41.93,48.95-76.88,62.46-121.84,10.29-34.29,12.79-70.18,23-104.54,10.52-35.41,25.74-69.06,42.35-102,32.5-64.4,69.84-126.92,86.7-197.79,18.05-75.84,7.53-154.26-2.84-230.43-11-81.13-25.28-163.06-15.24-245,9.1-74.32-4.69-144.22-18.57-216.94-7.8-40.81-13.93-82-12.95-123.7,1.2-51.25,14.39-100.35,31.59-148.37,40.24-112.32,102.33-219.21,122.7-337.82" transform="translate(-6868.82 -5979.58)"/><path class="d" d="M7043.66,8486.59c17.81-130.81,12-264.61,15.16-396.29,2-85.66-2.23-184.68,35.45-264.21,19.14-40.39,48.27-73.24,61.4-116.79,10.3-34.17,12.83-70,22.95-104.22,10.86-36.75,26.4-71.83,43.05-106.27,32.65-67.57,70.72-133.73,88.24-207.36,17.68-74.29,7.63-150.28-3.76-224.71-12-78.74-26.32-157.45-16.5-237.23,9.34-75.76-4.77-148-18.07-222.36-7.51-42-13.65-84.41-12.63-127.19,1.21-51,14.14-99.9,31.52-147.58,40-109.85,102.14-213.42,122-329.83" transform="translate(-6868.82 -5979.58)"/><path class="d" d="M7032,8485c17.78-131.16,12.15-265.32,15.39-397.35,2.09-85.57-2.37-184.92,35.47-264.33,19-39.95,48.08-72.16,61.09-115.33,10.22-33.88,12.75-69.36,22.82-103.32,11-37.16,26.69-72.71,43.28-107.67,32.6-68.74,71-136.36,88.82-210.94,17.64-73.79,7.85-149.1-4-222.95-12.6-78.23-26.7-155.65-16.85-235,9.45-76.08-4.94-149.26-17.91-224-7.36-42.39-13.53-85.22-12.53-128.36,1.19-50.9,14.08-100,31.52-147.55,40-109.16,102.2-211.35,121.73-327.21" transform="translate(-6868.82 -5979.58)"/><path class="d" d="M7020.4,8483.38c17.78-130.12,11.78-263.17,14.71-394.16,1.92-85.82-2-184.24,35.41-264,19.31-41.15,48.61-75.07,61.93-119.32,10.15-33.74,12.7-69.05,22.72-102.87,11-37.16,26.69-72.71,43.28-107.67,32.6-68.74,71-136.36,88.82-210.93,17.65-73.79,7.85-149.11-4.05-223-12.59-78.22-26.7-155.64-16.84-235,9.44-76.09-4.95-149.26-17.92-224-7.36-42.39-13.53-85.23-12.53-128.36,1.19-50.9,14.08-100,31.52-147.56,40-109.15,102.2-211.34,121.74-327.21" transform="translate(-6868.82 -5979.58)"/><path class="d" d="M7008.77,8481.77c17.58-128.2,11-259.25,13.48-388.3,1.63-86.24-1.48-183.17,35.3-263.47,19.73-43.09,49.47-79.52,63.24-125.56,10.12-33.8,12.71-69.14,22.75-103,11-37.16,26.69-72.71,43.28-107.68,32.6-68.73,71-136.36,88.82-210.93,17.65-73.79,7.85-149.1-4.05-223-12.59-78.22-26.69-155.64-16.84-235,9.44-76.08-4.95-149.26-17.92-224-7.36-42.39-13.53-85.22-12.52-128.36,1.18-50.9,14.07-100,31.51-147.55,40-109.16,102.2-211.35,121.74-327.21" transform="translate(-6868.82 -5979.58)"/><path class="d" d="M6997.14,8480.17c17.2-125.58,10-253.9,11.79-380.29,1.24-86.73-.84-181.84,35.15-262.78,20.3-45.65,50.59-85.2,64.95-133.65,10.1-34,12.79-69.55,22.89-103.62,11-37.16,26.69-72.71,43.27-107.67,32.6-68.74,71-136.36,88.82-210.93,17.65-73.8,7.85-149.11-4-223-12.6-78.22-26.7-155.64-16.85-235,9.44-76.09-4.95-149.26-17.92-224-7.36-42.38-13.53-85.22-12.52-128.35,1.18-50.9,14.07-100,31.51-147.56,40-109.15,102.2-211.34,121.74-327.21" transform="translate(-6868.82 -5979.58)"/><path class="d" d="M6985.51,8478.56c16.7-122.41,8.69-247.43,9.75-370.6.74-87.21-.15-180.36,35-261.95,21-48.71,51.9-91.83,67-143.19,10.09-34.39,12.89-70.21,23.09-104.59,11-37.17,26.69-72.72,43.27-107.68,32.61-68.73,71-136.36,88.82-210.93,17.65-73.79,7.85-149.1-4-223-12.6-78.22-26.7-155.64-16.85-235,9.44-76.08-4.95-149.26-17.92-224-7.36-42.39-13.53-85.22-12.52-128.36,1.18-50.9,14.08-100,31.51-147.55,40-109.16,102.21-211.35,121.74-327.21" transform="translate(-6868.82 -5979.58)"/><path class="d" d="M6973.88,8477c16.11-118.87,7.23-240.17,7.45-359.72.16-87.66.54-178.85,34.79-261.05,21.71-52.11,53.34-99.1,69.19-153.74,10.1-34.82,13-71,23.35-105.83,11-37.16,26.69-72.71,43.27-107.67,32.61-68.74,71-136.36,88.83-210.94,17.64-73.79,7.84-149.1-4.05-222.95-12.6-78.23-26.7-155.64-16.85-235,9.44-76.08-4.95-149.25-17.92-224-7.35-42.38-13.53-85.22-12.52-128.36,1.19-50.89,14.08-100,31.51-147.55,40-109.16,102.21-211.34,121.74-327.21" transform="translate(-6868.82 -5979.58)"/><path class="d" d="M6962.26,8475.35c15.46-115.1,5.67-232.43,5-348.13-.51-88,1.18-177.36,34.58-260.08,22.51-55.74,54.87-106.75,71.55-164.9,10.12-35.31,13.19-72,23.64-107.23,11-37.16,26.69-72.71,43.27-107.67,32.61-68.73,71-136.36,88.83-210.93,17.64-73.79,7.84-149.1-4.05-223-12.6-78.22-26.7-155.64-16.85-235,9.45-76.09-4.95-149.26-17.92-224-7.35-42.39-13.53-85.22-12.52-128.36,1.19-50.9,14.08-100,31.52-147.55,40-109.16,102.2-211.35,121.73-327.22" transform="translate(-6868.82 -5979.58)"/><path class="d" d="M6950.63,8473.74c14.82-111.27,4.09-224.54,2.51-336.32-1.25-88.34,1.76-176,34.38-259.11,23.31-59.44,56.42-114.48,73.94-176.24,10.15-35.81,13.36-73,23.94-108.66,11-37.16,26.69-72.71,43.27-107.67,32.61-68.74,71-136.36,88.83-210.94,17.64-73.79,7.85-149.1-4.05-222.95-12.6-78.23-26.7-155.65-16.85-235,9.45-76.08-4.94-149.25-17.91-224-7.36-42.39-13.53-85.22-12.53-128.36,1.19-50.9,14.08-100,31.52-147.55,40-109.16,102.2-211.34,121.73-327.21" transform="translate(-6868.82 -5979.58)"/><path class="d" d="M6939,8472.14c25.49-193.08-37.1-396.27,34.25-582.95,24.12-63.08,57.95-122,76.29-187.34,10.18-36.29,13.52-73.9,24.23-110.05,11-37.16,26.69-72.71,43.28-107.67,32.6-68.73,71-136.36,88.82-210.93,17.65-73.79,7.85-149.11-4.05-223-12.59-78.22-26.7-155.64-16.84-235,9.44-76.09-4.95-149.26-17.92-224-7.36-42.39-13.53-85.22-12.53-128.36,1.19-50.9,14.08-100,31.52-147.55,40-109.16,102.2-211.35,121.74-327.22" transform="translate(-6868.82 -5979.58)"/><path class="d" d="M6927.37,8470.53c25-190.64-37.4-386.15,31.79-571.27,24.87-66.51,59.37-129.13,78.49-197.8,10.22-36.71,13.66-74.73,24.49-111.26,11-37.16,26.69-72.71,43.28-107.67,32.6-68.74,71-136.36,88.82-210.94,17.65-73.79,7.85-149.1-4.05-222.95-12.59-78.23-26.69-155.65-16.84-235,9.44-76.08-5-149.26-17.92-224-7.36-42.39-13.53-85.22-12.53-128.36,1.19-50.9,14.08-100,31.52-147.55,40-109.16,102.2-211.35,121.74-327.21" transform="translate(-6868.82 -5979.58)"/><path class="d" d="M6915.74,8468.93c13.19-101.1-.1-203.22-4.2-304.49-3.6-88.72,3.05-172.62,33.81-256.45,25.54-69.6,60.65-135.49,80.47-207.2,10.24-37,13.78-75.36,24.7-112.2,11-37.16,26.69-72.71,43.27-107.67,32.6-68.74,71-136.36,88.82-210.93,17.65-73.79,7.85-149.11-4-223-12.6-78.22-26.7-155.64-16.85-235,9.44-76.09-4.95-149.26-17.92-224-7.36-42.39-13.53-85.23-12.52-128.36,1.18-50.9,14.07-100,31.51-147.56,40-109.15,102.2-211.34,121.74-327.21" transform="translate(-6868.82 -5979.58)"/><path class="d" d="M6904.11,8467.32c12.86-98.66-1.07-197.95-5.85-296.69-4.28-88.66,3.29-171.94,33.68-255.77,26.16-72.18,61.71-140.86,82.14-215.11,10.24-37.23,13.83-75.75,24.81-112.76s26.69-72.71,43.27-107.68c32.61-68.73,71-136.36,88.82-210.93,17.65-73.79,7.85-149.1-4-223-12.6-78.22-26.7-155.64-16.85-235,9.44-76.08-4.95-149.26-17.92-224-7.36-42.39-13.53-85.22-12.52-128.36,1.18-50.9,14.08-100,31.51-147.55,40-109.16,102.21-211.35,121.74-327.21" transform="translate(-6868.82 -5979.58)"/><path class="d" d="M6892.48,8465.72c12.7-97-1.72-194.15-7-291.12-4.85-88.59,3.49-171.46,33.56-255.25,26.61-74.16,62.51-145,83.41-221.13,10.22-37.26,13.85-75.8,24.83-112.84s26.69-72.71,43.27-107.67c32.61-68.74,71-136.36,88.82-210.93,17.65-73.8,7.85-149.11-4-223-12.6-78.22-26.7-155.64-16.85-235,9.44-76.09-4.95-149.26-17.92-224-7.35-42.38-13.53-85.22-12.52-128.35,1.19-50.9,14.08-100,31.51-147.56,40-109.15,102.21-211.34,121.74-327.21" transform="translate(-6868.82 -5979.58)"/><path class="d" d="M6880.86,8464.11c12.71-96.19-2-192.12-7.64-288.24-5.2-88.5,3.64-171.25,33.5-254.95,26.89-75.36,63-147.46,84.19-224.83,10.17-37.08,13.79-75.45,24.72-112.31,11-37.17,26.69-72.72,43.27-107.68,32.61-68.73,71-136.36,88.83-210.93,17.64-73.79,7.84-149.1-4-223-12.6-78.22-26.7-155.64-16.85-235,9.45-76.09-4.95-149.26-17.92-224-7.35-42.39-13.53-85.22-12.52-128.36,1.19-50.9,14.08-100,31.52-147.55,40-109.16,102.2-211.35,121.73-327.22" transform="translate(-6868.82 -5979.58)"/></g><g class="e"><path class="f" d="M7576.41,6456.51c-46.26,100.3-93.09,200.34-139.48,300.58-40.42,87.31-77.05,177.14-129.12,258.31-24.84,38.74-51.13,76.7-72.28,117.65-20.93,40.52-34.94,83.8-48,127.34-13.88,46.21-27,92.78-47.29,136.7-21,45.37-47.37,88-72.81,130.92-30.06,50.75-57.82,102-78.39,157.43-22.42,60.41-40,122.37-66.52,181.24" transform="translate(-6868.82 -5979.58)"/><path class="f" d="M7587.37,6461.14c-45.64,100.72-96.61,198.9-141.68,299.91-39.27,88-74.71,177.6-126.91,259-24.85,38.74-51.14,76.71-72.29,117.66-20.93,40.51-34.93,83.79-48,127.33-13.88,46.21-27,92.78-47.29,136.7-21,45.37-47.37,88-72.81,130.92-30.06,50.75-57.82,102-78.39,157.43-22.42,60.41-40,122.37-66.52,181.24" transform="translate(-6868.82 -5979.58)"/><path class="f" d="M7598.33,6465.77c-46.28,100.82-103.25,196-145.94,298.61-37.14,89.23-70.21,178.52-122.65,260.28-24.85,38.74-51.14,76.71-72.29,117.66-20.93,40.51-34.93,83.79-48,127.34-13.88,46.2-27,92.77-47.29,136.69-21,45.37-47.37,88-72.81,130.92-30.06,50.75-57.82,102-78.39,157.43-22.42,60.41-40,122.37-66.52,181.24" transform="translate(-6868.82 -5979.58)"/><path class="f" d="M7609.29,6470.4c-47.67,100.85-111.59,192.17-151.34,297-34.46,90.87-64.42,179.55-117.25,261.93-24.85,38.74-51.14,76.71-72.29,117.66-20.93,40.51-34.93,83.79-48,127.34-13.89,46.2-27,92.77-47.3,136.69-21,45.37-47.37,88-72.81,130.92-30.06,50.75-57.82,102-78.39,157.43-22.42,60.41-40,122.37-66.52,181.24" transform="translate(-6868.82 -5979.58)"/><path class="f" d="M7620.25,6475C7571,6576,7500,6663,7463.32,6770.28c-15.8,46.21-28.67,93.41-46.16,139-16.95,44.25-40,84.81-65.5,124.6-24.85,38.74-51.14,76.71-72.29,117.66-20.93,40.51-34.93,83.8-48,127.34-13.89,46.2-27,92.77-47.29,136.69-21,45.37-47.38,88-72.82,130.92-30.06,50.75-57.82,102-78.39,157.43-22.42,60.41-40,122.37-66.52,181.24" transform="translate(-6868.82 -5979.58)"/><path class="f" d="M7631.21,6479.66c-50.42,101.28-127.84,184.12-161.8,293.76-14.44,46.64-25.22,94.4-41.78,140.38-16.05,44.56-39.53,85-65,124.76-24.85,38.73-51.14,76.7-72.29,117.65-20.93,40.51-34.93,83.8-48,127.34-13.89,46.2-27,92.77-47.29,136.69-21,45.37-47.38,88-72.82,130.92-30.06,50.75-57.82,102-78.39,157.43-22.42,60.41-40,122.37-66.52,181.24" transform="translate(-6868.82 -5979.58)"/><path class="f" d="M7642.17,6484.29c-50.59,101.87-132.89,181.37-165,292.79-13.53,46.92-22.64,95.12-38.71,141.3-15.55,44.67-39.44,85.16-64.87,124.81-24.85,38.73-51.14,76.7-72.29,117.65-20.93,40.51-34.93,83.8-48,127.34-13.89,46.2-27,92.77-47.29,136.69-21,45.37-47.38,88-72.82,130.92-30.06,50.75-57.82,102-78.39,157.43-22.42,60.41-40,122.37-66.52,181.24" transform="translate(-6868.82 -5979.58)"/><path class="f" d="M7653.13,6488.92c-50.7,102.26-133.93,182-165.83,293.91-13.23,46.44-21.85,94.17-37.72,139.85-15.55,44.74-39.31,85.4-65,125-24.74,38.13-50.93,75.44-71.75,115.94-21,40.83-35.09,84.32-48.28,128.16-14,46.59-27.22,93.49-47.61,137.8-20.94,45.53-47.51,88.11-73.22,131-30.33,50.64-58.25,102-78.7,157.54-22.22,60.34-39,122.35-65.81,181" transform="translate(-6868.82 -5979.58)"/><path class="f" d="M7664.09,6493.55c-51.79,103.64-132.79,189.88-166.37,302.46-13,43.68-21.92,88.52-37.2,131.53-15.38,43.32-37.7,82.66-63.63,120.44-24,34.93-49.33,68.88-68.86,106.63-22,42.47-36.27,88.11-50,133.75-14.81,49.22-28.59,99-50.1,145.86-21.28,46.33-49.27,89-76.26,132.13-31.56,50.39-60.54,101.73-80.15,158.09-20.82,59.84-34.7,121.51-61.33,179.28" transform="translate(-6868.82 -5979.58)"/><path class="f" d="M7675.05,6498.18c-52.44,107.07-130.55,201.88-167.25,316.34-26.11,81.45-44.6,160.32-97.4,229.9-22.76,30-46.61,58.7-64.34,92.12-23.83,44.93-38.23,94.46-52.87,142.94-16.18,53.57-30.77,108.39-54.32,159.33-22,47.57-52.45,90.58-81.34,134.09-33.31,50.16-64.21,101.08-82.34,158.91-18.5,59-28.41,119.79-54,176.54" transform="translate(-6868.82 -5979.58)"/><path class="f" d="M7686,6502.81c-53.09,112-126.87,215.48-168.3,332.79-25,70.88-42.06,145.63-93.22,203.4-21.43,24.2-43.29,46.51-59,75.1-26.22,47.59-40.6,102.15-56.27,153.85-17.79,58.73-33.29,119.64-59.36,175.41-22.91,49-56.37,92.48-87.41,136.46-35.22,49.9-68.73,100.27-84.88,159.87-15.74,58.13-21.12,117.55-45.43,173.29" transform="translate(-6868.82 -5979.58)"/><path class="f" d="M7697,6507.44c-53.95,117.31-121.87,228.81-169.33,349.05-23.6,59.77-39.84,132.72-89.1,177.23-20.44,18.46-39.77,33.9-53.8,58.26-28.74,49.93-43,109.93-59.62,164.63-19.38,63.77-35.65,130.9-64.35,191.3-23.94,50.38-60.27,94.35-93.41,138.81-37,49.59-73.35,99.51-87.38,160.81-13.12,57.29-13.8,115.14-36.92,170.08" transform="translate(-6868.82 -5979.58)"/><path class="f" d="M7707.93,6512.08c-55,121.54-116.45,240.2-170.18,362.34-11.4,25.92-22,52.18-33.78,77.93-13.1,28.56-25,60-52.06,78.24-20.14,13.56-36.46,22.53-49.45,44.3-30.83,51.69-45,116.39-62.36,173.43-20.66,67.89-37.66,139.94-68.38,204.19-24.65,51.55-63.43,95.89-98.27,140.67-38.24,49.16-77.44,99-89.49,161.61-10.91,56.7-7.48,113-29.93,167.46" transform="translate(-6868.82 -5979.58)"/><path class="f" d="M7718.89,6516.71c-56.55,123.45-112.61,247.18-170.66,369.94q-16.63,35.19-33.31,70.36c-12.41,26.34-23,60.65-50.92,74.6-20.59,10.28-34.07,14.72-46.85,35.94-31.84,52.88-46.09,119.91-63.9,178.36-21.39,70.2-38.88,144.79-70.56,211.28-24.93,52.31-65.06,96.72-100.94,141.63-38.9,48.69-80,99-90.81,162.11-9.71,56.51-3.24,111.7-25.95,165.95" transform="translate(-6868.82 -5979.58)"/><path class="f" d="M7729.85,6521.34c-55.83,123-113.91,244.95-170.51,367.58-11.2,24.28-22.12,48.68-33.47,72.89-12.64,27-23.65,60-51.19,75.33-20.35,11.35-34.92,17.46-47.69,38.65-31.59,52.42-45.77,118.88-63.43,176.85-21.17,69.49-38.48,143.37-69.92,209.15-24.88,52.05-64.6,96.48-100.13,141.36-38.71,48.88-79.15,99-90.37,161.94-10.07,56.53-4.73,112.13-27.19,166.42" transform="translate(-6868.82 -5979.58)"/><path class="f" d="M7740.81,6526c-54.54,120-118.68,235.72-169.85,357.22-22.68,53.84-39.17,127.22-87.07,164.21-20.14,15.55-37.8,27.06-51.14,49.72-30,51-44.23,113.9-61.31,170-20.17,66.3-36.88,136.48-66.84,199.25-24.39,51.09-62.22,95.3-96.4,140-37.77,49.35-75.84,99.2-88.67,161.3-11.75,56.9-10,113.86-32.62,168.47" transform="translate(-6868.82 -5979.58)"/><path class="f" d="M7751.77,6530.6c-53.55,115.08-124.12,223.26-168.9,342.32-24.24,64.44-40.65,137.84-90.8,188-20.8,20.82-41.27,39.23-56,65.23-27.68,49-42,106.7-58.24,160.18-18.72,61.68-34.63,126.27-62.29,184.73-23.55,49.8-58.64,93.57-90.93,137.85-36.23,49.68-71.52,99.81-86.34,160.42-14.09,57.63-16.86,116.17-40.43,171.41" transform="translate(-6868.82 -5979.58)"/><path class="f" d="M7762.74,6535.23c-52.8,109.77-128.62,209.62-167.85,325.64-25.53,75.52-43.14,151.91-95,214.93-22,26.7-44.75,51.84-61.34,82.48-25.16,46.47-39.56,98.79-54.79,149.1-17.1,56.5-32.2,114.75-57.17,168.43-22.51,48.38-54.66,91.65-84.78,135.43-34.41,50-66.73,100.62-83.77,159.45-16.94,58.52-24.29,118.55-49.17,174.71" transform="translate(-6868.82 -5979.58)"/><path class="f" d="M7773.7,6539.86c-52.19,105.38-131.68,196.44-166.85,310-12.83,41.42-21.9,83.92-36.76,124.71-15.19,41.68-36.32,79.54-62.24,115.41-23.31,32.25-47.87,63.37-66.41,98.76-22.95,43.83-37.32,91.52-51.55,138.71-15.55,51.56-29.77,104.06-52.37,153.1-21.66,47-51,89.86-79,133.19C7226,7664,7196,7715.08,7177.18,7772.23c-19.57,59.4-31.27,120.6-57.39,177.8" transform="translate(-6868.82 -5979.58)"/><path class="f" d="M7784.66,6544.49c-51.4,102.75-133.52,185.82-166.09,298-13.09,45.07-21.92,91.35-37.46,135.71-15.49,44.19-38.53,84.31-64.41,123.13-24.38,36.56-50.18,72.22-70.34,111.38-21.43,41.64-35.66,86.12-49.1,130.83-14.37,47.83-27.89,96.09-48.78,141.6-21.08,45.92-48.3,88.53-74.65,131.53-30.95,50.5-59.37,101.9-79.42,157.81-21.56,60.11-36.83,122-63.66,180.17" transform="translate(-6868.82 -5979.58)"/><path class="f" d="M7795.62,6549.12c-50,102.37-134.07,180.59-165.74,292.56-13.3,47-21.76,95.37-37.84,141.58-15.53,44.61-39.62,85.16-65,124.75-24.84,38.73-51.13,76.7-72.28,117.65-20.93,40.52-34.94,83.8-48,127.34-13.88,46.21-27,92.78-47.29,136.7-21,45.37-47.38,88-72.81,130.92-30.06,50.75-57.82,102-78.39,157.43-22.42,60.41-40,122.37-66.52,181.24" transform="translate(-6868.82 -5979.58)"/><path class="f" d="M7806.58,6553.75c-25.63,52.23-61.32,97.36-94.2,145-30.72,44.5-53.53,90.83-68.69,142.73-14.24,48.73-24.1,98.79-40.91,146.76-15.58,44.49-39.45,84.87-64.8,124.39-24.84,38.74-51.13,76.7-72.28,117.65s-35.16,84.56-48.42,128.46c-14.14,46.84-27.43,94.1-48,138.63-20.67,44.77-46.8,86.7-72.09,128.94-30.13,50.3-57.57,101.26-78,156.36-22.42,60.41-40,122.37-66.52,181.24" transform="translate(-6868.82 -5979.58)"/><path class="f" d="M7817.54,6558.38c-24,49-57.39,90.86-88.48,135.33-30.76,44-52.31,90.66-68.16,141.84-16.09,52-28.27,105.23-46.66,156.5-16.05,44.72-39.74,85.38-65.3,125.22-24.84,38.74-51.13,76.71-72.28,117.66-21.62,41.84-35.92,86.71-49.57,131.64-14.66,48.26-28.37,97.13-49.58,143-20,43.36-45.6,83.74-70.47,124.43-30,49.15-56.8,99.14-76.89,153.27-22.42,60.41-40,122.37-66.52,181.24" transform="translate(-6868.82 -5979.58)"/><path class="f" d="M7828.5,6563c-21.8,44.8-52.29,82.27-80.94,122.6-30.75,43.27-51,90.47-67.48,140.69-18.48,56.11-33.39,113.45-54,168.86-16.77,45.13-40.28,86.34-66.19,126.74-24.85,38.74-51.14,76.71-72.29,117.66-22.31,43.18-36.94,89.67-51.14,136-15.38,50.16-29.62,101.14-51.69,148.88-19.2,41.51-44.05,79.85-68.32,118.48-29.9,47.58-55.77,96.22-75.36,149-22.42,60.41-40,122.37-66.52,181.24" transform="translate(-6868.82 -5979.58)"/><path class="f" d="M7839.46,6567.64c-19.49,40.36-46.77,73.17-72.93,109.06-30.8,42.24-49.72,90.4-66.76,139.48-37.39,107.64-66.88,213.66-128.9,310.35-24.85,38.74-51.14,76.71-72.29,117.66-23.06,44.62-38,92.85-52.83,140.68-16.14,52.18-30.92,105.41-53.93,155.1-18.32,39.53-42.38,75.69-66,112.14-29.78,45.87-54.64,93.08-73.71,144.46-22.42,60.41-40,122.37-66.52,181.24" transform="translate(-6868.82 -5979.58)"/><path class="f" d="M7850.42,6572.27c-17.49,36.45-41.77,65-65.78,97-30.92,41.14-48.77,90.42-66.11,138.39-40.27,111.35-72.31,223.13-136.7,323.54-24.85,38.73-51.14,76.7-72.29,117.65-23.71,45.89-39,95.64-54.32,144.8-16.81,54-32.08,109.21-55.93,160.63-17.53,37.81-40.85,72-64,106.49A664.6,664.6,0,0,0,7263,7801.2c-22.42,60.41-40,122.37-66.52,181.24" transform="translate(-6868.82 -5979.58)"/><path class="f" d="M7861.38,6576.9c-16.21,33.81-38.24,59.37-60.82,88.59-31.08,40.22-48.18,90.47-65.65,137.6-42.24,113.95-76.06,229.71-142.12,332.71-24.85,38.73-51.14,76.7-72.29,117.65-24.14,46.72-39.63,97.46-55.28,147.48-17.29,55.21-32.9,111.82-57.31,164.44-17,36.65-39.73,69.46-62.59,102.6-67.45,97.78-89.74,212.26-137.85,319.1" transform="translate(-6868.82 -5979.58)"/><path class="f" d="M7872.34,6581.53c-16,33.28-37.53,58.3-59.83,87-31.12,40-48,90.47-65.55,137.44-42.62,114.36-76.7,231.12-143.21,334.46-25,38.89-51.61,77-72.8,118.2-24.09,46.87-39.68,97.55-55.23,147.72-17.18,55.46-32.73,112.24-57.33,165-16.9,36.26-39.26,68.64-62.06,101.34-67.85,97.28-90,212.31-137.9,319" transform="translate(-6868.82 -5979.58)"/><path class="f" d="M7883.3,6586.16c-17.27,36-41.23,64.49-64.81,96.17-30.71,41.23-48.58,90.46-66.05,138.34-41,112.38-73.32,225.67-139.6,326.39-26.54,40.35-55,79.84-77.13,122.88-23.36,45.4-38.11,94.23-52,143.16-15.2,53.43-29,107.86-52.69,158.33-16.59,35.38-38.12,67.14-60.32,99.14-68.63,99-92.67,217.16-141.29,325.76" transform="translate(-6868.82 -5979.58)"/><path class="f" d="M7894.26,6590.79c-19.8,41.13-47.43,75.37-73.61,112.35-30.26,42.75-49.64,90.63-66.84,139.83-20.69,59.18-38.13,119.54-60.74,178-18.76,48.5-44.24,92.06-73.29,135s-60.26,84.76-84.37,130.66c-22.31,42.47-35.06,88.22-46.16,134.65-11.85,49.58-22.62,99.69-44.2,146.17-15.73,33.86-36,64.36-57.08,95-70.29,102.34-97.22,226.31-147.62,338.42" transform="translate(-6868.82 -5979.58)"/><path class="f" d="M7905.22,6595.42c-23,47.55-54.79,88.69-84.37,132.16-30,44.06-51.26,91.05-67.81,141.6-17.28,52.79-30.93,106.81-50.34,158.9-18.7,50.17-46.67,94.34-77.1,138.11-31.9,45.9-66.49,90.76-93.1,140.07-21.07,39-31.44,80.65-38.92,124.07-7.74,44.86-14.72,89.41-33.75,131.18-14.59,32-33.44,60.89-53.06,89.94-72.24,107-102.62,237.49-155.46,354.14" transform="translate(-6868.82 -5979.58)"/><path class="f" d="M7916.18,6600.05c-50,102.56-130.8,184.47-164,295.6-13.86,46.34-23.56,93.94-39.83,139.56-18.48,51.78-49.3,96.72-81,141.23-34.86,49-72.62,96.88-101.93,149.56-19.92,35.83-28.34,72.87-31.6,113.38-3.24,40.2-6.51,78.65-23.16,116-13.43,30.12-30.8,57.42-49,84.79-28.06,42.23-48,88.5-67.28,135.28-32.17,78.2-61,157.82-96.13,234.77" transform="translate(-6868.82 -5979.58)"/><path class="f" d="M7927.14,6604.68c-52.57,107.51-142.41,196.63-174.05,314-11,40.8-17.15,82.83-30.79,122.92-18.09,53.14-51.62,98.95-84.23,144-56.29,77.78-137.92,159.95-134.93,262.13,1.07,36.55.75,69.06-14.3,103.29-12.52,28.5-28.62,54.52-45.58,80.49-27.5,42.12-46.95,88.62-66.33,134.87-34.68,82.75-66.31,166.85-103.7,248.45" transform="translate(-6868.82 -5979.58)"/><path class="f" d="M7938.1,6609.32c-53.82,110.19-150.49,204.31-180.22,325.37-9.13,37.15-12.72,75.42-24.79,111.87-17.91,54.09-53,100.6-86.29,146.11-39,53.3-81.59,105.29-114.28,162.86-18.16,32-26.67,62.78-21.82,99.24,4.62,34.66,5.54,62.73-9,95.7-12.13,27.49-27.39,52.78-43.58,78-27,42-46.16,88.34-65.56,134.17-36.21,85.57-69.69,172.36-108.36,256.88" transform="translate(-6868.82 -5979.58)"/><path class="f" d="M7949.06,6614c-53.77,110.45-151.33,204.8-180.77,326.2-8.91,36.78-12.1,74.66-24.05,110.73-17.93,54.11-53.05,100.71-86.32,146.24-38.82,53.14-81.19,105-113.78,162.34-18.16,32-26.77,62.9-22,99.36,4.5,34.63,5.29,62.74-9.22,95.65-12.26,27.8-27.8,53.42-44.05,79-26.89,42.28-46.3,88.58-65.77,134.61-36.07,85.3-69.35,171.84-107.9,256.07" transform="translate(-6868.82 -5979.58)"/><path class="f" d="M7960,6618.58c-53.33,109.56-148.94,201.72-178.88,322-9.49,38.1-13.39,77.37-25.86,114.75-17.66,53-51.43,98.82-83.8,143.64-54.95,76.08-137.84,159.15-133.74,259.46,1.47,35.85.89,67.08-13.91,100.68-13.2,30-30.25,57.67-47.58,85.37-74.07,118.43-112.22,257.83-170.13,384.28" transform="translate(-6868.82 -5979.58)"/><path class="f" d="M7971,6623.21c-52.66,108.09-145.48,197.09-176,315.59-10.31,40-15.18,81.24-28.42,120.5-17.25,51.19-48.66,95.8-79.64,139.49-56,79-124.89,155.73-130.89,256.39-2.26,38.07-5.4,73.21-21.2,108.57-14.9,33.33-34,64.3-53.1,95.32-71.63,116.35-108.22,250.58-164.62,374.31" transform="translate(-6868.82 -5979.58)"/><path class="f" d="M7981.94,6627.84c-51.87,106.32-141.67,191.82-172.74,308.24-11.25,42.16-17.21,85.61-31.33,127-16.75,49.1-45.43,92.31-74.76,134.66-55.55,80.23-113,154.18-127.69,253-6.08,40.75-12.4,79.86-29.66,117.7-17,37.19-38.33,71.94-59.48,106.83-69,113.78-103.7,242.21-158.24,362.77" transform="translate(-6868.82 -5979.58)"/><path class="f" d="M7992.9,6632.47c-51.08,104.55-138.13,186.75-169.58,301.16-12.16,44.24-19.15,89.83-34.14,133.3-16.21,47-42.42,89-70.07,130-28.57,42.43-59.4,83.94-83.17,129.37-20,38.17-32.18,78.36-41.43,120.25-9.56,43.37-19,85.95-37.78,126.48-19,40.9-42.49,79.3-65.63,117.91-29.17,48.66-54.47,98.33-75,151.29-25.87,66.74-47.75,135-77.1,200.38" transform="translate(-6868.82 -5979.58)"/><path class="f" d="M8003.87,6637.1c-50.41,103.11-135.54,182.73-167.09,295.56-12.84,45.95-20.74,93.26-36.42,138.42-15.77,45.41-40.28,86.43-66.51,126.45s-54.36,79.26-76.28,121.95c-20.45,39.81-34.1,81.83-45.75,124.9-12.28,45.37-24.09,90.6-44.13,133.32-20.55,43.79-45.72,85.05-70.42,126.56-29.73,50-56.54,100.58-77.09,155.08-23.61,62.61-42.85,126.77-70.22,187.93" transform="translate(-6868.82 -5979.58)"/><path class="f" d="M8014.83,6641.73c-50,102.4-134.14,180.67-165.8,292.68-13.27,46.93-21.69,95.24-37.75,141.39-15.53,44.63-39.58,85.19-65,124.78-24.92,38.8-51.34,76.81-72.49,117.87-20.87,40.52-34.94,83.7-47.93,127.25-13.8,46.22-26.87,92.73-47.21,136.61-21,45.31-47.32,87.9-72.74,130.8-30,50.7-57.75,101.91-78.32,157.28-22.46,60.5-40.15,122.55-66.66,181.51" transform="translate(-6868.82 -5979.58)"/></g></g></svg>