<?xml version="1.0" encoding="utf-8"?>
<!-- Generator: Adobe Illustrator 25.4.1, SVG Export Plug-In . SVG Version: 6.00 Build 0)  -->
<svg version="1.1" id="Layer_1" xmlns="http://www.w3.org/2000/svg" xmlns:xlink="http://www.w3.org/1999/xlink" x="0px" y="0px"
	 viewBox="0 0 1920 6560" style="enable-background:new 0 0 1920 6560;" xml:space="preserve">
<style type="text/css">
	.st0{opacity:0.63;clip-path:url(#SVGID_00000168079844248773085390000015903214778211126145_);}
	.st1{fill:none;stroke:#FFF200;stroke-width:6;stroke-miterlimit:10;}
	.st2{opacity:0.35;clip-path:url(#SVGID_00000168079844248773085390000015903214778211126145_);}
	.st3{fill:none;stroke:#00AEEF;stroke-width:5;stroke-miterlimit:10;}
</style>
<g>
	<defs>
		
			<rect id="SVGID_1_" x="12.4" y="-0.5" transform="matrix(-1 3.707274e-03 -3.707274e-03 -1 1146.9482 6560.814)" width="1110" height="6564"/>
	</defs>
	<clipPath id="SVGID_00000090984686557164594590000013750535425816125846_">
		<use xlink:href="#SVGID_1_"  style="overflow:visible;"/>
	</clipPath>
	<g style="opacity:0.63;clip-path:url(#SVGID_00000090984686557164594590000013750535425816125846_);">
		<g>
			<g>
				<path class="st1" d="M359.2-2238.5c-20.8,346.5,6.2,693.4,16.3,1039.9c4.6,158.1,6.1,316.5-2.9,474.5
					c-8.2,144.9-26,289.1-48.3,432.5c-42,269.6-99.3,536.8-130.8,808c-15.7,135.2-20.5,271.3-38.4,406.2
					c-17,128.5-41.5,255.8-68,382.6c-52.4,250.6-112.2,500.3-136.9,755.7c-25.9,266.9-7.6,535.1,12.6,801.7
					c20.6,272.3,44,545.3,28.2,818.6c-15.7,270.3,10.3,539.2,32.1,808.3c11.2,138.4,20.5,277.1,20.9,416
					c0.5,152-11.4,303.1-32.2,453.6c-47.6,344-131.7,681.8-178.9,1025.9c-11.4,83.6-20.4,167.4-25.9,251.6"/>
			</g>
			<g>
				<path class="st1" d="M377.6-2232.9c-20.8,346.5,6.2,693.4,16.3,1039.9c4.6,158.1,6.1,316.5-2.9,474.5
					c-8.2,144.9-26,289.1-48.3,432.5c-42,269.6-99.3,536.8-130.8,808c-15.9,136.7-20.6,274.2-38.7,410.6
					c-16.6,124.9-40.7,248.7-67.3,371.8C53.4,1547.6-5.5,1789.3-29.4,2037.4c-26.1,271.3-7.1,544.3,11.7,815.4
					c19.2,277.2,43.5,556.1,27.1,834.1c-15.7,266.5,10,531.1,32.6,796.4C53.4,4619,62.7,4755,63.1,4891.2
					c0.5,152.1-11.4,303.2-32.2,453.8c-48.4,351.4-131.7,697-179.7,1048.5c-11.3,82.6-20.3,165.6-25.8,248.8"/>
			</g>
			<g>
				<path class="st1" d="M396.1-2227.2c-20.8,346.5,6.2,693.4,16.3,1039.9c4.6,158.1,6.1,316.5-2.9,474.5
					c-8.2,144.9-26,289.1-48.3,432.5c-42,269.6-99.3,536.8-130.8,808c-15.9,136.6-20.4,274.1-38.7,410.3
					c-15.9,118.4-39.4,235.5-66,351.9C73.4,1519.5,15.8,1747-6.8,1982c-27,280-7.2,562.7,9.8,842.7c17.5,288.4,41.7,579,24.8,868
					c-15.1,258.6,9.9,514.4,33.5,771.6c12,130.8,21.2,261.9,21.8,393.3c0.6,152.4-11.7,303.8-32.2,454.7
					C1.5,5676-81.3,6034.4-130.2,6398.2c-11.2,83-20.3,166.2-25.8,249.8"/>
			</g>
			<g>
				<path class="st1" d="M414.6-2221.5c-20.8,346.5,6.2,693.4,16.3,1039.9c4.6,158.1,6.1,316.5-2.9,474.5
					c-8.2,144.9-26,289.1-48.3,432.5c-42,269.6-99.3,536.8-130.8,808c-15.7,135.2-19.9,271.3-38.4,406.2
					c-15,109.4-37.6,217.4-64.1,324.5c-52.1,211-107.8,419.1-128.8,636.2c-28.4,292.4-7.9,588.7,7.2,881.3
					c15.7,304.6,39.4,611.8,21.5,916.7c-14.5,247.3,10,490.7,34.8,736.4c12.5,124.1,21.8,248.4,22.5,373.1
					c0.8,152.9-12.2,304.9-32.3,456.4c-50.5,380.2-132.8,755.3-182.9,1135.6c-11.1,84.4-20.3,169-26,253.9"/>
			</g>
			<g>
				<path class="st1" d="M433-2215.9c-20.8,346.5,6.2,693.4,16.3,1039.9c4.6,158.1,6.1,316.5-2.9,474.5
					c-8.2,144.9-26,289.1-48.3,432.5c-42,269.6-99.3,536.8-130.8,808c-15.4,132.8-19.2,266.6-37.9,399
					c-13.9,98.5-35.4,195.4-61.8,291.2c-23.2,84.3-49.2,167.8-70.2,252.6c-25.7,104-43.6,209.6-54,316.1
					c-30.2,307.7-9.1,620.6,3.9,928.7C61.1,3051.5,83.8,3379,64.8,3704c-7.3,124.6-6.8,249.3,2.4,373.8
					c7.9,106.7,21.9,212.8,34,319.1c13.2,115.9,22.6,232.1,23.4,348.8c1.1,153.6-12.7,306.4-32.4,458.6
					C40.6,5604-41.7,5999.2-92.9,6399c-11.1,86.5-20.5,173.3-26.2,260.4"/>
			</g>
			<g>
				<path class="st1" d="M451.5-2210.2c-20.8,346.5,6.2,693.4,16.3,1039.9c4.6,158.1,6.1,316.5-2.9,474.5
					c-8.2,144.9-26,289.1-48.3,432.5c-42,269.6-99.3,536.8-130.8,808c-15,129.6-18.2,260.5-37.3,389.6
					c-12.7,86.2-32.8,170.8-59.3,253.7c-22.2,69.5-47.5,137.9-67.1,208.2c-26.1,93.2-42.3,188.6-51.9,284.8
					c-14.3,143.6-14.9,288.3-13.6,432.5c1.6,183.4,7.7,366.7,13.9,550c11.7,347.8,32.8,698.3,12.7,1046
					c-6.8,118.6-6.9,237.4,3.1,355.9c8.1,96.4,22.6,191.9,35.1,287.8c13.9,106.7,23.4,213.8,24.4,321.4
					c1.4,154.4-13.3,308.1-32.5,461.2c-52.8,421.6-135.1,839-187.5,1260.6c-11.1,89.3-20.6,178.8-26.5,268.6"/>
			</g>
			<g>
				<path class="st1" d="M470-2204.5c-20.8,346.5,6.2,693.4,16.3,1039.9c4.6,158.1,6.1,316.5-2.9,474.5
					c-8.2,144.9-26,289.1-48.3,432.5c-42,269.6-99.3,536.8-130.8,808c-23.1,199.3-19,403.1-93.1,592.7
					c-21.1,53.9-45.7,106.2-63.9,161.2c-26.9,81.3-41,166-49.6,251c-15,148.3-15.2,298.1-14.6,447.1c0.8,197.7,5.9,395.3,11,592.9
					c9.6,372.4,29.3,747.7,7.7,1120c-6.5,112.1-7,224.3,3.8,336.1c8.2,85.4,23.3,169.8,36.3,254.6c38.8,252.8,23.6,503.1-7.1,756.2
					C80.7,5507-1.7,5947.9-55.3,6392.8c-11.1,92.4-20.8,185-26.8,277.9"/>
			</g>
			<g>
				<path class="st1" d="M488.5-2198.9c-20.8,346.5,6.2,693.4,16.3,1039.9c4.6,158.1,6.1,316.5-2.9,474.5
					c-8.2,144.9-26,289.1-48.3,432.5c-42,269.6-99.3,536.8-130.8,808c-14.2,122.3-15.6,246.4-35.8,367.8
					c-10,59.9-25.5,118.7-53.7,172.7c-19.9,38-44.1,73.5-60.7,113.3c-28.5,68.3-39.7,143.1-47.2,216.3
					c-15.9,153.2-15.6,308.3-15.7,462.2c-0.1,212.3,3.9,424.5,8,636.7c4.2,221.3,9,442.7,10.8,664.1c1.4,177.2,2,354.8-8.3,531.7
					c-6.1,105.2-7.3,210.9,4.5,315.8c8.3,74.3,24.1,147.3,37.6,220.8c44.5,242.3,22.5,486.1-6.1,729.2
					C101,5455.2,18.3,5920.1-36.5,6388.8c-11.2,95.6-21,191.4-27.2,287.5"/>
			</g>
			<g>
				<path class="st1" d="M506.9-2193.2c-20.8,346.5,6.2,693.4,16.3,1039.9c4.6,158.1,6.1,316.5-2.9,474.5
					c-8.2,144.9-26,289.1-48.3,432.5c-42,269.6-99.3,536.8-130.8,808c-13.8,118.5-14,239.5-35,357.1c-8.3,46.3-20.1,95.5-51,132.4
					c-19,22.7-42.4,40.2-57.5,66.1c-31.3,53.8-38.5,121.7-44.9,182.2c-16.7,157.9-16,318.2-16.7,476.9c-1,226.6,2.1,453.2,5.1,679.8
					c3.2,236.8,6.9,473.5,7.7,710.3c0.6,186.5,1,373.5-10.2,559.8c-5.9,98.5-7.7,197.9,5.3,295.9c8.4,63.5,24.7,125.1,38.8,187.5
					c51.9,230.5,21.4,470.9-5.1,702.7c-56.3,492-139.3,980.6-195.3,1472.7c-11.2,98.8-21.2,197.7-27.5,296.9"/>
			</g>
			<g>
				<path class="st1" d="M525.4-2187.5c-20.8,346.5,6.2,693.4,16.3,1039.9c4.6,158.1,6.1,316.5-2.9,474.5
					c-8.2,144.9-26,289.1-48.3,432.5c-42,269.6-99.3,536.8-130.8,808c-13.4,115.1-12.2,233.7-34.4,347.5
					c-6.2,31.9-14.7,79.4-48.4,94.6c-18.6,8.4-38.9,5.9-54.4,21.3c-35.2,34.9-37.9,105.3-42.8,150.6
					c-17.6,162.3-16.3,327.4-17.6,490.3c-1.8,240.2,0.3,480.4,2.3,720.6c2.1,251.4,4.8,502.8,4.7,754.2
					c-0.1,195.1-0.2,390.7-12,585.5c-5.6,92.2-8.5,186.1,5.9,277.7c8.4,53.4,25.3,104,39.9,155.8c18.9,67.1,27.1,135.7,28.7,205.3
					c3.5,157.6-15.4,316.1-32.9,472.4c-57.4,514.1-140.6,1025-197.7,1539.2c-11.3,101.6-21.4,203.3-27.9,305.2"/>
			</g>
			<g>
				<path class="st1" d="M543.9-2181.9c-20.8,346.5,6.2,693.4,16.3,1039.9c4.6,158.1,6.1,316.5-2.9,474.5
					c-8.2,144.9-26,289.1-48.3,432.5c-42,269.6-99.3,536.8-130.8,808c-7.7,66.7-13.8,133.6-18.2,200.6c-3.1,46.6-6,93.7-15.7,139.5
					c-4.7,22.2-13.6,70-46.1,60.7c-16.6-4.7-33-25-51.6-19.5c-12.8,3.8-19.1,19.3-23.2,30.6c-10.7,29.3-14.3,61.6-17.7,92.4
					c-18.4,165.9-16.6,335.1-18.4,501.7c-2.6,252.5-1.4,504.9-0.2,757.4c1.2,264.7,2.9,529.4,2,794c-0.7,202.3-1.2,405.2-13.5,607.2
					c-5.3,86.8-9.5,176.3,6.5,262.3c8.3,44.4,25.7,84.8,41,127.1c21,58.1,28,119,29.6,180.5c4,158.2-15.8,317.7-32.9,474.6
					C161.3,5316.2,77.9,5847.3,19.8,6381.4c-11.3,103.8-21.5,207.7-28.1,312"/>
			</g>
			<g>
				<path class="st1" d="M562.3-2176.2c-20.8,346.5,6.2,693.4,16.3,1039.9c4.6,158.1,6.1,316.5-2.9,474.5
					c-8.2,144.9-26,289.1-48.3,432.5c-42,269.6-99.3,536.8-130.8,808c-7.7,66.7-13.8,133.6-18.2,200.6c-3,44.9-5.3,90.9-15.4,134.9
					c-5.7,25.1-17.5,59.7-44.2,32.6c-14.2-14.4-28.3-49.4-49.2-54.7c-33.6-8.6-37.5,84.6-39.4,100.9
					c-19,168.6-16.9,340.8-18.9,510.2c-3.2,262.9-2.7,525.8-2.3,788.6c0.4,276.1,1.3,552.2-0.4,828.3c-1.3,207.7-2,415.8-14.6,623.2
					c-5,82.4-10.9,169.4,6.9,250.8c8.1,37.3,25.9,68.3,41.9,102.3c23.4,49.9,28.8,105.4,30.3,159.9c4.5,158.6-16.1,319-33,476.3
					c-59.3,550.9-142.8,1099-201.8,1650c-11.3,105.3-21.6,210.7-28.3,316.3"/>
			</g>
			<g>
				<path class="st1" d="M580.8-2170.5C560-1824,587-1477.1,597.1-1130.7c4.6,158.1,6.1,316.5-2.9,474.5
					c-8.2,144.9-26,289.1-48.3,432.5c-42,269.6-99.3,536.8-130.8,808c-7.7,66.7-13.8,133.6-18.2,200.6
					c-2.9,44.6-4.9,90.5-15.3,134.1c-2.2,9.4-6.5,34.1-19.9,34.7c-10.3,0.5-18.6-15.8-22.9-22.9c-14.6-24.4-24.3-64.8-47.3-82.7
					c-30.7-23.8-37,74-38.4,86.2c-19.2,170.2-17,344-19.3,514.9c-3.6,270.9-3.8,541.8-4,812.7c-0.2,285.1,0,570.2-2.2,855.2
					c-1.6,210.6-2.4,421.7-15.2,631.9c-4.8,79.5-12.4,166,7.2,244.3c8.1,32.2,25.8,55.1,42.6,82.8c26,42.8,29.4,95.7,30.9,144.5
					c4.8,158.9-16.2,319.8-33,477.4C200,5261.9,116.7,5823.1,56.9,6387c-11.2,105.7-21.6,211.6-28.3,317.7"/>
			</g>
			<g>
				<path class="st1" d="M599.3-2164.9c-20.8,346.5,6.2,693.4,16.3,1039.9c4.6,158.1,6.1,316.5-2.9,474.5
					c-8.2,144.9-26,289.1-48.3,432.5c-42,269.6-99.3,536.8-130.8,808c-7.7,66.7-13.8,133.6-18.2,200.6c-3,45.8-4.8,93.2-15.6,138
					c-2.1,8.9-6.3,33-19.7,31c-10.7-1.6-18.6-23.1-22.3-31.1c-14.8-31.6-22.7-75.2-46-101.9c-29.1-33.3-36.7,68.7-38,80.3
					c-19,170.2-16.9,344-19.3,515c-3.9,275.9-4.4,551.9-5,827.9c-0.7,291.1-0.9,582.2-3.4,873.3c-1.8,210.5-2.8,421.4-15.1,631.6
					c-4.6,78.6-14,166.7,7.2,244c8.1,29.5,25.4,46.2,43.1,69.6c28.4,37.5,29.8,90.8,31.2,135.7c4.9,159-16.3,319.9-33.1,477.6
					C218.6,5253.6,135.8,5823,75.3,6395c-11.1,105-21.5,210-28.2,315.4"/>
			</g>
			<g>
				<path class="st1" d="M617.7-2159.2c-20.8,348.1,6.1,696.9,15.8,1045c4.4,158,6,316.2-2.8,474.1c-8.1,145.2-26,289.7-48.4,433.4
					c-41.7,267.1-98.9,531.8-130.1,800.6c-7.8,67.3-13.9,134.8-18.3,202.4c-3,45-4.8,91.6-15.4,135.7c-2.2,9.1-6.3,33-19.7,32
					c-10.5-0.8-18.6-20.5-22.5-28.1c-14.8-28.9-23.3-71.1-46.5-94.6c-29.6-29.9-36.8,70.1-38.1,81.7
					c-19.1,170.4-16.9,344.4-19.3,515.6c-3.8,274.1-4.1,548.2-4.6,822.3c-0.5,288.8-0.5,577.6-2.9,866.5
					c-1.8,210.9-2.5,422.4-15.2,633c-4.8,78.7-13.3,165.9,7.2,243.3c8.1,30.4,25.6,49.6,42.9,74.6c27.4,39.5,29.7,92.4,31.1,138.7
					c4.9,159-16.3,319.9-33.1,477.6c-60.5,569-143.6,1135.4-203.8,1704.4c-11.2,105.5-21.5,211.1-28.3,316.9"/>
			</g>
			<g>
				<path class="st1" d="M636.2-2153.5c-21,353.4,5.3,707.7,14.4,1061.1c4.1,159.1,5.7,318.6-3.2,477.6
					c-8,144.4-25.7,288.2-48.2,431c-41.2,261.2-98,519.8-128.5,782.7c-7.8,67.5-14,135.2-18.4,203.1c-2.9,44.6-5.1,90.4-15.3,134.1
					c-2.4,10.1-6.7,35.4-20.1,37.8c-10.1,1.8-18.3-11-23.2-17.8c-14.4-20-25.7-58.9-48.1-71.3c-31.8-17.6-37.2,78.3-38.8,91.7
					c-19.1,169.6-16.9,342.9-19.1,513.3c-3.5,267.6-3.3,535.3-3.3,803c0,281.4,0.5,562.8-1.4,844.3c-1.5,209.6-2.3,419.7-15,629.1
					c-4.9,80.6-11.7,167,7.1,246.5c8.1,34.2,25.9,60.5,42.3,90.7c24.9,45.8,29.1,99.5,30.7,150.6c4.7,158.8-16.2,319.5-33,477
					c-59.8,558.7-143.2,1114.6-202.6,1673.3c-11.2,105.7-21.6,211.5-28.3,317.5"/>
			</g>
			<g>
				<path class="st1" d="M654.7-2147.9c-21.4,361.5,4,724.4,12.2,1086c3.7,161.7,5.2,323.6-3.8,485.2
					c-7.9,142.4-25.2,284.3-47.7,425.1C575,101.1,518.8,351.2,489.1,605.6c-7.8,67.1-13.9,134.5-18.3,201.9
					c-3,45.6-5.6,91.9-15.5,136.6c-4.9,22.3-15.2,64.8-45,44.3c-14.9-10.3-30.3-39.3-50.3-39.9c-34.8-1-37.8,90.2-40,109.9
					c-18.8,167.5-16.8,338.5-18.7,506.9c-3,258.5-2.2,517-1.4,775.5c0.7,271.3,2,542.6,0.6,813.9c-1,205.6-1.7,411.6-14.1,616.9
					c-5.1,84.2-10.2,172.1,6.7,255.4c8.2,40.2,25.9,75.3,41.5,112.7c22.3,53.4,28.5,111,30,168.5c4.3,158.5-16,318.5-33,475.6
					c-58.9,543.9-142.4,1084.8-201,1628.7c-11.3,104.7-21.6,209.6-28.2,314.7"/>
			</g>
			<g>
				<path class="st1" d="M673.2-2142.2c-22.1,372,2.2,745.7,9.3,1117.9c5.8,306.3-2.4,609.5-51.7,912.3
					C591.4,130.3,536,369.8,507.4,613.9c-7.8,66.3-13.7,132.8-18.1,199.4c-3.1,47.6-6.4,95.7-15.9,142.6
					c-5.1,25.2-13.4,73.8-47.1,75.2c-18,0.7-35.5-12.1-52.8-2c-12.9,7.6-19.2,24.5-23.7,37.8c-10.4,31-14.4,64.4-18,96.8
					c-18.1,164.4-16.5,331.9-18,497c-2.3,247.2-0.7,494.4,0.9,741.6c1.6,259,3.7,517.9,3.1,776.9c-0.5,199.3-0.8,399.1-12.9,598.2
					c-5.4,89.1-9,180.4,6.3,268.8c8.3,48.2,25.6,93.1,40.5,139.4c20,62,27.6,126.1,29.2,191.1c3.8,157.9-15.6,317-32.9,473.7
					c-58,525.5-141.3,1047.9-199,1573.5c-11.3,102.9-21.5,205.9-28,309.2"/>
			</g>
			<g>
				<path class="st1" d="M691.6-2136.5c-41,689.4,67.9,1384.5-45.9,2069.7c-38.3,230.4-92.8,457.8-120.2,690
					c-13.6,115-12.9,232.8-34.2,346.7c-7.2,38.4-16.9,85.4-49.5,111c-18.7,14.6-40.8,21.2-55.8,40.8
					c-33.5,44.1-38.1,111.7-43.7,164.2c-17.2,160.4-16.2,323.4-17.2,484.6c-1.5,234.3,1,468.6,3.5,702.9c2.6,245,5.7,490,6,735.1
					c0.2,191.4,0.3,383.3-11.2,574.5c-5.7,94.9-8.1,191.1,5.6,285.6c8.4,57.7,25.1,113.2,39.4,169.6
					c18.2,71.3,26.7,143.7,28.2,217.3c3.2,157.3-15.2,315.2-32.8,471.2C306.9,5431.2,223.7,5932.4,167.2,6437
					c-11.3,100.4-21.3,200.9-27.7,301.7"/>
			</g>
			<g>
				<path class="st1" d="M710.1-2130.9c-23.8,397.8-2.2,797.7,2.3,1195.7c3.4,307.1-0.4,613.7-52.1,917.2
					c-37.1,217.5-90.6,431.8-116.7,651.2c-13.9,117.1-14.4,236.2-34.5,352.5c-9.1,52.4-22.6,105.2-52.2,150.1
					c-19.4,29.4-43.2,55.1-58.9,86.9c-29.9,60.5-39,130.9-45.9,197.2c-16.3,155.9-15.8,313.9-16.2,470.4
					c-0.6,220.3,2.9,440.6,6.4,660.9c3.6,230,7.8,459.9,9.1,689.9c1,182.5,1.6,365.3-9.4,547.5c-6.1,101.4-7.5,203.6,4.9,304.6
					c8.4,68.2,24.4,134.9,38.2,202.1c48.4,235.9,21.9,477.4-5.5,714.3c-55.8,481.7-138.7,959.9-194.1,1441.7
					c-11.2,97.4-21.1,194.9-27.4,292.8"/>
			</g>
			<g>
				<path class="st1" d="M728.6-2125.2c-24.8,411.9-4.6,826-1.5,1238.2c2.3,307.5,0.9,616.1-52.4,919.8
					C638.9,237,586.4,437.6,561.6,643.7c-22,183.4-11.9,378-89.8,549.7c-20.4,45.1-44.8,88.1-62.1,134.6
					c-27.7,74.2-40.2,153.2-48.3,231.7c-15.5,151-15.4,303.8-15.2,455.4c0.3,205.8,4.8,411.5,9.3,617.2
					c8.5,386.5,27.3,775.8,4.8,1162.1c-6.3,108.3-7.1,216.8,4.2,324.8c8.3,79.2,23.7,157.3,37,235.8c41.8,247.1,23,493.5-6.5,741.2
					c-54.6,458.1-137.2,912.3-191.5,1370.5c-11.2,94.2-20.9,188.6-27,283.2"/>
			</g>
			<g>
				<path class="st1" d="M747-2119.5c-25.9,425.9-7,854.3-5.4,1280.7c1.2,307.7,2.4,618.6-52.6,922.5
					c-34.5,190.8-86,377.6-109.4,570.5c-14.7,121.4-16.8,244.1-35.2,365.1c-12,79-31.1,156.4-57.8,231.7
					c-21.6,60.9-46.5,120.5-65.4,182.3c-26.5,86.7-41.6,176.2-50.6,266.3c-14.7,146.2-15.1,293.7-14.2,440.5
					c1.2,191.2,6.7,382.4,12.3,573.6c10.6,361.3,30.8,725.4,9.9,1086.7c-6.7,115-6.9,230.2,3.5,345c8.2,90.3,23,179.8,35.8,269.5
					c14.4,101.3,23.9,203,25,305.3c1.6,154.9-13.6,309.2-32.5,462.7C357,5617.2,274.6,6047.6,221.6,6482
					c-11.1,91-20.7,182.2-26.7,273.6"/>
			</g>
			<g>
				<path class="st1" d="M765.5-2113.9c-26.8,439.5-9.3,881.4-9,1321.4c0.2,307.9,4.1,621.1-52.8,925
					c-33.3,178-83.9,351.5-105.9,531.7c-15.1,123.4-17.7,247.8-35.5,370.9c-13.3,91.8-34,182-60.4,270.8
					c-22.6,76.2-48.2,151.5-68.5,228.3c-25.9,98.1-42.9,198.2-52.9,299.2c-14,141.6-14.8,284.2-13.2,426.3
					c2,177.3,8.5,354.5,15.2,531.6c12.6,337.2,34.7,677.3,14.8,1014.6c-7.1,121.4-6.8,242.9,2.8,364.1c8,101.1,22.3,201.4,34.6,302
					c13.6,110.9,23,222.1,23.9,333.9c1.2,154-13,307.3-32.4,460c-52.3,411.7-134.5,818.9-186.4,1230.6
					c-11.1,88-20.5,176.2-26.4,264.7"/>
			</g>
			<g>
				<path class="st1" d="M784-2108.2c-27.7,451.8-11.5,906.2-12.4,1358.5c-0.6,307.9,5.8,623.6-53,927.3
					C686.4,343.8,636.7,505,615.9,673.5c-15.4,124.9-18.3,250.9-35.7,375.7c-14.4,103.5-36.5,205.6-62.9,306.7
					c-52,199-106.3,394.4-126.3,599.9c-29.3,300.6-8.5,605.8,5.4,906.7c14.6,315.4,37.8,633.5,19.3,949.1
					c-14.1,239.9,10.1,475,35.6,713.1c12.8,119.7,22.3,239.6,23,360.1c0.9,153.3-12.5,305.7-32.3,457.6
					c-51.1,390.7-133.4,776.6-184.1,1167.4c-11.1,85.5-20.4,171.2-26.1,257.2"/>
			</g>
			<g>
				<path class="st1" d="M802.4-2102.5c-28.4,462.4-13.3,927.5-15.2,1390.5c-0.8,198.1-2.1,396.6-13.7,594.4
					C767-5.3,756.1,106.9,734,217.3c-31.2,155.8-80.2,306.1-99.9,464.4c-15.7,126-18.8,253.1-35.9,379.1
					c-15.4,113.7-38.4,226-65,337.5C481,1618.1,424.4,1835.4,402.6,2061c-27.7,286.5-7.6,576.3,8.4,862.9
					c16.5,296.8,40.5,596.1,23.1,893.4c-14.8,252.7,10,502,34.1,753.2c12.3,127.3,21.6,254.8,22.2,382.7
					c0.7,152.7-12,304.3-32.2,455.6c-50,372.4-132.5,739.7-182,1112.2c-11.1,83.6-20.3,167.5-25.9,251.7"/>
			</g>
			<g>
				<path class="st1" d="M820.9-2096.9c-28.8,470.7-14.6,944.1-17.5,1415.3c-1.2,200.6-2.7,401.6-14.3,602
					c-6.4,110.3-16.7,220.7-39,329c-14,68.3-33.7,135.1-51.5,202.5c-20.6,77.8-36.1,156.6-46.1,236.5
					c-15.9,126.5-19.1,254.1-36,380.5c-16.2,121.7-40,242.1-66.6,361.8c-52.5,236.2-110.7,470.7-134,712.2
					c-26.6,275.6-7.1,553.5,10.7,829c18.3,282.8,42.6,567.5,26,850.9c-15.4,262.6,9.9,522.8,33,784.1
					c11.8,133.2,21,266.7,21.5,400.5c0.6,152.2-11.6,303.5-32.2,454.2C426,5819.5,343,6171.6,294.5,6529.4
					c-11.2,82.7-20.3,165.7-25.8,248.9"/>
			</g>
			<g>
				<path class="st1" d="M839.4-2091.2c-13.6,223.6-14.8,447.9-16.2,671.9c-1.5,253.2-0.9,506.4-2.8,759.5
					c-1.4,201.8-3,404-14.7,605.5c-6.3,109.5-16.3,219.2-38.8,326.7c-13.6,64.9-33.1,128.1-50.6,192
					C695.7,539.7,680.7,616,671,693.5c-15.8,126.2-19.2,253.4-35.9,379.5c-16.8,126.9-41.1,252.7-67.7,377.8
					c-52.6,247.2-111.9,493.3-136.2,745.5c-26,268.7-7.2,539,12.2,807.5c19.8,274.2,44,549.7,27.8,824.8
					c-15.9,268.7,10.1,535.9,32.3,803.4c11.4,137.2,20.6,274.7,21.1,412.4c0.5,152-11.4,303.1-32.2,453.6
					c-48,347.5-131.7,688.9-179.3,1036.5c-11.3,82.9-20.3,166.1-25.8,249.5"/>
			</g>
			<g>
				<path class="st1" d="M857.8-2085.5c-13.6,223.6-14.7,448-16.2,671.9c-1.6,254.4-1.2,508.9-3.1,763.3
					c-1.5,201.8-3,404-14.7,605.5c-6.3,109.5-16.1,219.4-38.8,327c-13.5,63.8-32.8,126-50.3,188.8c-20.7,74.6-35.6,150.3-45.2,227.2
					c-15.7,125.1-19.1,251.2-35.7,376.2c-17.1,128.7-41.6,256.3-68.1,383.4c-52.4,251.2-112.2,501.6-137.1,757.5
					c-25.9,266.6-7.7,534.6,12.6,801c20.8,272.2,44.1,544.9,28.2,818c-15.7,270.5,10.4,539.6,32.1,808.9
					c11.2,138.6,20.4,277.5,20.9,416.6c0.5,152-11.4,303.2-32.2,453.7c-47.4,343.3-131.8,680.4-178.8,1023.8
					c-11.5,83.9-20.4,168-25.9,252.5"/>
			</g>
			<g>
				<path class="st1" d="M876.3-2079.9c-13.6,223.1-14.8,446.9-16,670.3c-1.4,251.1-0.5,502.3-2.2,753.4
					c-1.3,201.3-2.8,403-14.5,604.1c-6.4,109.8-16.5,219.7-38.9,327.5c-13.8,66.6-33.4,131.7-51.1,197.3
					c-20.6,76.5-35.9,154.1-45.7,232.7C692.3,830,688.8,955.6,672.3,1080c-17.1,128.7-41.6,256.3-68.1,383.4
					C551.9,1714.6,492,1965,467.2,2220.9c-25.9,266.6-7.7,534.6,12.6,801c20.8,272.2,44.1,544.9,28.2,818
					c-15.7,270.5,10.4,539.6,32.1,808.9c11.2,138.6,20.4,277.5,20.9,416.6c0.5,152-11.4,303.2-32.2,453.7
					c-47.4,343.3-131.8,680.4-178.8,1023.8c-11.5,83.9-20.4,168-25.9,252.5"/>
			</g>
			<g>
				<path class="st1" d="M894.8-2074.2c-28.6,466.4-13.9,935.5-16.3,1402.5c-1,199.4-2.4,399.1-14,598.2
					c-6.5,111.3-17.1,222.5-39.3,331.9c-30.8,151.9-79.5,297.9-98.8,452.3c-15.6,124.7-19.1,250.3-35.6,374.9
					c-17.1,128.7-41.6,256.3-68.1,383.4c-52.4,251.2-112.2,501.6-137.1,757.5c-25.9,266.6-7.7,534.6,12.6,801
					c20.8,272.2,44.1,544.9,28.2,818c-15.7,270.5,10.4,539.6,32.1,808.9c11.2,138.6,20.4,277.5,20.9,416.6
					c0.5,152-11.4,303.2-32.2,453.7c-47.4,343.3-131.8,680.4-178.8,1023.8c-11.5,83.9-20.4,168-25.9,252.5"/>
			</g>
			<g>
				<path class="st1" d="M913.3-2068.5c-28,456.8-12.3,916.2-13.7,1373.5c-0.6,196.2-1.7,392.8-13.2,588.7
					c-6.6,113.9-18,227.5-40,339.5C814.7,394.6,765.4,550.7,745,714.5c-15.6,125.3-19.2,251.6-35.8,376.9
					c-17.1,128.7-41.6,256.3-68.1,383.4c-52.4,251.2-112.2,501.6-137.1,757.5c-25.9,266.6-7.7,534.6,12.6,801
					c20.8,272.2,44.1,544.9,28.2,818c-15.7,270.5,10.4,539.6,32.1,808.9c11.2,138.6,20.4,277.5,20.9,416.6
					c0.5,152-11.4,303.2-32.2,453.7C518.4,5873.8,434,6210.8,387,6554.2c-11.5,83.9-20.4,168-25.9,252.5"/>
			</g>
			<g>
				<path class="st1" d="M931.7-2062.9c-27.2,445.1-10.3,892.8-10.6,1338.4c-0.2,307.9,4.8,622.2-52.9,926.1
					c-32.8,172.6-83,340.5-104.5,515.3c-15.6,126.4-19.3,253.8-36.1,380.1c-17.1,128.7-41.6,256.3-68.1,383.4
					c-52.4,251.2-112.2,501.6-137.1,757.5c-25.9,266.6-7.7,534.6,12.6,801c20.8,272.2,44.1,544.9,28.2,818
					c-15.7,270.5,10.4,539.6,32.1,808.9c11.2,138.6,20.4,277.5,20.9,416.6c0.5,152-11.4,303.2-32.2,453.7
					c-47.4,343.3-131.8,680.4-178.8,1023.8c-11.5,83.9-20.4,168-25.9,252.5"/>
			</g>
			<g>
				<path class="st1" d="M950.2-2057.2c-26.3,432.1-8.1,866.6-7,1299.1c0.7,307.8,3.1,619.7-52.7,923.6
					c-34,185-85.1,365.8-107.8,553c-15.6,127.8-19.5,256.6-36.4,384.2c-17.1,128.7-41.6,256.3-68.1,383.4
					c-52.4,251.2-112.2,501.6-137.1,757.5c-25.9,266.6-7.7,534.6,12.6,801c20.8,272.2,44.1,544.9,28.2,818
					c-15.7,270.5,10.4,539.6,32.1,808.9c11.2,138.6,20.4,277.5,20.9,416.6c0.5,152-11.4,303.2-32.2,453.7
					c-47.4,343.3-131.8,680.4-178.8,1023.8c-11.5,83.9-20.4,168-25.9,252.5"/>
			</g>
			<g>
				<path class="st1" d="M968.7-2051.5c-25.3,418.2-5.7,838.6-3.2,1257.2c1.8,307.6,1.6,617.2-52.5,921
					c-35.2,198.2-87.3,392.6-111.4,592.8c-15.6,129.4-19.7,259.7-36.9,388.9c-17.1,128.7-41.6,256.3-68.1,383.4
					c-52.4,251.2-112.2,501.6-137.1,757.5c-25.9,266.6-7.7,534.6,12.6,801c20.8,272.2,44.1,544.9,28.2,818
					c-15.7,270.5,10.4,539.6,32.1,808.9c11.2,138.6,20.4,277.5,20.9,416.6c0.5,152-11.4,303.2-32.2,453.7
					c-47.4,343.3-131.8,680.4-178.8,1023.8c-11.5,83.9-20.4,168-25.9,252.5"/>
			</g>
			<g>
				<path class="st1" d="M987.1-2045.9c-24.3,404-3.2,810.2,0.6,1214.5c2.9,307.3,0.2,614.7-52.2,918.3
					C899,298.6,845.9,506.8,820.4,720.4c-15.6,131-19.9,262.9-37.3,393.7c-17.1,128.7-41.6,256.3-68.1,383.4
					C662.7,1748.6,602.9,1999,578,2254.9c-25.9,266.6-7.7,534.6,12.6,801c20.8,272.2,44.1,544.9,28.2,818
					c-15.7,270.5,10.4,539.6,32.1,808.9c11.2,138.6,20.4,277.5,20.9,416.6c0.5,152-11.4,303.2-32.2,453.7
					c-47.4,343.3-131.8,680.4-178.8,1023.8c-11.5,83.9-20.4,168-25.9,252.5"/>
			</g>
			<g>
				<path class="st1" d="M1005.6-2040.2C964.1-1345.1,1074-642.2,958,48.4c-37.8,224.8-91.8,446.4-118.7,673.1
					c-15.7,132.5-20.2,265.9-37.7,398.3c-17.1,128.7-41.6,256.3-68.1,383.4c-52.4,251.2-112.2,501.6-137.1,757.5
					c-25.9,266.6-7.7,534.6,12.6,801c20.8,272.2,44.1,544.9,28.2,818c-15.7,270.5,10.4,539.6,32.1,808.9
					c11.2,138.6,20.4,277.5,20.9,416.6c0.5,152-11.4,303.2-32.2,453.7c-47.4,343.3-131.8,680.4-178.8,1023.8
					c-11.5,83.9-20.4,168-25.9,252.5"/>
			</g>
			<g>
				<path class="st1" d="M1024.1-2034.5c-22.4,377.3,1.3,756.4,7.9,1133.8c5.3,306.5-2,610.3-51.8,913.3
					c-38.9,237.2-93.9,471.5-122,710.4c-15.7,133.9-20.3,268.6-38.1,402.3c-17.1,128.7-41.6,256.3-68.1,383.4
					c-52.4,251.2-112.2,501.6-137.1,757.5c-25.9,266.6-7.7,534.6,12.6,801c20.8,272.2,44.1,544.9,28.2,818
					c-15.7,270.5,10.4,539.6,32.1,808.9c11.2,138.6,20.4,277.5,20.9,416.6c0.5,152-11.4,303.2-32.2,453.7
					c-47.4,343.3-131.8,680.4-178.8,1023.8c-11.5,83.9-20.4,168-25.9,252.5"/>
			</g>
			<g>
				<path class="st1" d="M1042.5-2028.9c-21.7,365.9,3.3,733.3,11,1099.4c3.4,163.1,4.8,326.6-4.2,489.6
					c-7.9,141.3-24.9,281.9-47.3,421.5c-40,248.3-95.8,493.9-125,744c-15.8,134.9-20.5,270.7-38.3,405.4
					c-17.1,128.7-41.6,256.3-68.1,383.4c-52.4,251.2-112.2,501.6-137.1,757.5c-25.9,266.6-7.7,534.6,12.6,801
					c20.8,272.2,44.1,544.9,28.2,818c-15.7,270.5,10.4,539.6,32.1,808.9c11.2,138.6,20.4,277.5,20.9,416.6
					c0.5,152-11.4,303.2-32.2,453.7c-47.4,343.3-131.8,680.4-178.8,1023.8c-11.5,83.9-20.4,168-25.9,252.5"/>
			</g>
			<g>
				<path class="st1" d="M1061-2023.2c-21.1,356.7,4.8,714.5,13.5,1071.2c3.9,160.1,5.5,320.5-3.4,480.5
					c-8,143.7-25.5,286.7-48,428.8C982.2,215,925.7,470.1,895.5,729.5C879.8,865,875,1001.4,857,1136.7
					c-17.1,128.7-41.6,256.3-68.1,383.4c-52.4,251.2-112.2,501.6-137.1,757.5c-25.9,266.6-7.7,534.6,12.6,801
					c20.8,272.2,44.1,544.9,28.2,818c-15.7,270.5,10.4,539.6,32.1,808.9c11.2,138.6,20.4,277.5,20.9,416.6
					c0.5,152-11.4,303.2-32.2,453.7c-47.4,343.3-131.8,680.4-178.8,1023.8c-11.5,83.9-20.4,168-25.9,252.5"/>
			</g>
			<g>
				<path class="st1" d="M1079.5-2017.5c-20.8,350.1,5.8,700.9,15.3,1051c4.3,158.3,5.9,316.9-2.9,475.1
					c-8.1,145-25.9,289.4-48.4,432.8C1002,206.2,944.9,468.5,914,735c-15.7,135.6-20.6,272.1-38.5,407.4
					c-17.1,128.7-41.6,256.3-68.1,383.4c-52.4,251.2-112.2,501.6-137.1,757.5c-25.9,266.6-7.7,534.6,12.6,801
					c20.8,272.2,44.1,544.9,28.2,818c-15.7,270.5,10.4,539.6,32.1,808.9c11.2,138.6,20.4,277.5,20.9,416.6
					c0.5,152-11.4,303.2-32.2,453.7c-47.4,343.3-131.8,680.4-178.8,1023.8c-11.5,83.9-20.4,168-25.9,252.5"/>
			</g>
			<g>
				<path class="st1" d="M1097.9-2011.9c-20.8,346.7,6.2,693.9,16.2,1040.5c4.6,158,6.1,316.3-2.8,474.2
					c-8.2,145.1-26,289.4-48.4,432.9c-42,269.2-99.3,536-130.7,806.8c-15.7,135-20.5,270.8-38.4,405.5
					c-17.1,128.7-41.6,256.3-68.1,383.4c-52.4,251.2-112.2,501.6-137.1,757.5c-25.9,266.6-7.7,534.6,12.6,801
					c20.8,272.2,44.1,544.9,28.2,818c-15.7,270.5,10.4,539.6,32.1,808.9c11.2,138.6,20.4,277.5,20.9,416.6
					c0.5,152-11.4,303.2-32.2,453.7c-47.4,343.3-131.8,680.4-178.8,1023.8c-11.5,83.9-20.4,168-25.9,252.5"/>
			</g>
		</g>
	</g>
	<g style="opacity:0.35;clip-path:url(#SVGID_00000090984686557164594590000013750535425816125846_);">
		<g>
			<g>
				<path class="st3" d="M183.9,6692.9c56.3-491.4,113.9-982.7,170.6-1474c48.8-423.5,89.7-848.4,162.2-1268.7
					c34.1-197.4,70.4-394.6,96.1-593.3c26.2-202.7,39.5-406.6,51.8-610.5c12.7-210.9,24.3-422.1,48.7-632.1
					c25.3-218.7,60.9-436,95-653.5c36.2-231,69.3-462.3,90.6-695.2c22.4-245.7,35.9-492.1,58.2-737.7c6-66.2,12.8-132.2,20.3-198.2"
					/>
			</g>
			<g>
				<path class="st3" d="M164.4,6682.1c54.6-491.4,120.5-981.5,174.4-1473c46.5-424.2,85.9-849,158.4-1269.7
					c34.1-197.4,70.4-394.6,96.1-593.3c26.2-202.7,39.5-406.6,51.8-610.5c12.7-210.9,24.3-422.1,48.7-632.1
					c25.3-218.7,60.9-436,95-653.5c36.2-231,69.3-462.3,90.6-695.2c22.4-245.7,35.9-492.1,58.2-737.7c6-66.2,12.8-132.2,20.3-198.2"
					/>
			</g>
			<g>
				<path class="st3" d="M144.9,6671.2c55.1-491.1,132.7-979.2,181.7-1471c42.3-425.3,78.4-850.2,151.1-1271.7
					c34.1-197.4,70.4-394.6,96.1-593.3c26.2-202.7,39.5-406.6,51.8-610.5c12.7-210.9,24.3-422.1,48.7-632.1
					c25.3-218.7,60.9-436,95-653.5c36.2-231,69.3-462.3,90.6-695.2C882.2,498.1,895.7,251.7,918,6.1c6-66.2,12.8-132.2,20.3-198.2"
					/>
			</g>
			<g>
				<path class="st3" d="M125.4,6660.3c29.5-255.4,70.8-509.2,108.2-763.5c34.4-234.3,62.3-469.1,82.8-705
					c19.1-219,34.4-438.3,56.1-657c20.5-207,50.3-412.2,85.7-617.2c34.1-197.4,70.4-394.6,96.1-593.3
					c26.2-202.7,39.5-406.6,51.8-610.5c12.7-210.9,24.3-422.1,48.7-632.1c25.3-218.7,60.9-436,95-653.5
					c36.2-231,69.3-462.3,90.6-695.2c22.4-245.7,35.9-492.1,58.2-737.7c6-66.2,12.8-132.2,20.3-198.2"/>
			</g>
			<g>
				<path class="st3" d="M106,6649.5c30.5-255,76.5-507.7,117.2-761.1c37.6-234.1,65.9-468.4,83.4-704.8
					c16.3-219.7,27.7-439.9,47.5-659.4c18.6-207.2,49.3-412.5,84.7-617.4c34.1-197.4,70.4-394.6,96.1-593.3
					c26.2-202.7,39.5-406.6,51.8-610.5c12.7-210.9,24.3-422.1,48.7-632.1c25.3-218.7,60.9-436,95-653.5
					c36.2-231,69.3-462.3,90.6-695.2c22.4-245.7,35.9-492.1,58.2-737.7c6-66.2,12.8-132.2,20.3-198.2"/>
			</g>
			<g>
				<path class="st3" d="M86.5,6638.6c31.1-254.7,81.3-506.3,125.1-759c40.5-233.9,69-467.7,84-704.7
					c13.9-220.4,21.7-441.2,39.8-661.4c17.1-207.4,48.5-412.7,83.9-617.7c34.1-197.4,70.4-394.6,96.1-593.3
					c26.2-202.7,39.5-406.6,51.8-610.5c12.7-210.9,24.3-422.1,48.7-632.1c25.3-218.7,60.9-436,95-653.5
					c36.2-231,69.3-462.3,90.6-695.2c22.4-245.7,35.9-492.1,58.2-737.7c6-66.2,12.8-132.2,20.3-198.2"/>
			</g>
			<g>
				<path class="st3" d="M67,6627.7c30.7-254.6,84.4-505.5,130.3-757.6c42.6-233.7,71.2-467.4,84.3-704.6
					c12.2-220.9,17.2-442.2,34.5-662.8c16.3-207.4,48.3-412.8,83.7-617.7c34.1-197.4,70.4-394.6,96.1-593.3
					c26.2-202.7,39.5-406.6,51.8-610.5c12.7-210.9,24.3-422.1,48.7-632.1c25.3-218.7,60.9-436,95-653.5
					c36.2-231,69.3-462.3,90.6-695.2c22.4-245.7,35.9-492.1,58.2-737.7c6-66.2,12.8-132.2,20.3-198.2"/>
			</g>
			<g>
				<path class="st3" d="M47.6,6616.9c30.8-256.4,85.1-509,131.3-762.8c42.6-233.9,71.5-467.7,84.4-705.1
					c11.8-218.5,16.1-437.4,33.2-655.6c16.3-207.6,47.9-413.2,83.8-618.2c34.1-194.9,70.4-389.5,95.6-585.8
					c26.2-204.1,39.6-409.3,52-614.6c12.8-212.5,24.6-425.1,48.9-636.6c25.2-219.1,61.1-436.8,95.7-654.6
					c36.7-231.2,69.9-462.8,91.1-696c22.3-244.9,34.5-490.5,56.8-735.4c6-66.3,12.9-132.6,20.6-198.7"/>
			</g>
			<g>
				<path class="st3" d="M28.1,6606c32.8-267.7,85.1-532.6,130.5-798.3c40.1-235,70.4-469.5,84.3-707.6
					c12.1-206.1,17.5-412.5,34.1-618.4c16.2-200.2,45.6-398.4,82.4-595.7c33.7-180.6,69.4-360.7,92.9-543
					c27.5-213.4,40.8-428.3,53.9-643c13.6-224.5,25.7-449.2,51.3-672.8c25.4-222,63.8-442.2,100.6-662.5
					c38.8-232.5,73.6-465.4,93.8-700.4c20.7-240.9,28.7-482.7,49.4-723.6c5.7-66.2,12.4-132.3,20.3-198.2"/>
			</g>
			<g>
				<path class="st3" d="M8.6,6595.2c63-523.8,178.3-1040.4,213.3-1567.6c12.4-187.4,19.2-375.1,35.5-562.2
					c16.1-184.9,42-367.9,79.9-549.6c33-157.9,67.4-315.2,88.5-475.3c30.1-228.8,42.8-459.7,56.9-690
					c15-244.8,27.2-490.3,55.3-734.1c26.1-226.8,68.8-451.2,108.9-675.8c41.9-234.5,79.8-469.5,98-707.2
					c18-234.9,20.3-470.8,38.3-705.7c5-65.5,11.3-130.8,19-196.1"/>
			</g>
			<g>
				<path class="st3" d="M-10.8,6584.3c63.6-547.6,168.7-1090.7,211.5-1640.7c25.7-330.6,34.2-665.5,114-988.9
					c32.4-131.3,65-261.3,83.3-395.6c33.8-247,45.2-497.3,60.5-745.9c16.6-269.2,28.8-539.6,60-807.6
					c27.1-232.4,74.8-462,118.7-691.6c45.3-236.8,87.5-474.1,103-715.1c14.6-228.1,10.7-456.8,25.3-684.9
					c4.1-64.5,9.9-128.9,17.1-193.1"/>
			</g>
			<g>
				<path class="st3" d="M-30.3,6573.4c64.3-571.6,157-1140.1,209.7-1713c13.2-144,23.5-288.3,38.7-432.1
					c15.5-146.4,29.9-294.2,73.9-435.3c32.7-105.1,62.6-207.3,78.2-316.8c37.7-264.8,47.6-534.5,64.1-801.2
					c18.1-293.3,30.2-588.3,64.7-880.2c28.1-237.9,80.9-472.6,128.5-707.2c48.5-239.1,95.3-478.8,107.9-722.9
					c11.4-221.3,1.1-443,12.5-664.3c3.3-63.6,8.4-127,15.3-190.2"/>
			</g>
			<g>
				<path class="st3" d="M-49.8,6562.6C15.9,5971.4,95,5381.8,158.5,4790.4c13.5-126,25.6-252.1,40-378
					c14.9-129.8,20.6-269.6,71.5-391.7c12.4-29.8,27.1-58.5,37.8-89c18.4-52.5,28.2-107.9,36.2-162.8c17-116,25.2-233.5,34-350.4
					c12.4-165.2,22.7-330.5,33-495.8c19.4-312.7,31.5-627.6,68.5-938.9c28.8-242.5,85.7-481.3,136.4-719.9
					c51.2-240.8,101.7-482.8,111.9-729.4c8.9-215.7-7.2-431.4,1.7-647.1c2.6-62.9,7.4-125.7,14.1-188.3"/>
			</g>
			<g>
				<path class="st3" d="M-69.2,6551.7c68.4-602,136-1204.2,207.4-1805.9c13.6-114.7,27.3-229.5,40.9-344.2
					c10.2-86.1,17.6-173.1,34-258.4c7.5-39.4,16.7-79.7,36.4-115.1c11.9-21.3,26.5-40.6,36.2-63.2c20.2-47.2,28-99.9,35.4-150.3
					c17.1-117.1,25.4-235.7,34.2-353.7c12.9-172.4,23.6-344.9,34.4-517.5c20.1-323.2,32.6-648.7,70.6-970.5
					c28.9-245.1,88.1-486.1,140.7-726.8c52.8-241.8,105.4-485.3,114.4-733.4c7.7-212.2-12.6-424.2-4.9-636.4
					c2.3-62.8,7-125.5,14-188"/>
			</g>
			<g>
				<path class="st3" d="M-88.7,6540.8c67-598.7,139-1196.9,207.7-1795.4c13.6-118.5,26.7-237,40.6-355.5
					c10-85.5,17.8-171.8,33.9-256.5c7.9-41.4,17.9-83,36.8-120.9c12-24.2,26.7-46.9,36.7-72.1c19.4-48.8,28-101.9,35.6-153.6
					c17.2-117,25.4-235.5,34.2-353.3c12.8-170,23.3-340.1,33.9-510.3c19.9-320.1,32.2-642.5,70-961.2
					c29-244.2,87.4-484.7,139.4-724.7C632.3,995.9,684.3,753,693.6,505.3c8-213.3-10.7-426.6-2.7-639.9
					c2.4-62.8,7.1-125.4,13.9-187.9"/>
			</g>
			<g>
				<path class="st3" d="M-108.2,6530c64.9-583.6,149.8-1165.1,208.8-1749.3c13.4-133,24.8-266.2,39.5-399.1
					c15.2-136.4,24.8-278,72.4-407.9c12.8-34.9,27.6-69,38.8-104.5c17.8-56.1,28.4-114.3,36.8-172.5c16.7-114.9,25-231,33.8-346.7
					c12.1-160.6,22.1-321.4,32.1-482.1c18.9-305.3,31-612.6,67.1-916.4c28.6-240.7,83.8-478,133.3-715
					c50.1-240.2,99.2-481.2,110.3-726.9c9.8-217.8-3.9-435.9,5.9-653.8c2.9-63.1,7.7-126.1,14.5-188.9"/>
			</g>
			<g>
				<path class="st3" d="M-127.7,6519.1c64-561.6,162.2-1119.7,210.4-1683.1c13.1-153,22.6-306.2,38-459
					c15.7-154.5,33.2-308.7,75.1-458.6c32.4-116,63.6-229.8,80.3-349.5c36-257.4,46.6-519.1,62.6-778.3
					c17.5-283.3,29.6-568.2,62.8-850.3c27.7-235.6,78.4-468.2,124.4-700.7c47.2-238.2,92-476.9,105.8-719.7
					c12.7-224.1,5.1-448.7,17.8-672.8c3.6-63.9,9-127.7,16.1-191.4"/>
			</g>
			<g>
				<path class="st3" d="M-147.1,6508.3C-83.7,5971,26,5439.3,65.1,4899.3C90.4,4550,101.5,4199.8,179.8,3857
					c32.6-142.9,66-284.7,85.6-430.2c32.1-239.1,44.2-481,58.9-721.6c15.9-258.6,28.1-518.2,58-775.7
					c26.6-230,72.2-457.3,114.4-684.7c43.8-235.8,84.1-472.1,100.8-711.6c16.1-231,14.9-462.9,30.9-693.9
					c4.5-64.9,10.5-129.7,17.9-194.4"/>
			</g>
			<g>
				<path class="st3" d="M-166.6,6497.4c33.8-277.9,84.9-553.3,129.7-829.5c38.3-235.7,69.3-471.2,84.3-709.7
					c12.3-195.9,18.4-392.1,34.9-587.8c16.1-192.1,43.7-382.2,81.1-571.4c33.3-168.3,68.3-336.1,90.5-506.3
					c28.9-221.7,41.9-445.2,55.5-668.3c14.3-235.4,26.5-471.3,53.4-705.7c25.7-224.6,66.4-447,105.1-669.7
					c40.5-233.6,76.9-467.6,96.1-704.1c19.2-237.7,24.1-476.2,43.4-713.9c5.3-65.8,11.8-131.5,19.6-197.1"/>
			</g>
			<g>
				<path class="st3" d="M-186.1,6486.5c32-261.7,85.2-520.2,130.9-779.8c41.3-234.5,71-468.5,84.4-706.3
					c11.9-212.3,16.8-425,33.6-637.1c16.2-204.6,46.7-407.1,83.2-608.9c33.9-187.9,70-375.5,94.3-565
					c26.7-208.5,40.2-418.3,52.9-628.1c13.2-218.1,25.2-436.4,50-653.5c25.2-220.5,62.3-439.3,98-658.3
					c37.8-231.8,71.6-464.1,92.4-698.2c21.6-242.9,31.6-486.6,53.1-729.5c5.9-66.3,12.7-132.6,20.6-198.7"/>
			</g>
			<g>
				<path class="st3" d="M-205.5,6475.7c29.9-254.7,84.9-505.3,131.5-757.3c43.1-233.5,71.7-467.4,84.4-704.6
					c11.8-221,15.7-442.5,33-663.2c16.3-207.4,48.6-412.8,83.9-617.6c34.1-197.4,70.4-394.6,96.1-593.3
					c26.2-202.7,39.5-406.6,51.8-610.5c12.7-210.9,24.3-422.1,48.7-632.1c25.3-218.7,60.9-436,95-653.5
					c36.2-231,69.3-462.3,90.6-695.2c22.4-245.7,35.9-492.1,58.2-737.7c6-66.2,12.8-132.2,20.3-198.2"/>
			</g>
			<g>
				<path class="st3" d="M-225,6464.8c29.4-247.5,82.5-490.6,128-735.4c43.3-233,70.7-466.3,84.1-702.9
					c13-229.5,18.9-459.5,37-688.8c16.3-206.7,48.4-411.5,83.6-615.7c34.1-197.4,70.4-394.6,96.1-593.3
					c26.5-204.6,39.7-410.6,52.2-616.4c13-213.7,24.7-427.7,49.3-640.5c25-215.6,60.2-429.8,94.2-644.2
					c36.4-229.3,69.1-459,90.2-690.3c22.4-245.7,35.9-492.1,58.2-737.7c6-66.2,12.8-132.2,20.3-198.2"/>
			</g>
			<g>
				<path class="st3" d="M-244.5,6454c27.4-231.3,77.4-458.1,120.4-686.7c43.6-231.7,68.8-464.4,83.6-699.6
					C-24.9,4822-16,4575.9,4.1,4330.6c17.1-208,48.7-413.9,84.2-619.5c34.1-197.4,70.4-394.6,96.1-593.3
					c27.2-209.9,40.5-421.3,53.5-632.5c13.6-220.4,25.6-441.2,51-660.7c24.1-208.4,58.8-415.3,92.5-622.3
					c36.5-224.5,68.3-449.3,89-675.8c22.4-245.7,35.9-492.1,58.2-737.7c6-66.2,12.8-132.2,20.3-198.2"/>
			</g>
			<g>
				<path class="st3" d="M-263.9,6443.1c24.7-210,70.6-415.3,110.4-622.7c44.2-230,66.7-462,83-695.5
					c18.6-266,31.2-532.5,54.1-798.2c18.1-210.3,49.4-418.5,85.3-626.4c34.1-197.4,70.4-394.6,96.1-593.3
					c28.1-217.2,41.6-436,55.3-654.4c14.4-229.4,26.7-459.3,53.2-687.8c23-198.8,57-395.9,90.1-593.2
					c36.5-217.8,67.3-435.9,87.3-655.9C473.3,270,486.8,23.6,509.2-222c6-66.2,12.8-132.2,20.3-198.2"/>
			</g>
			<g>
				<path class="st3" d="M-283.4,6432.2c21.8-187.5,63.3-369.9,99.8-554.7c45.1-228,64.7-459.6,82.3-691.1
					c21.9-287.5,38.3-575.6,64.2-862.8c19.2-212.8,50.2-423.7,86.5-634.2c34.1-197.4,70.4-394.6,96.1-593.3
					c29.1-225,42.9-451.7,57.3-678c15.2-239,28-478.6,55.6-716.6c21.9-188.5,55-375.3,87.6-562.2c36.6-210.6,66.2-421.6,85.6-634.5
					c22.4-245.7,35.9-492.1,58.2-737.7c6-66.2,12.8-132.2,20.3-198.2"/>
			</g>
			<g>
				<path class="st3" d="M-302.9,6421.4c11.2-96.9,25.5-193.4,45.4-288.9c14.2-68.5,30.9-136.5,44.9-205
					c46.2-226,63-457.5,81.7-687.1c24.9-307,44.7-614.5,73.3-921.2c20-214.9,50.8-427.8,87.5-640.5C64,3481.2,100.3,3284,126,3085.3
					c30-231.8,43.9-465.5,58.9-698.7c15.9-247.5,29-495.8,57.7-742.3c20.8-179.5,53.2-356.9,85.3-534.6
					c36.9-204.2,65.2-409,84.1-615.7c22.4-245.7,35.9-492.1,58.2-737.7c6-66.2,12.8-132.2,20.3-198.2"/>
			</g>
			<g>
				<path class="st3" d="M-322.3,6410.5c10.7-92,23.6-183.7,43.1-274.3c12.7-59.3,28.1-118.1,40.6-177.5
					c47.3-224.5,62-456.1,81.2-684.2c27.1-321.3,49.5-642.9,80-963.9c20.5-215.7,51-429.4,87.9-642.8
					c34.1-197.4,70.4-394.6,96.1-593.3c30.6-236.3,44.6-474.6,60-712.3c16.5-253.3,29.8-507.4,59.1-759.6
					c20.1-173.3,51.8-344.4,83.8-515.8c37.3-200.1,64.6-400.9,83.1-603.6C414.9,237.4,428.4-9,450.8-254.6
					c6-66.2,12.8-132.2,20.3-198.2"/>
			</g>
			<g>
				<path class="st3" d="M-341.8,6399.6c10.6-91.3,23.4-182.3,42.8-272.2c12.4-57.4,27.5-114.1,39.6-171.6
					c47.5-224.2,61.8-455.8,81.1-683.6c27.6-324.2,50.7-648.8,81.5-972.7C-76.3,4083.9-46,3870.2-9,3656.8
					c34.4-198.3,71.2-396.3,96.8-596c30.4-236.8,44.7-475.4,59.9-713.5c16.2-254.1,29.4-508.9,59-761.9
					c20-171.3,51.2-340.3,83.1-509.7C373.6,631.8,390.6,182,431.5-266.9c6-65.7,12.6-131.3,20.1-196.9"/>
			</g>
			<g>
				<path class="st3" d="M-361.3,6388.8c19.2-165.8,55.9-326.2,88.9-489.5c45.7-226.1,62.7-457.4,81.6-686.9
					c25.3-307.8,45.6-616.1,74.5-923.6c20.7-219.7,52.2-437,90.7-654.2c36.6-206.2,76.2-412.1,102.9-619.9
					c29.3-228.6,42.6-458.7,55.2-688.6c13.4-243.5,24.3-487.7,53-730c19.8-167.3,49.6-332.5,80.6-498
					c85.1-454.1,103.3-915.7,145.8-1374.9c6.1-66,12.8-131.9,20.3-197.7"/>
			</g>
			<g>
				<path class="st3" d="M-380.7,6377.9c22.3-192.4,63.9-380.2,100.2-570.1c43.8-228.6,64.5-460.4,82.3-692.3
					c21.7-281.6,37.8-563.6,63.4-844.9c20.6-225.6,55.1-448.3,95.8-671c40.2-219.7,84.1-439,113.2-660.4
					c28-213.1,38.2-427.7,46.6-642.4c8.7-223.8,15.6-448.1,41.8-670.7c18.9-160.1,46.6-318.2,76-476.6
					C326.2,677.6,346,196.3,391.4-280.6c6.5-68.3,13.5-136.6,21.3-204.8"/>
			</g>
			<g>
				<path class="st3" d="M-400.2,6367.1c26.4-225,73.4-446.1,114.2-668.8c42.3-231.4,67-464.1,83.2-698.6
					c17.3-250.3,28.5-501,50.2-750.9c20.1-232.4,58.9-461.4,102.1-690.5c44.5-235.9,93.3-471.5,125.7-709.5
					c26.4-194.1,33.1-389.4,35.9-585.1c2.9-199.4,5.1-398.9,28-597.3c17.5-151.2,43-300.7,70.3-450.4
					c35-191.7,57.7-384.9,76.8-578.8c30.1-305.9,54.1-612.3,84.3-918.2c7.1-71.8,14.6-143.6,22.8-215.3"/>
			</g>
			<g>
				<path class="st3" d="M-419.7,6356.2c30.5-258.2,83-512.8,128.2-768.6c41.3-233.9,70.1-468,84.2-705.1
					c12.9-218.6,19-437.6,36.8-655.9c19.5-239.2,62.9-474.8,108.4-710.2c48.8-252.4,102.6-504.5,138.4-759.2
					c24.6-175.2,28.7-350.5,25.2-527.1c-3.5-174.8-5.7-348.9,14-522.9c16.1-142.2,39.3-282.9,64.6-423.7c34-189.1,55-380,74.4-571.1
					c33.6-331,61.6-662.5,95.1-993.5c7.6-75.3,15.6-150.7,24.3-225.9"/>
			</g>
			<g>
				<path class="st3" d="M-439.2,6345.3c62-523.5,199.6-1035.5,225.1-1563.4c9.2-191.4,10.7-383.1,25.2-574.3
					c18.7-245.1,66.2-486.6,113.7-727.5c52.5-266.4,110.6-532.4,149.1-801.4c22.9-159.7,26.4-317.9,16.1-478.7
					c-9.9-154.4-15-306.7,2.3-460.9c15.1-134.7,36.3-268,59.7-401.4c32.9-186.7,52.8-375.4,72.3-563.9
					c36.5-352.6,68-705.6,104.5-1058.2c8.1-77.9,16.4-155.8,25.4-233.7"/>
			</g>
			<g>
				<path class="st3" d="M-458.6,6334.5c63.9-541.2,211.4-1072.6,232.9-1618.7c6.8-173.4,4.9-347,17.6-520.2
					c18.4-249.4,68.2-495,117-739.9c54.8-275.2,116-550.1,155.9-828.1c21.6-150.7,27-298.9,10.7-450.3
					c-15.3-142.7-20.8-281.2-4.6-424.4c14.7-130.1,34.5-259.1,56.9-388.1c32-184.7,51.3-371.3,70.8-557.6
					c38.3-366.8,72.3-734,110.6-1100.8c8.2-78.6,16.6-157.1,25.7-235.6"/>
			</g>
			<g>
				<path class="st3" d="M-478.1,6323.6c63.7-542.5,212.7-1075.3,233.6-1622.8c6.5-171.5,4-343.3,16.6-514.6
					c18.4-249.5,68.2-495.4,117-740.4c54.6-274.4,115.4-548.3,155.2-825.4c21.7-150.8,27.2-299.4,11.1-450.9
					c-15.2-142.7-20.4-281.4-4.2-424.6c14.9-131.7,35.1-262.3,57.4-392.8c31.7-185.5,51.5-372.7,71-559.9
					C217.8,427,251.5,61.3,289.6-304c8.2-78.6,16.7-157.2,25.7-235.8"/>
			</g>
			<g>
				<path class="st3" d="M-497.6,6312.7c62.9-536.2,209.4-1061.6,231.4-1602.6c7.2-178,5.6-356.2,18.8-533.9
					c18.2-244.4,65.9-485.4,113.1-725.5c52-264.6,109.5-528.8,147.7-795.9c22.5-157,27-312.6,16.1-470.7
					c-10.4-150.8-14.6-299.2,2.3-449.9c16-142.4,38.4-283.7,62-425c32.1-191.4,53.6-384.2,73.5-577.2
					c36.1-349.7,67.1-700,103.2-1049.7c8-77.7,16.3-155.3,25.3-232.8"/>
			</g>
			<g>
				<path class="st3" d="M-517,6301.9c61.8-526.4,204.7-1040.9,228-1572c8.2-187.2,7.7-374.7,21.8-561.7
					c17.8-236.3,61.8-469.4,106.6-701.8c48.2-250.1,101.3-499.8,136.6-752.1c23.3-166.7,28.8-333.1,23.9-501.2
					c-4.8-163.9-6.1-326.5,12.4-489.8c18.1-159.1,43.4-317,69.2-474.9C167.5,723.7,199,191.4,252.3-337.1
					c7.6-74.9,15.5-149.7,24.1-224.4"/>
			</g>
			<g>
				<path class="st3" d="M-536.5,6291c32.6-277.9,90.4-552.2,139.2-827.6c41.7-235.2,73.7-470.5,84.9-709.3
					c9.3-197.7,10.2-395.7,25.3-593c17.4-226.9,57.1-450.8,99-674.3c43.8-233.5,91.9-466.5,123.8-702
					c24.1-178.2,31.9-356.8,32.9-536.4c1-179.3,3.6-357.8,24.2-536.1c20.6-178.3,49.1-355.4,77.6-532.6
					c82-509.8,113.7-1025,164-1538.4c7-71.3,14.4-142.5,22.5-213.6"/>
			</g>
			<g>
				<path class="st3" d="M-556,6280.2c31.4-267.4,88-531,135.7-795.7c42.3-234.5,72.8-469.2,84.7-707.3
					c10.4-207.8,12.5-415.9,28.6-623.4c16.9-217.8,52.7-433,91.8-647.8c39.6-217.4,82.8-434.5,111.5-653.7
					c24.8-189.4,35.4-379.5,41.5-570.3c6.2-194,12.9-387.7,35.6-580.7c23.2-196.8,54.5-392.4,85.6-588.1
					c34.8-219.1,64.5-438.6,85.4-659.5c26.3-277.6,45.7-555.8,72-833.4c6.4-67.9,13.4-135.7,21.1-203.5"/>
			</g>
			<g>
				<path class="st3" d="M-575.4,6269.3c30.5-259.1,86-514.2,132.9-770.6c42.8-233.9,72.1-468.1,84.5-705.6
					c11.3-216,14.4-432.4,31.3-648.1c16.5-210.7,49.5-419.3,86.3-627.3c36.1-204.6,75.3-408.9,101.7-615.1
					c25.4-198.2,38.4-397.3,48.3-596.8c10.2-205.5,20.2-410.9,44.4-615.2c24.9-211.3,58.8-421.4,91.8-631.5
					c35.7-226.6,67.6-453.5,88.7-682c23.8-257.8,39.7-516.2,63.5-773.9c6.1-65.8,12.7-131.5,20.2-197.1"/>
			</g>
			<g>
				<path class="st3" d="M-594.9,6258.4c29.9-254.9,85-505.7,131.5-757.8c43.1-233.6,71.8-467.4,84.4-704.6
					c11.8-220.7,15.6-441.9,32.9-662.3c16.3-207.4,48.5-412.9,83.9-617.8c34.2-197.8,70.7-395.2,96.4-594.4
					c26.1-202.5,39.5-406.3,51.6-610.1c12.6-210.8,24.2-421.8,48.6-631.7c25.4-218.5,60.9-435.6,94.9-652.9
					c36.2-230.8,69.3-461.8,90.5-694.5c22.4-246.4,36.1-493.4,58.5-739.8c6-65.9,12.7-131.7,20.2-197.5"/>
			</g>
		</g>
	</g>
</g>
</svg>
