<?xml version="1.0" encoding="utf-8"?>
<!-- Generator: Adobe Illustrator 25.4.1, SVG Export Plug-In . SVG Version: 6.00 Build 0)  -->
<svg version="1.1" id="Layer_1" xmlns="http://www.w3.org/2000/svg" xmlns:xlink="http://www.w3.org/1999/xlink" x="0px" y="0px"
	 viewBox="0 0 1920 6560" style="enable-background:new 0 0 1920 6560;" xml:space="preserve">
<style type="text/css">
	.st0{opacity:0.63;clip-path:url(#SVGID_00000042726572211444523940000007535278206884952486_);}
	.st1{fill:none;stroke:#FFF200;stroke-width:6;stroke-miterlimit:10;}
	.st2{opacity:0.35;clip-path:url(#SVGID_00000042726572211444523940000007535278206884952486_);}
	.st3{fill:none;stroke:#00AEEF;stroke-width:5;stroke-miterlimit:10;}
</style>
<g>
	<defs>
		<rect id="SVGID_1_" x="810" y="-0.5" width="1110" height="6564"/>
	</defs>
	<clipPath id="SVGID_00000150798717662498458030000005440985997995103371_">
		<use xlink:href="#SVGID_1_"  style="overflow:visible;"/>
	</clipPath>
	<g style="opacity:0.63;clip-path:url(#SVGID_00000150798717662498458030000005440985997995103371_);">
		<g>
			<g>
				<path class="st1" d="M1552.8,8802.2c22.1-346.4-3.6-693.5-12.5-1039.9c-4-158.1-4.9-316.6,4.6-474.5
					c8.7-144.9,27.1-289,49.9-432.3c43-269.5,101.3-536.4,133.8-807.5c16.2-135.1,21.5-271.2,39.9-406.1
					c17.5-128.4,42.5-255.6,69.5-382.3c53.4-250.4,114-499.9,139.7-755.2c26.9-266.8,9.5-535.1-9.6-801.8
					c-19.6-272.4-42-545.5-25.2-818.7c16.7-270.3-8.3-539.2-29.1-808.4c-10.7-138.5-19.4-277.2-19.4-416.1
					c0-152,12.5-303.1,33.9-453.5C1977.2,862,2062.6,524.5,2111,180.6c11.8-83.5,21-167.3,26.8-251.5"/>
			</g>
			<g>
				<path class="st1" d="M1534.3,8796.5c22.1-346.4-3.6-693.5-12.5-1039.9c-4-158.1-4.9-316.6,4.6-474.5
					c8.7-144.9,27.1-289,49.9-432.3c43-269.5,101.3-536.4,133.8-807.5c16.4-136.6,21.6-274.1,40.2-410.5
					c17-124.9,41.6-248.5,68.7-371.6c53.5-242.9,113.3-484.4,138.1-732.4c27.2-271.2,9.1-544.2-8.6-815.4
					c-18.2-277.3-41.4-556.3-24-834.2c16.7-266.5-8-531.1-29.6-796.5c-11-135.8-19.8-271.8-19.7-408c0-152.1,12.6-303.1,33.9-453.7
					c49.7-351.2,134.3-696.5,183.6-1047.8c11.6-82.6,20.9-165.5,26.7-248.7"/>
			</g>
			<g>
				<path class="st1" d="M1515.9,8790.8c22.1-346.4-3.6-693.5-12.5-1039.9c-4-158.1-4.9-316.6,4.6-474.5
					c8.7-144.9,27.1-289,49.9-432.3c43-269.5,101.3-536.4,133.8-807.5c16.4-136.5,21.4-274,40.2-410.2
					c16.3-118.3,40.2-235.4,67.3-351.7c53.3-229.3,111.6-456.6,135.2-691.5c28-279.9,9.3-562.7-6.7-842.8
					c-16.5-288.5-39.6-579.1-21.6-868c16.1-258.6-8-514.4-30.6-771.7c-11.5-130.8-20.3-261.9-20.3-393.3
					c0-152.4,12.9-303.7,33.9-454.6c50.7-363.6,134.8-721.6,185.1-1085.3c11.5-82.9,20.9-166.2,26.7-249.7"/>
			</g>
			<g>
				<path class="st1" d="M1497.4,8785c22.1-346.4-3.6-693.5-12.5-1039.9c-4-158.1-4.9-316.6,4.6-474.5
					c8.7-144.9,27.1-289,49.9-432.3c43-269.5,101.3-536.4,133.8-807.5c16.2-135.1,20.9-271.2,39.9-406
					c15.4-109.3,38.4-217.3,65.3-324.3c52.9-210.8,109.3-418.7,131.2-635.7c29.4-292.3,10.1-588.7-3.9-881.4
					c-14.6-304.6-37.1-611.9-18.1-916.8c15.4-247.3-8.2-490.7-32-736.5c-12-124.1-20.9-248.5-21.1-373.2
					c-0.2-152.9,13.3-304.8,34-456.3c51.9-380,135.6-754.8,187.1-1134.9c11.4-84.3,21-168.9,26.9-253.8"/>
			</g>
			<g>
				<path class="st1" d="M1479,8779.3c22.1-346.4-3.6-693.5-12.5-1039.9c-4-158.1-4.9-316.6,4.6-474.5
					c8.7-144.9,27.1-289,49.9-432.3c43-269.5,101.3-536.4,133.8-807.5c15.9-132.7,20.2-266.5,39.4-398.8
					c14.3-98.4,36.2-195.3,62.9-291c23.5-84.2,49.8-167.6,71.1-252.4c26.1-103.9,44.4-209.4,55.2-315.9
					c31.3-307.6,11.4-620.6-0.5-928.7c-12.5-324.8-34-652.4-13.8-977.3c7.8-124.6,7.7-249.3-1-373.8
					c-7.5-106.8-21.1-212.9-32.8-319.3c-12.7-115.9-21.7-232.2-22.1-348.9c-0.5-153.6,13.8-306.3,34.1-458.5
					c53.1-399.5,136.8-794.4,189.5-1194C2048.3,80,2058-6.8,2064-93.8"/>
			</g>
			<g>
				<path class="st1" d="M1460.5,8773.6c22.1-346.4-3.6-693.5-12.5-1039.9c-4-158.1-4.9-316.6,4.6-474.5
					c8.7-144.9,27.1-289,49.9-432.3c43-269.5,101.3-536.4,133.8-807.5c15.5-129.6,19.1-260.4,38.7-389.5
					c13.1-86.2,33.4-170.6,60.2-253.5c22.4-69.4,48-137.7,67.9-207.9c26.5-93.1,43-188.5,53-284.6c14.8-143.5,16-288.2,15.2-432.4
					c-0.9-183.4-6.4-366.7-11.9-550c-10.4-347.8-30.2-698.4-8.8-1046.1c7.3-118.6,7.7-237.4-1.7-355.9c-7.7-96.4-21.9-192-34-287.9
					c-13.5-106.8-22.6-213.8-23.2-321.5c-0.8-154.4,14.4-308.1,34.2-461.1c54.3-421.4,138.2-838.5,192.2-1259.9
					c11.4-89.2,21.3-178.7,27.5-268.5"/>
			</g>
			<g>
				<path class="st1" d="M1442.1,8767.8c22.1-346.4-3.6-693.5-12.5-1039.9c-4-158.1-4.9-316.6,4.6-474.5
					c8.7-144.9,27.1-289,49.9-432.3c43-269.5,101.3-536.4,133.8-807.5c23.9-199.3,20.4-403,95.3-592.3c21.3-53.8,46.1-106,64.5-161
					c27.2-81.2,41.6-165.9,50.5-250.8c15.6-148.3,16.3-298.1,16.3-447c0-197.7-4.4-395.3-8.8-592.9c-8.3-372.5-26.5-747.8-3.5-1120
					c6.9-112,7.8-224.3-2.5-336.1c-7.9-85.4-22.7-169.9-35.4-254.7c-37.8-253-21.8-503.1,9.9-756.2c55.6-444.7,139.7-885.3,195-1330
					c11.5-92.4,21.5-184.9,27.9-277.8"/>
			</g>
			<g>
				<path class="st1" d="M1423.6,8762.1c22.1-346.4-3.6-693.5-12.5-1039.9c-4-158.1-4.9-316.6,4.6-474.5
					c8.7-144.9,27.1-289,49.9-432.3c43-269.5,101.3-536.4,133.8-807.5c14.6-122.2,16.5-246.3,37.1-367.7
					c10.2-59.8,25.9-118.6,54.4-172.5c20.1-38,44.4-73.3,61.1-113.1c28.7-68.2,40.2-143,48-216.1c16.4-153.1,16.7-308.3,17.4-462.1
					c0.9-212.3-2.4-424.5-5.6-636.7c-3.4-221.4-7.4-442.7-8.4-664.1c-0.8-177.2-0.7-354.8,10.3-531.7c6.5-105.2,8-210.8-3.4-315.8
					c-8.1-74.3-23.5-147.4-36.7-220.9c-43.6-242.4-20.7-486.2,8.8-729.2c56.9-468.4,141.3-933.1,197.9-1401.6
					c11.5-95.6,21.7-191.3,28.3-287.4"/>
			</g>
			<g>
				<path class="st1" d="M1405.2,8756.3c22.1-346.4-3.6-693.5-12.5-1039.9c-4-158.1-4.9-316.6,4.6-474.5
					c8.7-144.9,27.1-289,49.9-432.3c43-269.5,101.3-536.4,133.8-807.5c14.2-118.5,14.9-239.5,36.4-356.9
					c8.5-46.3,20.5-95.4,51.5-132.3c19.1-22.6,42.5-40,57.7-65.9c31.5-53.6,39-121.6,45.6-182.1c17.3-157.9,17.1-318.2,18.4-476.8
					c1.9-226.6-0.4-453.2-2.6-679.8c-2.3-236.8-5.1-473.5-5.1-710.3c0-186.5,0.4-373.5,12.3-559.8c6.3-98.5,8.5-197.9-4.2-296
					c-8.2-63.5-24.3-125.2-38.1-187.6c-51.1-230.7-19.7-470.9,7.7-702.6c58.1-491.8,142.9-980.1,200.7-1471.9
					c11.6-98.7,21.9-197.6,28.6-296.8"/>
			</g>
			<g>
				<path class="st1" d="M1386.7,8750.6c22.1-346.4-3.6-693.5-12.5-1039.9c-4-158.1-4.9-316.6,4.6-474.5
					c8.7-144.9,27.1-289,49.9-432.3c43-269.5,101.3-536.4,133.8-807.5c13.8-115.1,13.1-233.6,35.7-347.4c6.3-31.9,15-79.4,48.8-94.4
					c18.7-8.3,38.9-5.8,54.5-21.1c35.3-34.8,38.2-105.2,43.3-150.4c18.2-162.2,17.5-327.3,19.4-490.3c2.7-240.2,1.5-480.4,0.4-720.6
					c-1.2-251.4-2.9-502.8-1.9-754.2c0.8-195.1,1.6-390.7,14.2-585.5c5.9-92.2,9.1-186.1-4.9-277.8c-8.2-53.4-24.9-104.1-39.4-156
					c-18.7-67.1-26.6-135.8-27.9-205.4c-2.9-157.6,16.6-316,34.6-472.2c59.3-513.9,144.4-1024.5,203.4-1538.5
					c11.6-101.5,22.1-203.2,29-305.1"/>
			</g>
			<g>
				<path class="st1" d="M1368.3,8744.9c22.1-346.4-3.6-693.5-12.5-1039.9c-4-158.1-4.9-316.6,4.6-474.5
					c8.7-144.9,27.1-289,49.9-432.3c43-269.5,101.3-536.4,133.8-807.5c8-66.7,14.3-133.5,18.9-200.5c3.2-46.5,6.4-93.7,16.2-139.4
					c4.8-22.2,13.8-69.9,46.4-60.6c16.6,4.8,32.9,25.1,51.6,19.7c12.9-3.7,19.1-19.2,23.3-30.5c10.8-29.2,14.5-61.5,18-92.3
					c19-165.8,17.9-335,20.2-501.7c3.5-252.4,3.2-504.9,3-757.4c-0.2-264.7-1-529.4,1-794.1c1.5-202.3,2.7-405.2,15.7-607.2
					c5.6-86.7,10.2-176.3-5.5-262.3c-8.1-44.5-25.4-84.9-40.5-127.2c-20.8-58.2-27.6-119.1-28.9-180.6
					c-3.4-158.2,17-317.6,34.7-474.5c60.4-533.8,145.8-1064.6,205.8-1598.4c11.7-103.8,22.3-207.7,29.3-311.9"/>
			</g>
			<g>
				<path class="st1" d="M1349.8,8739.1c22.1-346.4-3.6-693.5-12.5-1039.9c-4-158.1-4.9-316.6,4.6-474.5
					c8.7-144.9,27.1-289,49.9-432.3c43-269.5,101.3-536.4,133.8-807.5c8-66.7,14.3-133.5,18.9-200.5c3.1-44.9,5.7-90.8,15.9-134.9
					c5.8-25.1,17.7-59.6,44.3-32.4c14.1,14.4,28.1,49.5,49,54.9c33.6,8.7,37.9-84.4,39.8-100.8c19.6-168.5,18.1-340.7,20.8-510.1
					c4.2-262.8,4.7-525.7,5.3-788.6c0.6-276.1,0.7-552.2,3.4-828.3c2-207.7,3.5-415.8,16.9-623.2c5.3-82.4,11.5-169.4-6-250.8
					c-8-37.3-25.7-68.4-41.5-102.5c-23.2-50-28.4-105.5-29.7-160c-4-158.6,17.3-318.9,34.8-476.2
					c61.3-550.7,146.8-1098.5,207.9-1649.2c11.7-105.2,22.4-210.6,29.4-316.2"/>
			</g>
			<g>
				<path class="st1" d="M1331.4,8733.4c22.1-346.4-3.6-693.5-12.5-1039.9c-4-158.1-4.9-316.6,4.6-474.5
					c8.7-144.9,27.1-289,49.9-432.3c43-269.5,101.3-536.4,133.8-807.5c8-66.7,14.3-133.5,18.9-200.5c3.1-44.6,5.2-90.5,15.8-134.1
					c2.3-9.4,6.7-34.1,20-34.6c10.3-0.4,18.5,15.8,22.8,23c14.6,24.4,24,64.9,47,82.9c30.6,23.9,37.3-73.8,38.7-86
					c19.8-170.1,18.2-343.9,21.2-514.8c4.6-270.8,5.8-541.8,7-812.6c1.3-285.1,2.1-570.2,5.4-855.2c2.4-210.6,4-421.6,17.5-631.8
					c5.1-79.4,13.1-166-6.2-244.3c-7.9-32.2-25.6-55.2-42.3-82.9c-25.9-42.9-29-95.8-30.4-144.7c-4.3-158.9,17.4-319.7,34.8-477.3
					c62.2-563.6,147.6-1124.5,209.4-1688.2c11.6-105.7,22.4-211.5,29.5-317.6"/>
			</g>
			<g>
				<path class="st1" d="M1312.9,8727.7c22.1-346.4-3.6-693.5-12.5-1039.9c-4-158.1-4.9-316.6,4.6-474.5
					c8.7-144.9,27.1-289,49.9-432.3c43-269.5,101.3-536.4,133.8-807.5c8-66.7,14.3-133.5,18.9-200.5c3.2-45.8,5.1-93.2,16.1-137.9
					c2.2-8.9,6.4-33,19.8-31c10.7,1.6,18.5,23.2,22.2,31.2c14.7,31.6,22.5,75.3,45.7,102c29,33.4,36.9-68.6,38.3-80.2
					c19.6-170.2,18.1-343.9,21.2-514.9c4.9-275.9,6.4-551.9,8.1-827.8c1.8-291.1,3.1-582.2,6.7-873.3
					c2.6-210.5,4.4-421.4,17.5-631.6c4.9-78.6,14.6-166.7-6.3-244.1c-8-29.5-25.2-46.3-42.8-69.7c-28.2-37.6-29.5-90.9-30.7-135.8
					c-4.3-159,17.5-319.8,34.8-477.5c62.9-571.7,147.8-1140.8,210.4-1712.5c11.5-104.9,22.2-209.9,29.4-315.3"/>
			</g>
			<g>
				<path class="st1" d="M1294.5,8721.9c22.1-348.1-3.5-697-12-1045.1c-3.9-158-4.8-316.3,4.6-474.1c8.7-145.2,27-289.6,50-433.2
					c42.7-267,100.9-531.4,133.1-800.1c8.1-67.3,14.4-134.7,19.1-202.3c3.1-45,5.1-91.6,15.9-135.6c2.2-9.1,6.5-33,19.9-32
					c10.5,0.8,18.6,20.6,22.4,28.1c14.7,29,23,71.1,46.2,94.7c29.5,30,37-69.9,38.4-81.6c19.8-170.3,18.2-344.3,21.2-515.5
					c4.8-274.1,6.2-548.2,7.7-822.3c1.6-288.8,2.7-577.6,6.2-866.4c2.5-210.9,4.1-422.4,17.6-632.9c5-78.7,13.9-165.9-6.3-243.3
					c-7.9-30.5-25.4-49.7-42.6-74.7c-27.3-39.7-29.3-92.5-30.6-138.9c-4.3-159,17.5-319.9,34.8-477.5
					c62.6-568.8,147.8-1134.9,210.1-1703.7c11.5-105.4,22.3-211,29.5-316.8"/>
			</g>
			<g>
				<path class="st1" d="M1276,8716.2c22.3-353.3-2.7-707.8-10.5-1061.1c-3.5-159.1-4.5-318.6,4.9-477.6
					c8.6-144.4,26.7-288.1,49.8-430.8c42.2-261,99.9-519.4,131.4-782.2c8.1-67.5,14.5-135.2,19.2-203c3.1-44.6,5.4-90.4,15.8-134
					c2.4-10.1,6.8-35.4,20.3-37.7c10.1-1.8,18.3,11,23.2,17.9c14.3,20.1,25.4,59,47.9,71.5c31.8,17.7,37.5-78.2,39.1-91.6
					c19.8-169.6,18.2-342.9,21-513.3c4.5-267.6,5.3-535.3,6.3-803c1-281.4,1.5-562.8,4.6-844.2c2.3-209.6,3.8-419.7,17.3-629
					c5.2-80.5,12.3-167-6.2-246.5c-7.9-34.2-25.7-60.6-42-90.9c-24.7-45.9-28.8-99.6-30.1-150.7c-4.1-158.8,17.4-319.4,34.8-476.9
					c61.8-558.4,147.3-1114,208.8-1672.5c11.6-105.6,22.4-211.4,29.5-317.4"/>
			</g>
			<g>
				<path class="st1" d="M1257.6,8710.5c22.7-361.5-1.3-724.4-8.1-1086c-3.1-161.7-4-323.7,5.6-485.1
					c8.5-142.4,26.2-284.2,49.2-424.9c41.3-252.6,98.4-502.5,129-756.8c8.1-67.1,14.4-134.4,19.1-201.9c3.1-45.5,6-91.9,16-136.6
					c5-22.3,15.5-64.8,45.2-44.1c14.9,10.3,30.2,39.4,50.1,40.1c34.8,1.1,38.1-90.1,40.4-109.7c19.4-167.5,18-338.5,20.6-506.8
					c3.9-258.5,4.1-517,4.3-775.5c0.3-271.3,0-542.6,2.4-813.9c1.8-205.6,3.2-411.6,16.4-616.8c5.4-84.1,10.9-172.1-5.8-255.4
					c-8-40.2-25.6-75.3-41.1-112.9c-22.1-53.5-28-111.1-29.4-168.6c-3.7-158.5,17.1-318.4,34.7-475.5
					c60.9-543.7,146.4-1084.3,207-1628c11.7-104.7,22.3-209.5,29.4-314.6"/>
			</g>
			<g>
				<path class="st1" d="M1239.1,8704.7c23.4-372,0.5-745.7-5.1-1117.9c-4.7-306.3,4.7-609.5,55.1-912.1
					c40.3-242.2,96.6-481.5,126.1-725.4c8-66.3,14.2-132.7,18.8-199.3c3.3-47.6,6.7-95.7,16.4-142.5c5.2-25.2,13.7-73.8,47.4-75
					c18-0.7,35.5,12.2,52.8,2.2c13-7.5,19.3-24.4,23.8-37.7c10.5-31,14.7-64.4,18.3-96.7c18.7-164.3,17.7-331.8,19.9-496.9
					c3.2-247.2,2.5-494.4,1.9-741.6c-0.6-259-1.8-518-0.3-776.9c1.2-199.3,2.3-399.1,15.1-598.1c5.7-89.1,9.7-180.3-5.3-268.8
					c-8.1-48.3-25.2-93.2-40-139.6c-19.8-62.1-27.1-126.2-28.5-191.2c-3.2-157.9,16.8-317,34.7-473.5
					c59.9-525.3,145.2-1047.4,204.8-1572.8c11.7-102.8,22.2-205.8,29.1-309.1"/>
			</g>
			<g>
				<path class="st1" d="M1220.7,8699c43.6-689.2-62.8-1384.7,53.6-2069.5c39.1-230.3,94.5-457.5,122.7-689.6
					c14-115,13.8-232.8,35.5-346.6c7.3-38.4,17.2-85.4,50-110.8c18.8-14.6,40.9-21.1,55.9-40.6c33.6-43.9,38.5-111.5,44.3-164.1
					c17.8-160.3,17.4-323.4,19-484.5c2.4-234.3,0.7-468.6-0.9-702.9c-1.7-245-3.9-490.1-3.3-735.1c0.5-191.4,1.1-383.3,13.4-574.5
					c6.1-94.9,8.8-191.1-4.6-285.6c-8.2-57.8-24.6-113.3-38.8-169.7c-17.9-71.3-26.2-143.8-27.4-217.4
					c-2.6-157.3,16.4-315.2,34.6-471.1c58.8-504.3,143.8-1005.2,202.2-1509.5c11.6-100.3,22.1-200.8,28.8-301.6"/>
			</g>
			<g>
				<path class="st1" d="M1202.2,8693.3c25.3-397.7,5.1-797.6,2.2-1195.7c-2.3-307.1,2.7-613.7,55.5-917
					c37.9-217.4,92.2-431.4,119.1-650.8c14.4-117.1,15.3-236.2,35.8-352.4c9.3-52.4,23-105.1,52.8-149.9
					c19.5-29.3,43.4-54.9,59.2-86.7c30.1-60.4,39.5-130.7,46.7-197c16.9-155.8,16.9-313.8,18-470.4c1.4-220.3-1.3-440.6-3.9-660.9
					c-2.8-230-6.1-460-6.5-690c-0.3-182.5-0.2-365.3,11.4-547.5c6.5-101.4,8.2-203.6-3.8-304.6c-8.1-68.3-23.9-135-37.5-202.3
					c-47.5-236.1-20.1-477.4,8.2-714.3c57.6-481.5,142.2-959.4,199.5-1441c11.6-97.3,21.9-194.9,28.5-292.7"/>
			</g>
			<g>
				<path class="st1" d="M1183.8,8687.5c26.4-411.8,7.6-825.9,6.1-1238.2c-1.1-307.5,1.4-616.1,55.8-919.6
					c36.6-204,89.8-404.4,115.3-610.4c22.7-183.3,13.3-378,91.9-549.4c20.6-45,45.2-88,62.6-134.4c27.9-74.1,40.8-153.1,49.1-231.5
					c16-151,16.5-303.7,16.9-455.4c0.5-205.8-3.3-411.5-7-617.3c-7.1-386.5-24.4-775.9-0.5-1162.1c6.7-108.3,7.9-216.8-3-324.9
					c-8-79.3-23.2-157.4-36.1-235.9c-40.9-247.3-21.2-493.6,9.3-741.2c56.3-457.9,140.6-911.8,196.6-1369.7
					c11.5-94.1,21.6-188.5,28.1-283.1"/>
			</g>
			<g>
				<path class="st1" d="M1165.3,8681.8c27.4-425.8,10.2-854.2,10.1-1280.6c0-307.7-0.1-618.6,56-922.3
					c35.3-190.7,87.4-377.3,111.5-570.1c15.2-121.4,17.7-244,36.5-365c12.3-79,31.7-156.2,58.6-231.5c21.8-60.8,46.9-120.3,66.1-182
					c26.8-86.6,42.2-176,51.6-266.1c15.2-146.1,16.2-293.6,15.8-440.4c-0.4-191.2-5.3-382.5-10.2-573.6
					c-9.2-361.4-28.1-725.6-5.9-1086.7c7.1-115,7.8-230.2-2.2-345.1c-7.8-90.4-22.3-179.8-34.8-269.6
					c-14-101.3-23.2-203.1-23.9-305.4c-1.1-154.9,14.8-309.2,34.2-462.6c55.1-434.2,139-864.2,193.7-1298.5
					c11.5-90.9,21.4-182.1,27.7-273.5"/>
			</g>
			<g>
				<path class="st1" d="M1146.9,8676.1c28.5-439.3,12.6-881.4,13.9-1321.3c0.9-307.9-1.8-621.1,56.2-924.8
					c34-177.8,85.2-351.2,107.9-531.3c15.6-123.3,18.6-247.7,36.9-370.7c13.6-91.7,34.7-181.8,61.4-270.6
					c22.9-76.1,48.8-151.3,69.4-228.1c26.3-98,43.6-198,54-299c14.5-141.6,15.9-284.1,14.8-426.3c-1.3-177.3-7.2-354.5-13.2-531.6
					c-11.4-337.2-32.2-677.4-11.1-1014.7c7.6-121.3,7.7-242.9-1.4-364.1c-7.6-101.1-21.5-201.5-33.5-302.1
					c-13.2-110.9-22.2-222.2-22.7-334c-0.7-154,14.2-307.3,34.1-459.9c53.8-411.5,137.5-818.4,190.9-1229.9
					c11.4-88,21.2-176.1,27.3-264.6"/>
			</g>
			<g>
				<path class="st1" d="M1128.4,8670.3c29.4-451.7,14.8-906.2,17.4-1358.5c1.8-307.9-3.5-623.6,56.5-927.1
					c32.8-166,83.1-327,104.5-495.4c15.9-124.9,19.3-250.9,37.1-375.6c14.8-103.5,37.2-205.4,64-306.4
					c52.7-198.8,107.8-394,128.6-599.5c30.4-300.5,10.8-605.8-2.1-906.7c-13.5-315.4-35.5-633.6-15.8-949.2
					c14.9-239.8-8.3-475.1-33-713.2c-12.4-119.7-21.4-239.7-21.6-360.2c-0.4-153.3,13.6-305.6,34-457.4
					c52.5-390.5,136.2-776.1,188.4-1166.7c11.4-85.4,21-171.1,27-257.1"/>
			</g>
			<g>
				<path class="st1" d="M1110,8664.6c30.1-462.3,16.7-927.4,20.4-1390.4c1.6-198.1,3.6-396.6,15.9-594.4
					c7-112.3,18.3-224.4,40.8-334.8c31.7-155.7,81.3-305.8,101.6-464.1c16.2-126,19.8-253.1,37.3-378.9
					c15.8-113.6,39.3-225.9,66.2-337.3c53.1-219.5,110.4-436.7,133.1-662.1c28.8-286.4,9.7-576.3-5.2-863
					c-15.4-296.9-38.3-596.2-19.8-893.5c15.7-252.7-8.1-502-31.4-753.3c-11.8-127.3-20.6-254.9-20.7-382.8
					c-0.1-152.7,13.1-304.3,33.9-455.5c51.3-372.2,135.2-739.2,186.2-1111.5c11.4-83.6,20.9-167.4,26.8-251.6"/>
			</g>
			<g>
				<path class="st1" d="M1091.5,8658.8c30.6-470.5,18.1-944,22.7-1415.3c1.9-200.6,4.1-401.6,16.6-601.9
					c6.8-110.3,17.6-220.6,40.2-328.9c14.3-68.3,34.2-135,52.3-202.3c20.9-77.8,36.6-156.5,46.9-236.4
					c16.3-126.4,20.1-254,37.4-380.4c16.6-121.6,40.9-241.9,68-361.6c53.4-236,112.5-470.3,136.6-711.7
					c27.6-275.5,9.2-553.4-7.6-829.1c-17.3-282.8-40.5-567.6-22.8-851c16.4-262.6-8-522.8-30.1-784.2c-11.3-133.3-20-266.8-20-400.6
					c0-152.2,12.7-303.4,33.9-454.1c50.2-357.5,134.5-709.4,184.4-1067c11.5-82.7,20.9-165.6,26.7-248.8"/>
			</g>
			<g>
				<path class="st1" d="M1073.1,8653.1c14.4-223.5,16.5-447.9,18.7-671.8c2.5-253.2,2.8-506.4,5.6-759.5
					c2.2-201.8,4.5-403.9,16.9-605.4c6.8-109.5,17.1-219.1,40-326.5c13.9-64.8,33.5-128,51.3-191.8c20.9-75.2,36.2-151.5,46.2-228.9
					c16.3-126.1,20.2-253.3,37.3-379.4c17.3-126.9,42-252.5,69.1-377.6c53.5-247,113.7-492.9,139-744.9
					c27-268.6,9.2-538.9-9.2-807.5c-18.8-274.3-42-549.9-24.7-824.9c16.9-268.7-8.1-535.9-29.3-803.5
					c-10.9-137.2-19.6-274.8-19.5-412.5c0.1-152,12.5-303,33.9-453.5c49.3-347.3,134.2-688.4,183.1-1035.8
					c11.7-82.8,21-166,26.7-249.4"/>
			</g>
			<g>
				<path class="st1" d="M1054.7,8647.4c14.4-223.6,16.4-447.9,18.7-671.9c2.6-254.4,3.1-508.9,5.9-763.3
					c2.3-201.8,4.5-404,16.9-605.5c6.7-109.5,17-219.4,40-326.8c13.7-63.8,33.3-125.9,51-188.6c21-74.5,36.1-150.2,46.1-227
					c16.2-125,20.1-251.1,37.1-376.1c17.6-128.6,42.6-256.1,69.5-383.1c53.3-251,114-501.2,139.9-757c26.9-266.5,9.7-534.6-9.7-801
					c-19.8-272.2-42.1-545-25.2-818.1c16.7-270.4-8.4-539.6-29.1-809c-10.7-138.7-19.4-277.6-19.4-416.7
					c0-152,12.5-303.2,33.9-453.6c48.7-343.1,134.3-679.9,182.6-1023.1c11.8-83.8,21.1-167.9,26.9-252.4"/>
			</g>
			<g>
				<path class="st1" d="M1036.2,8641.6c14.5-223,16.5-446.8,18.5-670.2c2.3-251.1,2.4-502.3,5-753.4c2.1-201.3,4.3-403,16.8-604
					c6.8-109.8,17.3-219.6,40.1-327.4c14.1-66.6,33.9-131.6,51.8-197.1c20.9-76.5,36.4-153.9,46.6-232.6c16.1-124.5,20-250,37-374.4
					c17.6-128.6,42.6-256.1,69.5-383.1c53.3-251,114-501.2,139.9-757c26.9-266.5,9.7-534.6-9.7-801c-19.8-272.2-42.1-545-25.2-818.1
					c16.7-270.4-8.4-539.6-29.1-809c-10.7-138.7-19.4-277.6-19.4-416.7c0-152,12.5-303.2,33.9-453.6
					c48.7-343.1,134.3-679.9,182.6-1023.1c11.8-83.8,21.1-167.9,26.9-252.4"/>
			</g>
			<g>
				<path class="st1" d="M1017.8,8635.9c30.3-466.3,17.4-935.4,21.5-1402.4c1.8-199.4,3.9-399.1,16.2-598.2
					c6.9-111.3,17.9-222.5,40.5-331.8c31.3-151.8,80.6-297.6,100.5-452c16-124.6,20-250.2,37-374.8
					c17.6-128.6,42.6-256.1,69.5-383.1c53.3-251,114-501.2,139.9-757c26.9-266.5,9.7-534.6-9.7-801c-19.8-272.2-42.1-545-25.2-818.1
					c16.7-270.4-8.4-539.6-29.1-809c-10.7-138.7-19.4-277.6-19.4-416.7c0-152,12.5-303.2,33.9-453.6
					c48.7-343.1,134.3-679.9,182.6-1023.1c11.8-83.8,21.1-167.9,26.9-252.4"/>
			</g>
			<g>
				<path class="st1" d="M999.3,8630.2c29.7-456.6,15.7-916.1,18.8-1373.4c1.3-196.2,3.2-392.8,15.3-588.7
					c7.1-113.9,18.8-227.4,41.2-339.4c32.3-161.2,82.2-317.2,103.2-480.8c16-125.3,20.1-251.6,37.2-376.8
					c17.6-128.6,42.6-256.1,69.5-383.1c53.3-251,114-501.2,139.9-757c26.9-266.5,9.7-534.6-9.7-801c-19.8-272.2-42.1-545-25.2-818.1
					c16.7-270.4-8.4-539.6-29.1-809c-10.7-138.7-19.4-277.6-19.4-416.7c0-152,12.5-303.2,33.9-453.6
					c48.7-343.1,134.3-679.9,182.6-1023.1c11.8-83.8,21.1-167.9,26.9-252.4"/>
			</g>
			<g>
				<path class="st1" d="M980.9,8624.4c28.9-445,13.6-892.7,15.5-1338.4c1.3-307.9-2.5-622.2,56.3-925.9
					c33.4-172.4,84.2-340.1,106.4-514.9c16-126.4,20.3-253.7,37.5-380c17.6-128.6,42.6-256.1,69.5-383.1
					c53.3-251,114-501.2,139.9-757c26.9-266.5,9.7-534.6-9.7-801c-19.8-272.2-42.1-545-25.2-818.1c16.7-270.4-8.4-539.6-29.1-809
					c-10.7-138.7-19.4-277.6-19.4-416.7c0-152,12.5-303.2,33.9-453.6c48.7-343.1,134.3-679.9,182.6-1023.1
					c11.8-83.8,21.1-167.9,26.9-252.4"/>
			</g>
			<g>
				<path class="st1" d="M962.4,8618.7c27.9-432,11.3-866.5,11.8-1299c0.4-307.8-0.8-619.7,56.1-923.4
					c34.7-184.9,86.4-365.5,109.9-552.6c16-127.7,20.5-256.5,37.9-384.1c17.6-128.6,42.6-256.1,69.5-383.1
					c53.3-251,114-501.2,139.9-757c26.9-266.5,9.7-534.6-9.7-801c-19.8-272.2-42.1-545-25.2-818.1c16.7-270.4-8.4-539.6-29.1-809
					c-10.7-138.7-19.4-277.6-19.4-416.7c0-152,12.5-303.2,33.9-453.6C1386.7,677.9,1472.3,341.2,1520.6-2
					c11.8-83.8,21.1-167.9,26.9-252.4"/>
			</g>
			<g>
				<path class="st1" d="M944,8613c26.8-418.1,8.8-838.6,7.9-1257.2c-0.6-307.6,0.7-617.2,55.9-920.8
					c36-198.1,88.7-392.3,113.6-592.4c16.1-129.3,20.7-259.6,38.3-388.7c17.6-128.6,42.6-256.1,69.5-383.1
					c53.3-251,114-501.2,139.9-757c26.9-266.5,9.7-534.6-9.7-801c-19.8-272.2-42.1-545-25.2-818.1c16.7-270.4-8.4-539.6-29.1-809
					c-10.7-138.7-19.4-277.6-19.4-416.7c0-152,12.5-303.2,33.9-453.6c48.7-343.1,134.3-679.9,182.6-1023.1
					c11.8-83.8,21.1-167.9,26.9-252.4"/>
			</g>
			<g>
				<path class="st1" d="M925.5,8607.2c25.8-403.9,6.2-810.1,3.9-1214.5c-1.8-307.3,2.1-614.7,55.6-918.1
					c37.3-211.5,91.1-419.5,117.4-632.9c16.1-130.9,20.9-262.8,38.8-393.5c17.6-128.6,42.6-256.1,69.5-383.1
					c53.3-251,114-501.2,139.9-757c26.9-266.5,9.7-534.6-9.7-801c-19.8-272.2-42.1-545-25.2-818.1c16.7-270.4-8.4-539.6-29.1-809
					c-10.7-138.7-19.4-277.6-19.4-416.7c0-152,12.5-303.2,33.9-453.6c48.7-343.1,134.3-679.9,182.6-1023.1
					c11.8-83.8,21.1-167.9,26.9-252.4"/>
			</g>
			<g>
				<path class="st1" d="M907.1,8601.5c44.1-694.9-63.2-1398.2,55.4-2088.4c38.6-224.6,93.5-446.1,121.1-672.6
					c16.2-132.5,21.1-265.9,39.2-398.1c17.6-128.6,42.6-256.1,69.5-383.1c53.3-251,114-501.2,139.9-757
					c26.9-266.5,9.7-534.6-9.7-801c-19.8-272.2-42.1-545-25.2-818.1c16.7-270.4-8.4-539.6-29.1-809
					c-10.7-138.7-19.4-277.6-19.4-416.7c0-152,12.5-303.2,33.9-453.6C1331.4,660.7,1417,324,1465.3-19.2
					c11.8-83.8,21.1-167.9,26.9-252.4"/>
			</g>
			<g>
				<path class="st1" d="M888.6,8595.8c23.8-377.2,1.5-756.4-3.6-1133.9c-4.1-306.5,4.3-610.3,55.2-913.1
					c39.8-237.1,95.7-471.1,124.6-710c16.2-133.8,21.3-268.6,39.6-402.2c17.6-128.7,42.6-256.1,69.5-383.1
					c53.3-251,114-501.2,139.9-757c26.9-266.5,9.7-534.6-9.7-801c-19.8-272.2-42.1-545-25.2-818.1c16.7-270.4-8.4-539.6-29.1-809
					c-10.7-138.7-19.4-277.6-19.4-416.7c0-152,12.5-303.2,33.9-453.6c48.7-343.1,134.3-679.9,182.6-1023.1
					c11.8-83.8,21.1-167.9,26.9-252.4"/>
			</g>
			<g>
				<path class="st1" d="M870.2,8590c23-365.9-0.5-733.4-6.9-1099.4c-2.8-163.2-3.6-326.6,6-489.6c8.4-141.2,25.9-281.8,48.9-421.3
					c40.9-248.2,97.7-493.6,127.8-743.5c16.3-134.9,21.5-270.7,39.8-405.3c17.6-128.6,42.6-256.1,69.5-383.1
					c53.3-251,114-501.2,139.9-757c26.9-266.5,9.7-534.6-9.7-801c-19.8-272.2-42.1-545-25.2-818.1c16.7-270.4-8.4-539.6-29.1-809
					c-10.7-138.7-19.4-277.6-19.4-416.7c0-152,12.5-303.2,33.9-453.6c48.7-343.1,134.3-679.9,182.6-1023.1
					c11.8-83.8,21.1-167.9,26.9-252.4"/>
			</g>
			<g>
				<path class="st1" d="M851.7,8584.3c22.4-356.6-2.1-714.5-9.5-1071.2c-3.3-160.1-4.3-320.6,5.2-480.5
					C855.9,6889,873.9,6746,897,6604c41.8-257.6,99.3-512.5,130.4-771.7c16.3-135.5,21.6-271.9,40-407.1
					c17.6-128.6,42.6-256.1,69.5-383.1c53.3-251,114-501.2,139.9-757c26.9-266.5,9.7-534.6-9.7-801c-19.8-272.2-42.1-545-25.2-818.1
					c16.7-270.4-8.4-539.6-29.1-809c-10.7-138.7-19.4-277.6-19.4-416.7c0-152,12.5-303.2,33.9-453.6
					c48.7-343.1,134.3-679.9,182.6-1023.1c11.8-83.8,21.1-167.9,26.9-252.4"/>
			</g>
			<g>
				<path class="st1" d="M833.3,8578.6c22.1-350-3.2-701-11.4-1051c-3.7-158.3-4.7-316.9,4.7-475.1c8.6-145,26.9-289.3,50-432.6
					C919,6355.2,977,6093,1008.9,5826.7c16.2-135.5,21.6-272,40-407.2c17.6-128.6,42.6-256.1,69.5-383.1
					c53.3-251,114-501.2,139.9-757c26.9-266.5,9.7-534.6-9.7-801c-19.8-272.2-42.1-545-25.2-818.1c16.7-270.4-8.4-539.6-29.1-809
					c-10.7-138.7-19.4-277.6-19.4-416.7c0-152,12.5-303.2,33.9-453.6c48.7-343.1,134.3-679.9,182.6-1023.1
					c11.8-83.8,21.1-167.9,26.9-252.4"/>
			</g>
			<g>
				<path class="st1" d="M814.8,8572.8c22.1-346.6-3.6-693.9-12.4-1040.6c-4-158-4.9-316.3,4.6-474.2c8.7-145,27.1-289.3,50-432.7
					c43-269,101.2-535.6,133.7-806.3c16.2-134.9,21.5-270.7,39.9-405.4c17.6-128.6,42.6-256.1,69.5-383.1
					c53.3-251,114-501.2,139.9-757c26.9-266.5,9.7-534.6-9.7-801c-19.8-272.2-42.1-545-25.2-818.1c16.7-270.4-8.4-539.6-29.1-809
					c-10.7-138.7-19.4-277.6-19.4-416.7c0-152,12.5-303.2,33.9-453.6c48.7-343.1,134.3-679.9,182.6-1023.1
					c11.8-83.8,21.1-167.9,26.9-252.4"/>
			</g>
		</g>
	</g>
	<g style="opacity:0.35;clip-path:url(#SVGID_00000150798717662498458030000005440985997995103371_);">
		<g>
			<g>
				<path class="st3" d="M1761.2-128.5c-58.2,491.2-117.6,982.2-176,1473.4c-50.4,423.3-92.9,848.1-166.9,1268.1
					c-34.8,197.3-71.9,394.3-98.3,593c-27,202.6-41,406.5-54,610.3c-13.5,210.9-25.9,422-51,631.9
					c-26.1,218.6-62.6,435.8-97.4,653.2c-37,230.9-71.1,462-93.1,694.8c-23.3,245.6-37.7,491.9-61,737.5
					c-6.3,66.1-13.3,132.2-21.1,198.2"/>
			</g>
			<g>
				<path class="st3" d="M1780.6-117.6c-56.4,491.2-124.1,981-179.8,1472.4c-48.1,424-89,848.7-163.1,1269.1
					c-34.8,197.3-71.9,394.3-98.3,593c-27,202.6-41,406.5-54,610.3c-13.5,210.9-25.9,422-51,631.9
					c-26.1,218.6-62.6,435.8-97.4,653.2c-37,230.9-71.1,462-93.1,694.8c-23.3,245.6-37.7,491.9-61,737.5
					c-6.3,66.1-13.3,132.2-21.1,198.2"/>
			</g>
			<g>
				<path class="st3" d="M1800-106.6c-56.9,490.9-136.4,978.7-187.2,1470.4c-43.9,425.1-81.5,849.9-155.8,1271.1
					c-34.8,197.3-71.9,394.3-98.3,593c-27,202.6-41,406.5-54,610.3c-13.5,210.9-25.9,422-51,631.9
					c-26.1,218.6-62.6,435.8-97.4,653.2c-37,230.9-71.1,462-93.1,694.8c-23.3,245.6-37.7,491.9-61,737.5
					c-6.3,66.1-13.3,132.2-21.1,198.2"/>
			</g>
			<g>
				<path class="st3" d="M1819.5-95.7c-30.5,255.3-72.7,508.9-111,763.1c-35.3,234.2-64,468.9-85.5,704.7
					c-19.9,218.9-36,438.2-58.5,656.8c-21.3,206.9-51.9,412-88,616.8c-34.8,197.3-71.9,394.3-98.3,593c-27,202.6-41,406.5-54,610.3
					c-13.5,210.9-25.9,422-51,631.9c-26.1,218.6-62.6,435.8-97.4,653.2c-37,230.9-71.1,462-93.1,694.8
					c-23.3,245.6-37.7,491.9-61,737.5c-6.3,66.1-13.3,132.2-21.1,198.2"/>
			</g>
			<g>
				<path class="st3" d="M1838.9-84.8c-31.4,254.9-78.4,507.4-120.1,760.7c-38.5,233.9-67.6,468.1-86,704.5
					c-17.1,219.7-29.4,439.8-49.9,659.2c-19.4,207.1-50.8,412.3-87,617.1c-34.8,197.3-71.9,394.3-98.3,593
					c-27,202.6-41,406.5-54,610.3c-13.5,210.9-25.9,422-51,631.9c-26.1,218.6-62.6,435.8-97.4,653.2c-37,230.9-71.1,462-93.1,694.8
					c-23.3,245.6-37.7,491.9-61,737.5c-6.3,66.1-13.3,132.2-21.1,198.2"/>
			</g>
			<g>
				<path class="st3" d="M1858.3-73.8c-32,254.6-83.2,506-127.9,758.5c-41.4,233.8-70.7,467.5-86.6,704.4
					c-14.7,220.4-23.3,441.2-42.3,661.2c-17.9,207.3-50,412.5-86.2,617.3c-34.8,197.3-71.9,394.3-98.3,593
					c-27,202.6-41,406.5-54,610.3c-13.5,210.9-25.9,422-51,631.9c-26.1,218.6-62.6,435.8-97.4,653.2c-37,230.9-71.1,462-93.1,694.8
					c-23.3,245.6-37.7,491.9-61,737.5c-6.3,66.1-13.3,132.2-21.1,198.2"/>
			</g>
			<g>
				<path class="st3" d="M1877.8-62.9c-31.7,254.5-86.3,505.2-133.1,757.1c-43.4,233.6-72.9,467.1-86.9,704.3
					c-13.1,220.9-18.9,442.1-37,662.7c-17,207.4-49.8,412.6-86,617.4c-34.8,197.3-71.9,394.3-98.3,593c-27,202.6-41,406.5-54,610.3
					c-13.5,210.9-25.9,422-51,631.9c-26.1,218.6-62.6,435.8-97.4,653.2c-37,230.9-71.1,462-93.1,694.8
					c-23.3,245.6-37.7,491.9-61,737.5c-6.3,66.1-13.3,132.2-21.1,198.2"/>
			</g>
			<g>
				<path class="st3" d="M1897.2-52c-31.8,256.2-87,508.6-134.2,762.3c-43.5,233.7-73.3,467.4-87,704.8
					c-12.6,218.4-17.7,437.3-35.6,655.4c-17,207.5-49.5,413.1-86.1,617.9c-34.8,194.8-71.9,389.2-97.8,585.4
					c-27,204-41.1,409.2-54.3,614.4c-13.6,212.4-26.2,425-51.3,636.4c-26,219-62.7,436.6-98.1,654.2
					c-37.5,231.1-71.6,462.5-93.6,695.7c-23.2,244.8-36.3,490.4-59.5,735.1c-6.3,66.3-13.4,132.5-21.4,198.6"/>
			</g>
			<g>
				<path class="st3" d="M1916.6-41c-33.8,267.6-87.1,532.2-133.4,797.8c-41,234.8-72.1,469.3-87,707.3
					c-12.8,206-19,412.5-36.4,618.2c-16.9,200.2-47.1,398.2-84.6,595.4c-34.4,180.4-70.7,360.4-94.9,542.6
					c-28.3,213.3-42.4,428.1-56.2,642.8c-14.5,224.4-27.4,449.1-53.8,672.6c-26.2,221.9-65.5,441.9-103.1,662.1
					c-39.7,232.3-75.3,465.2-96.4,700c-21.6,240.8-30.5,482.6-52.1,723.4c-5.9,66.2-12.9,132.2-21,198.1"/>
			</g>
			<g>
				<path class="st3" d="M1936-30.1c-64.9,523.6-182.1,1039.7-219.1,1566.8c-13.1,187.3-20.6,375-37.6,562
					c-16.8,184.9-43.3,367.7-82,549.3c-33.6,157.8-68.6,314.9-90.2,474.9c-31,228.7-44.5,459.6-59.4,689.8
					c-15.9,244.8-29,490.2-58,733.9c-26.9,226.7-70.4,450.9-111.4,675.4c-42.7,234.3-81.6,469.2-100.6,706.8
					c-18.8,234.9-22.1,470.7-40.9,705.6c-5.2,65.5-11.8,130.8-19.7,196"/>
			</g>
			<g>
				<path class="st3" d="M1955.5-19.2c-65.7,547.4-172.8,1090.1-217.5,1639.9c-26.9,330.5-36.6,665.3-117.7,988.4
					c-32.9,131.2-65.9,261.1-84.8,395.3c-34.7,246.8-47.1,497.1-63.3,745.7c-17.6,269.1-30.8,539.5-63,807.4
					c-27.9,232.3-76.5,461.7-121.3,691.1c-46.2,236.7-89.3,473.8-105.6,714.7c-15.5,228-12.4,456.8-27.8,684.8
					c-4.4,64.5-10.3,128.8-17.8,193.1"/>
			</g>
			<g>
				<path class="st3" d="M1974.9-8.2c-66.4,571.3-161.2,1139.5-216,1712.2c-13.8,144-24.6,288.2-40.3,432
					c-16,146.4-31,294.1-75.5,435.1c-33.1,105-63.4,207.1-79.4,316.5c-38.7,264.6-49.6,534.3-67.1,800.9
					c-19.2,293.2-32.4,588.2-68,880c-29,237.8-82.6,472.3-131.1,706.7c-49.4,238.9-97,478.5-110.5,722.5
					c-12.2,221.2-2.7,443-14.9,664.2c-3.5,63.5-8.9,126.9-16,190.2"/>
			</g>
			<g>
				<path class="st3" d="M1994.3,2.7c-67.8,590.9-149.2,1180.2-214.8,1771.4c-14,125.9-26.6,252-41.4,377.8
					c-15.3,129.7-21.6,269.5-73,391.5c-12.5,29.7-27.4,58.4-38.2,88.9c-18.6,52.5-28.6,107.8-36.8,162.7
					c-17.4,116-26.1,233.4-35.3,350.2c-13.1,165.1-23.9,330.4-34.8,495.7c-20.6,312.6-33.8,627.5-72,938.6
					c-29.7,242.4-87.5,481-139,719.3c-52.1,240.7-103.5,482.4-114.6,729c-9.7,215.6,5.6,431.4-4.1,647.1
					c-2.8,62.9-7.8,125.6-14.8,188.2"/>
			</g>
			<g>
				<path class="st3" d="M2013.8,13.6c-70.7,601.8-140.5,1203.7-214.1,1805.1c-14,114.7-28.2,229.4-42.1,344
					c-10.5,86.1-18.3,173.1-34.9,258.3c-7.7,39.4-17,79.7-36.8,115c-11.9,21.3-26.6,40.5-36.4,63c-20.3,47.1-28.4,99.8-36,150.1
					c-17.6,117.1-26.3,235.6-35.6,353.6c-13.6,172.3-24.9,344.9-36.3,517.4c-21.3,323.1-35,648.6-74.2,970.2
					c-29.8,244.9-89.9,485.8-143.4,726.3c-53.7,241.6-107.2,484.9-117.1,733c-8.5,212.2,11.1,424.3,2.6,636.4
					c-2.5,62.8-7.5,125.5-14.7,188"/>
			</g>
			<g>
				<path class="st3" d="M2033.2,24.6C1964,623,1889.8,1220.9,1818.9,1819.2c-14,118.4-27.6,236.9-41.9,355.3
					c-10.4,85.5-18.4,171.8-34.9,256.3c-8.1,41.4-18.2,82.9-37.2,120.8c-12.1,24.2-26.9,46.8-37,72
					c-19.6,48.8-28.4,101.8-36.2,153.4c-17.6,116.9-26.2,235.4-35.5,353.2c-13.4,169.9-24.6,340.1-35.8,510.2
					c-21.1,320-34.5,642.4-73.5,960.9c-29.9,244.1-89.2,484.3-142.1,724.2c-53.2,241.3-106.1,484-116.3,731.7
					c-8.8,213.3,9.1,426.6,0.3,640c-2.6,62.8-7.5,125.4-14.6,187.8"/>
			</g>
			<g>
				<path class="st3" d="M2052.6,35.5c-67.1,583.4-154.2,1164.5-215.3,1748.6c-13.9,133-25.7,266.2-41,399
					c-15.7,136.4-25.9,277.9-74,407.7c-12.9,34.9-27.8,68.9-39.2,104.3c-18,56.1-28.8,114.2-37.5,172.4
					c-17.1,114.8-25.9,231-35.1,346.6c-12.7,160.6-23.3,321.3-33.9,482c-20,305.2-33.2,612.5-70.5,916.2
					c-29.5,240.6-85.6,477.7-136,714.5c-51,240-101,480.9-113,726.5c-10.6,217.8,2.3,436-8.3,653.8c-3.1,63.1-8.2,126.1-15.2,188.9"
					/>
			</g>
			<g>
				<path class="st3" d="M2072,46.4c-66,561.4-166.4,1119.1-216.7,1682.3c-13.7,152.9-23.7,306.1-39.7,458.8
					c-16.2,154.4-34.4,308.6-76.8,458.3c-32.9,115.8-64.5,229.6-81.6,349.2c-37,257.3-48.5,518.9-65.5,778.1
					c-18.5,283.3-31.7,568.1-65.9,850c-28.6,235.5-80.1,467.9-127,700.3c-48.1,238-93.8,476.5-108.5,719.3
					c-13.6,224-6.7,448.7-20.3,672.8c-3.9,63.9-9.5,127.7-16.8,191.3"/>
			</g>
			<g>
				<path class="st3" d="M2091.5,57.4c-65.4,537-177.1,1068.3-218.2,1608.2c-26.6,349.2-39,699.4-118.5,1041.9
					c-33.1,142.8-67.1,284.5-87.2,429.9c-33,239-46,480.8-61.6,721.4c-16.8,258.6-30,518.1-60.8,775.4
					c-27.5,229.9-73.9,457-117,684.3c-44.7,235.7-85.9,471.8-103.5,711.3c-16.9,231-16.6,462.8-33.5,693.8
					c-4.8,64.9-11,129.7-18.7,194.3"/>
			</g>
			<g>
				<path class="st3" d="M2110.9,68.3c-34.8,277.7-86.9,553-132.8,829c-39.1,235.6-71.1,470.9-86.9,709.3
					c-13,195.9-19.9,392.1-37,587.7c-16.9,192.1-45.1,382.1-83.2,571.1c-33.9,168.2-69.6,335.8-92.4,506
					c-29.7,221.6-43.5,445.1-58,668.1c-15.2,235.4-28.3,471.2-56,705.5c-26.6,224.5-68.1,446.8-107.5,669.3
					c-41.4,233.4-78.7,467.3-98.7,703.7c-20.1,237.6-25.9,476.1-46,713.7c-5.6,65.8-12.3,131.5-20.4,197"/>
			</g>
			<g>
				<path class="st3" d="M2130.3,79.2c-32.9,261.6-87.1,519.9-133.8,779.3c-42.2,234.3-72.7,468.3-87,706
					c-12.7,212.3-18.4,425-36,637c-17,204.5-48.2,406.9-85.4,608.6c-34.6,187.8-71.4,375.2-96.4,564.6
					c-27.5,208.4-41.7,418.2-55.2,627.9c-14,218-26.8,436.3-52.5,653.3c-26,220.4-64,439.1-100.5,658
					c-38.6,231.7-73.3,463.8-95,697.8c-22.5,242.8-33.4,486.5-55.8,729.3c-6.1,66.3-13.2,132.5-21.3,198.6"/>
			</g>
			<g>
				<path class="st3" d="M2149.8,90.2c-30.9,254.6-86.8,505-134.3,756.8c-44,233.4-73.5,467.1-87,704.3
					c-12.6,221-17.3,442.4-35.5,663.1c-17.1,207.3-50.1,412.6-86.2,617.3c-34.8,197.3-71.9,394.3-98.3,593
					c-27,202.6-41,406.5-54,610.3c-13.5,210.9-25.9,422-51,631.9c-26.1,218.6-62.6,435.8-97.4,653.2c-37,230.9-71.1,462-93.1,694.8
					c-23.3,245.6-37.7,491.9-61,737.5c-6.3,66.1-13.3,132.2-21.1,198.2"/>
			</g>
			<g>
				<path class="st3" d="M2169.2,101.1c-30.3,247.3-84.4,490.3-130.8,734.9c-44.2,232.8-72.4,466.1-86.7,702.6
					c-13.9,229.5-20.6,459.5-39.5,688.6c-17.1,206.7-49.9,411.3-85.9,615.4c-34.8,197.3-71.9,394.3-98.3,593
					c-27.2,204.5-41.2,410.4-54.5,616.2c-13.8,213.7-26.3,427.6-51.7,640.3c-25.8,215.5-61.8,429.6-96.6,643.8
					c-37.2,229.2-70.8,458.7-92.7,689.9c-23.3,245.6-37.7,491.9-61,737.5c-6.3,66.1-13.3,132.2-21.1,198.2"/>
			</g>
			<g>
				<path class="st3" d="M2188.6,112c-28.3,231.2-79.1,457.8-123,686.3c-44.5,231.5-70.5,464.2-86.2,699.3
					c-16.4,245.5-26.2,491.6-47.3,736.8c-17.8,207.9-50.3,413.7-86.5,619.1c-34.8,197.3-71.9,394.3-98.3,593
					c-27.9,209.8-42.1,421.1-55.9,632.3c-14.4,220.4-27.2,441.1-53.5,660.5c-24.9,208.3-60.4,415.1-94.8,621.9
					c-37.3,224.3-70,449-91.5,675.5c-23.3,245.6-37.7,491.9-61,737.5c-6.3,66.1-13.3,132.2-21.1,198.2"/>
			</g>
			<g>
				<path class="st3" d="M2208,123c-25.5,210-72.1,415.1-112.7,622.3c-45.1,229.8-68.4,461.8-85.6,695.2
					c-19.6,265.9-33.2,532.3-57,797.9c-18.9,210.2-51,418.3-87.6,626.1c-34.8,197.3-71.9,394.3-98.3,593
					c-28.9,217.1-43.3,435.8-57.8,654.2c-15.2,229.4-28.5,459.2-55.8,687.6c-23.8,198.7-58.5,395.7-92.3,592.9
					c-37.3,217.6-68.9,435.7-89.8,655.6c-23.3,245.6-37.7,491.9-61,737.5c-6.3,66.1-13.3,132.2-21.1,198.2"/>
			</g>
			<g>
				<path class="st3" d="M2227.5,133.9c-22.5,187.4-64.6,369.6-101.9,554.3c-45.9,227.8-66.4,459.4-84.9,690.8
					c-23,287.5-40.4,575.4-67.4,862.5c-20,212.8-51.8,423.5-88.9,633.9c-34.8,197.3-71.9,394.3-98.3,593
					c-29.9,224.8-44.5,451.5-59.8,677.7c-16.1,239-29.7,478.5-58.2,716.4c-22.6,188.5-56.4,375.1-89.6,561.9
					c-37.4,210.4-67.8,421.4-88,634.2c-23.3,245.6-37.7,491.9-61,737.5c-6.3,66.1-13.3,132.2-21.1,198.2"/>
			</g>
			<g>
				<path class="st3" d="M2246.9,144.9c-11.6,96.9-26.2,193.3-46.5,288.8c-14.5,68.4-31.4,136.3-45.7,204.8
					c-47,225.9-64.7,457.3-84.2,686.8c-26.1,306.9-47,614.3-76.7,921c-20.8,214.8-52.4,427.6-89.9,640.1
					c-34.8,197.3-71.9,394.3-98.3,593c-30.9,231.7-45.7,465.4-61.5,698.4c-16.9,247.5-30.9,495.7-60.4,742.1
					c-21.5,179.4-54.5,356.7-87.3,534.3c-37.7,204.1-66.8,408.8-86.4,615.4c-23.3,245.6-37.7,491.9-61,737.5
					c-6.3,66.1-13.3,132.2-21.1,198.2"/>
			</g>
			<g>
				<path class="st3" d="M2266.3,155.8c-11,92-24.3,183.6-44.1,274.2c-13,59.3-28.6,118-41.3,177.3
					c-48.1,224.3-63.7,455.9-83.8,683.9c-28.3,321.2-51.9,642.7-83.6,963.6c-21.3,215.6-52.6,429.2-90.2,642.5
					c-34.8,197.3-71.9,394.3-98.3,593c-31.5,236.2-46.4,474.4-62.7,712c-17.4,253.2-31.7,507.3-61.9,759.4
					c-20.8,173.2-53.1,344.2-85.7,515.5c-38,199.9-66.1,400.7-85.3,603.3c-23.3,245.6-37.7,491.9-61,737.5
					c-6.3,66.1-13.3,132.2-21.1,198.2"/>
			</g>
			<g>
				<path class="st3" d="M2285.8,166.7c-11,91.2-24,182.2-43.8,272c-12.6,57.3-27.9,114-40.3,171.4c-48.3,224-63.4,455.5-83.7,683.3
					c-28.8,324.1-53.1,648.6-85.1,972.4c-21.3,215.6-52.4,429.1-90.2,642.4c-35.1,198.2-72.6,396.1-99,595.7
					c-31.3,236.7-46.5,475.2-62.6,713.3c-17.2,254-31.3,508.8-61.8,761.7c-20.7,171.2-52.4,340.2-85,509.4
					c-85.4,443.5-104.1,893.3-146.6,1342c-6.2,65.7-13.1,131.3-20.9,196.8"/>
			</g>
			<g>
				<path class="st3" d="M2305.2,177.7c-19.8,165.8-57.1,326-90.7,489.1c-46.5,225.9-64.4,457.2-84.1,686.6
					c-26.5,307.7-47.9,615.9-78,923.3c-21.5,219.6-53.8,436.8-93.2,653.9c-37.3,206.1-77.8,411.8-105.2,619.5
					c-30.2,228.4-44.3,458.5-57.7,688.4c-14.3,243.5-26.1,487.6-55.7,729.8c-20.4,167.2-50.8,332.3-82.5,497.7
					c-86.8,453.8-106.7,915.3-150.9,1374.4c-6.3,65.9-13.3,131.8-21,197.6"/>
			</g>
			<g>
				<path class="st3" d="M2324.6,188.6c-23,192.3-65.3,380-102.4,569.7c-44.6,228.5-66.2,460.1-84.9,691.9
					c-22.7,281.5-39.9,563.5-66.6,844.7c-21.4,225.5-56.8,448.1-98.3,670.6c-41,219.5-85.7,438.6-115.7,660
					c-28.8,213-39.8,427.6-48.9,642.2c-9.5,223.8-17.3,448-44.3,670.5c-19.4,160-47.8,318.1-77.8,476.4
					c-89.3,471.5-110.8,952.7-158,1429.5c-6.8,68.3-14,136.6-22,204.8"/>
			</g>
			<g>
				<path class="st3" d="M2344,199.5c-27.2,224.9-75.1,445.9-116.6,668.4c-43.2,231.2-68.7,463.8-85.8,698.3
					c-18.2,250.2-30.4,500.9-52.9,750.7c-21,232.3-60.6,461.2-104.6,690.1c-45.3,235.8-95.1,471.2-128.4,709.1
					c-27.1,194-34.6,389.3-38.1,585c-3.6,199.4-6.6,398.9-30.2,597.2c-18,151.2-44.1,300.5-72,450.1
					c-35.8,191.6-59.1,384.7-78.9,578.5c-31.3,305.8-56.4,612.1-87.7,917.9c-7.3,71.8-15.1,143.5-23.6,215.2"/>
			</g>
			<g>
				<path class="st3" d="M2363.5,210.5c-31.4,258.1-84.9,512.5-131.1,768.2c-42.2,233.7-71.9,467.8-86.8,704.8
					c-13.8,218.6-20.6,437.6-39.2,655.8c-20.3,239.1-64.6,474.6-111,709.8c-49.7,252.2-104.5,504.1-141.2,758.7
					c-25.2,175.1-30,350.4-27.1,527c2.9,174.8,4.4,348.9-15.9,522.9c-16.6,142.2-40.3,282.8-66.1,423.5
					c-34.7,189-56.4,379.8-76.5,570.9c-34.8,330.9-64,662.3-98.8,993.2c-7.9,75.3-16.2,150.6-25.2,225.8"/>
			</g>
			<g>
				<path class="st3" d="M2382.9,221.4c-64,523.2-203.5,1034.7-230.9,1562.6c-9.9,191.4-12.1,383.1-27.4,574.2
					c-19.6,245.1-68,486.4-116.4,727.1c-53.5,266.2-112.6,532-152.1,800.8c-23.5,159.6-27.6,317.8-17.9,478.6
					c9.3,154.4,13.8,306.7-4,460.9c-15.6,134.6-37.2,267.9-61.2,401.2c-33.6,186.6-54.2,375.2-74.3,563.6
					c-37.8,352.4-70.6,705.4-108.4,1057.8c-8.4,77.9-17,155.8-26.3,233.6"/>
			</g>
			<g>
				<path class="st3" d="M2402.3,232.3c-65.9,540.9-215.4,1071.8-238.9,1617.8c-7.5,173.4-6.2,347-19.5,520.1
					c-19.3,249.3-70,494.8-119.7,739.4c-55.9,275-118.1,549.7-159,827.5c-22.2,150.6-28.1,298.8-12.4,450.2
					c14.8,142.7,19.7,281.3,3,424.4c-15.2,130.1-35.5,259-58.3,387.9c-32.7,184.5-52.7,371.1-72.8,557.3
					c-39.7,366.6-75,733.7-114.7,1100.3c-8.5,78.5-17.2,157-26.6,235.5"/>
			</g>
			<g>
				<path class="st3" d="M2421.8,243.3c-65.7,542.3-216.7,1074.6-239.6,1621.9c-7.2,171.5-5.3,343.2-18.6,514.5
					c-19.3,249.4-70,495.1-119.7,739.9c-55.6,274.2-117.5,547.9-158.3,824.8c-22.2,150.8-28.3,299.3-12.8,450.9
					c14.6,142.8,19.3,281.5,2.6,424.6c-15.4,131.6-36,262.1-58.9,392.6c-32.4,185.4-52.9,372.6-73.1,559.6
					c-39.5,365.1-74.5,730.7-114,1095.9c-8.5,78.6-17.2,157.2-26.6,235.7"/>
			</g>
			<g>
				<path class="st3" d="M2441.2,254.2c-64.9,535.9-213.4,1060.9-237.3,1601.8c-7.9,178-6.9,356.2-20.8,533.9
					c-19.1,244.3-67.7,485.1-115.7,725.1c-53,264.4-111.5,528.4-150.7,795.3c-23,157-28.2,312.5-17.9,470.7
					c9.9,150.9,13.5,299.2-3.9,449.9c-16.5,142.4-39.4,283.5-63.6,424.8c-32.8,191.3-55.1,384-75.7,577
					c-37.4,349.6-69.7,699.7-107.1,1049.3c-8.3,77.6-16.9,155.2-26.2,232.7"/>
			</g>
			<g>
				<path class="st3" d="M2460.6,265.1c-63.7,526.2-208.6,1040.1-233.8,1571.2c-8.9,187.2-9.1,374.7-23.9,561.6
					c-18.7,236.3-63.6,469.2-109.2,701.4c-49.1,249.9-103.1,499.4-139.4,751.6c-23.9,166.6-30,333-25.8,501.1
					c4.2,164,4.9,326.5-14.2,489.8c-18.7,159-44.6,316.8-71,474.6c-87.9,524.3-121.3,1056.5-176.7,1584.8
					c-7.8,74.8-16,149.6-24.9,224.3"/>
			</g>
			<g>
				<path class="st3" d="M2480,276.1c-33.7,277.8-92.4,551.9-142.3,827c-42.6,235.1-75.4,470.3-87.6,709
					c-10.1,197.6-11.6,395.6-27.5,592.9c-18.2,226.8-58.8,450.6-101.5,673.9c-44.7,233.3-93.7,466.2-126.4,701.6
					c-24.8,178.1-33.2,356.6-34.8,536.3c-1.6,179.3-4.9,357.8-26.2,536c-21.3,178.2-50.4,355.2-79.5,532.3
					c-83.9,509.5-117.5,1024.5-169.7,1537.8c-7.3,71.2-14.9,142.4-23.3,213.5"/>
			</g>
			<g>
				<path class="st3" d="M2499.5,287c-32.4,267.3-89.9,530.6-138.6,795.2c-43.1,234.4-74.5,468.9-87.3,706.9
					c-11.2,207.7-14,415.9-30.9,623.3c-17.7,217.7-54.3,432.8-94.2,647.4c-40.4,217.3-84.4,434.2-113.9,653.3
					c-25.5,189.3-36.8,379.3-43.6,570.1c-6.9,194-14.3,387.7-37.7,580.5c-23.9,196.8-56,392.2-87.8,587.8
					c-35.6,219-66.1,438.4-87.9,659.2c-27.4,277.5-47.8,555.6-75.1,833.1c-6.7,67.9-13.9,135.7-21.8,203.4"/>
			</g>
			<g>
				<path class="st3" d="M2518.9,297.9c-31.4,259-87.9,513.9-135.8,770.1c-43.7,233.8-73.9,467.8-87.1,705.3
					c-12.1,215.9-16,432.3-33.7,647.9c-17.3,210.7-51.1,419.1-88.6,627c-36.9,204.5-76.8,408.7-104,614.8
					c-26.1,198.1-39.8,397.2-50.5,596.6c-11,205.4-21.8,410.8-46.6,615.1c-25.7,211.2-60.3,421.1-94.2,631.2
					c-36.5,226.5-69.3,453.3-91.2,681.7c-24.7,257.7-41.6,516-66.3,773.7c-6.3,65.7-13.2,131.4-20.9,197"/>
			</g>
			<g>
				<path class="st3" d="M2538.3,308.9c-30.9,254.8-86.8,505.3-134.3,757.3c-44,233.4-73.5,467.2-87,704.3
					c-12.6,220.7-17.2,441.8-35.4,662.2c-17.1,207.4-50,412.7-86.2,617.5c-34.9,197.6-72.2,395-98.6,594
					c-26.9,202.4-41,406.2-53.9,609.9c-13.3,210.8-25.7,421.7-50.9,631.5c-26.2,218.4-62.5,435.4-97.3,652.5
					c-37,230.6-71,461.5-93,694.2c-23.3,246.3-37.9,493.3-61.3,739.6c-6.2,65.9-13.2,131.7-21,197.4"/>
			</g>
		</g>
	</g>
</g>
</svg>
